<ttFont>
<head>
    <!-- Most of this table will be recalculated by the compiler -->
    <tableVersion value="1.0"/>
    <fontRevision value="1.0"/>
    <checkSumAdjustment value="0x3d26237"/>
    <magicNumber value="0x5f0f3cf5"/>
    <flags value="00000000 00011011"/>
    <unitsPerEm value="1000"/>
    <created value="Sat Dec  6 13:43:38 2025"/>
    <modified value="Sat Dec  6 13:47:23 2025"/>
    <xMin value="-29"/>
    <yMin value="-958"/>
    <xMax value="1146"/>
    <yMax value="777"/>
    <macStyle value="00000000 00000010"/>
    <lowestRecPPEM value="6"/>
    <fontDirectionHint value="2"/>
    <indexToLocFormat value="0"/>
    <glyphDataFormat value="0"/>
  </head>
    <TTGlyph name="A" xMin="27" yMin="-51" xMax="819" yMax="723">
      <contour>
        <pt x="331" y="165" on="1"/>
        <pt x="303" y="125" on="0"/>
        <pt x="248" y="48" on="0"/>
        <pt x="194" y="-13" on="0"/>
        <pt x="143" y="-51" on="0"/>
        <pt x="120" y="-51" on="1"/>
        <pt x="101" y="-51" on="0"/>
        <pt x="67" y="-35" on="0"/>
        <pt x="42" y="-10" on="0"/>
        <pt x="27" y="20" on="0"/>
        <pt x="27" y="33" on="1"/>
        <pt x="27" y="43" on="0"/>
        <pt x="34" y="70" on="0"/>
        <pt x="46" y="94" on="0"/>
        <pt x="59" y="111" on="0"/>
        <pt x="65" y="111" on="1"/>
        <pt x="69" y="111" on="0"/>
        <pt x="72" y="100" on="1"/>
        <pt x="76" y="87" on="0"/>
        <pt x="94" y="65" on="0"/>
        <pt x="117" y="51" on="0"/>
        <pt x="143" y="43" on="0"/>
        <pt x="153" y="43" on="1"/>
        <pt x="167" y="43" on="0"/>
        <pt x="205" y="71" on="0"/>
        <pt x="247" y="117" on="0"/>
        <pt x="291" y="174" on="0"/>
        <pt x="332" y="233" on="0"/>
        <pt x="368" y="288" on="0"/>
        <pt x="381" y="308" on="1"/>
        <pt x="429" y="383" on="0"/>
        <pt x="504" y="514" on="0"/>
        <pt x="555" y="611" on="0"/>
        <pt x="582" y="667" on="0"/>
        <pt x="582" y="667" on="1"/>
        <pt x="589" y="679" on="1"/>
        <pt x="598" y="690" on="0"/>
        <pt x="620" y="707" on="0"/>
        <pt x="641" y="718" on="0"/>
        <pt x="659" y="723" on="0"/>
        <pt x="664" y="723" on="1"/>
        <pt x="672" y="723" on="0"/>
        <pt x="674" y="713" on="0"/>
        <pt x="674" y="699" on="1"/>
        <pt x="674" y="604" on="1"/>
        <pt x="674" y="538" on="0"/>
        <pt x="681" y="406" on="0"/>
        <pt x="686" y="340" on="1"/>
        <pt x="690" y="284" on="0"/>
        <pt x="697" y="213" on="0"/>
        <pt x="703" y="165" on="0"/>
        <pt x="709" y="133" on="0"/>
        <pt x="712" y="117" on="1"/>
        <pt x="721" y="72" on="0"/>
        <pt x="739" y="26" on="0"/>
        <pt x="762" y="26" on="1"/>
        <pt x="764" y="26" on="0"/>
        <pt x="769" y="28" on="0"/>
        <pt x="777" y="32" on="1"/>
        <pt x="791" y="40" on="0"/>
        <pt x="809" y="43" on="0"/>
        <pt x="810" y="43" on="1"/>
        <pt x="816" y="43" on="0"/>
        <pt x="819" y="38" on="0"/>
        <pt x="819" y="36" on="1"/>
        <pt x="819" y="28" on="0"/>
        <pt x="793" y="6" on="0"/>
        <pt x="755" y="-15" on="0"/>
        <pt x="712" y="-30" on="0"/>
        <pt x="694" y="-30" on="1"/>
        <pt x="661" y="-30" on="0"/>
        <pt x="641" y="7" on="0"/>
        <pt x="632" y="42" on="1"/>
        <pt x="627" y="62" on="0"/>
        <pt x="614" y="126" on="0"/>
        <pt x="610" y="165" on="1"/>
      </contour>
      <contour>
        <pt x="586" y="601" on="1"/>
        <pt x="580" y="591" on="0"/>
        <pt x="566" y="562" on="0"/>
        <pt x="544" y="519" on="0"/>
        <pt x="511" y="457" on="0"/>
        <pt x="487" y="415" on="1"/>
        <pt x="474" y="391" on="0"/>
        <pt x="448" y="346" on="0"/>
        <pt x="418" y="297" on="0"/>
        <pt x="381" y="240" on="0"/>
        <pt x="358" y="204" on="1"/>
        <pt x="378" y="217" on="0"/>
        <pt x="403" y="221" on="0"/>
        <pt x="417" y="221" on="1"/>
        <pt x="604" y="221" on="1"/>
        <pt x="603" y="242" on="0"/>
        <pt x="597" y="321" on="0"/>
        <pt x="591" y="415" on="0"/>
        <pt x="587" y="516" on="0"/>
        <pt x="587" y="558" on="1"/>
        <pt x="587" y="601" on="1"/>
      </contour>
    </TTGlyph>
    <TTGlyph name="B" xMin="31" yMin="-22" xMax="679" yMax="706">
      <contour>
        <pt x="262" y="542" on="1"/>
        <pt x="263" y="542" on="1"/>
        <pt x="300" y="589" on="0"/>
        <pt x="381" y="652" on="0"/>
        <pt x="459" y="690" on="0"/>
        <pt x="530" y="706" on="0"/>
        <pt x="556" y="706" on="1"/>
        <pt x="610" y="706" on="0"/>
        <pt x="679" y="651" on="0"/>
        <pt x="679" y="605" on="1"/>
        <pt x="679" y="566" on="0"/>
        <pt x="633" y="502" on="0"/>
        <pt x="569" y="451" on="0"/>
        <pt x="501" y="416" on="0"/>
        <pt x="479" y="405" on="1"/>
        <pt x="511" y="401" on="0"/>
        <pt x="570" y="375" on="0"/>
        <pt x="615" y="333" on="0"/>
        <pt x="642" y="276" on="0"/>
        <pt x="642" y="240" on="1"/>
        <pt x="642" y="180" on="0"/>
        <pt x="572" y="83" on="0"/>
        <pt x="465" y="15" on="0"/>
        <pt x="340" y="-22" on="0"/>
        <pt x="285" y="-22" on="1"/>
        <pt x="249" y="-22" on="0"/>
        <pt x="197" y="-6" on="0"/>
        <pt x="161" y="15" on="0"/>
        <pt x="139" y="38" on="0"/>
        <pt x="133" y="45" on="1"/>
        <pt x="135" y="50" on="0"/>
        <pt x="139" y="58" on="0"/>
        <pt x="144" y="65" on="0"/>
        <pt x="154" y="72" on="0"/>
        <pt x="162" y="78" on="1"/>
        <pt x="171" y="83" on="0"/>
        <pt x="198" y="96" on="0"/>
        <pt x="209" y="96" on="1"/>
        <pt x="214" y="96" on="0"/>
        <pt x="218" y="94" on="0"/>
        <pt x="223" y="89" on="1"/>
        <pt x="250" y="60" on="0"/>
        <pt x="316" y="34" on="0"/>
        <pt x="354" y="34" on="1"/>
        <pt x="380" y="34" on="0"/>
        <pt x="449" y="46" on="0"/>
        <pt x="512" y="80" on="0"/>
        <pt x="555" y="144" on="0"/>
        <pt x="555" y="196" on="1"/>
        <pt x="555" y="232" on="0"/>
        <pt x="525" y="290" on="0"/>
        <pt x="474" y="330" on="0"/>
        <pt x="406" y="352" on="0"/>
        <pt x="367" y="352" on="1"/>
        <pt x="350" y="352" on="0"/>
        <pt x="322" y="348" on="0"/>
        <pt x="317" y="348" on="1"/>
        <pt x="306" y="348" on="0"/>
        <pt x="306" y="355" on="1"/>
        <pt x="306" y="360" on="0"/>
        <pt x="335" y="390" on="0"/>
        <pt x="380" y="405" on="1"/>
        <pt x="430" y="422" on="0"/>
        <pt x="509" y="452" on="0"/>
        <pt x="563" y="487" on="0"/>
        <pt x="592" y="531" on="0"/>
        <pt x="592" y="561" on="1"/>
        <pt x="592" y="583" on="0"/>
        <pt x="575" y="616" on="0"/>
        <pt x="546" y="639" on="0"/>
        <pt x="508" y="650" on="0"/>
        <pt x="487" y="650" on="1"/>
        <pt x="459" y="650" on="0"/>
        <pt x="414" y="634" on="0"/>
        <pt x="377" y="607" on="0"/>
        <pt x="346" y="572" on="0"/>
        <pt x="331" y="552" on="1"/>
        <pt x="302" y="513" on="0"/>
        <pt x="256" y="417" on="0"/>
        <pt x="223" y="324" on="0"/>
        <pt x="201" y="245" on="0"/>
        <pt x="195" y="223" on="1"/>
        <pt x="176" y="151" on="0"/>
        <pt x="135" y="60" on="0"/>
        <pt x="120" y="30" on="1"/>
        <pt x="113" y="17" on="0"/>
        <pt x="90" y="-3" on="0"/>
        <pt x="66" y="-16" on="0"/>
        <pt x="46" y="-22" on="0"/>
        <pt x="42" y="-22" on="1"/>
        <pt x="40" y="-22" on="0"/>
        <pt x="31" y="-21" on="0"/>
        <pt x="31" y="-16" on="1"/>
        <pt x="31" y="-14" on="0"/>
        <pt x="34" y="-6" on="0"/>
        <pt x="44" y="13" on="1"/>
        <pt x="62" y="48" on="0"/>
        <pt x="89" y="117" on="0"/>
        <pt x="112" y="191" on="0"/>
        <pt x="131" y="275" on="0"/>
        <pt x="142" y="325" on="1"/>
        <pt x="156" y="388" on="0"/>
        <pt x="183" y="543" on="0"/>
        <pt x="196" y="636" on="1"/>
        <pt x="181" y="629" on="0"/>
        <pt x="144" y="612" on="0"/>
        <pt x="136" y="612" on="1"/>
        <pt x="126" y="612" on="0"/>
        <pt x="126" y="619" on="1"/>
        <pt x="126" y="632" on="0"/>
        <pt x="175" y="660" on="0"/>
        <pt x="213" y="680" on="1"/>
        <pt x="228" y="688" on="0"/>
        <pt x="266" y="705" on="0"/>
        <pt x="274" y="705" on="1"/>
        <pt x="285" y="705" on="0"/>
        <pt x="285" y="696" on="1"/>
      </contour>
    </TTGlyph>
    <TTGlyph name="C" xMin="14" yMin="-25" xMax="547" yMax="705">
      <contour>
        <pt x="512" y="157" on="1"/>
        <pt x="512" y="152" on="0"/>
        <pt x="490" y="120" on="0"/>
        <pt x="451" y="80" on="0"/>
        <pt x="395" y="36" on="0"/>
        <pt x="328" y="-1" on="0"/>
        <pt x="251" y="-25" on="0"/>
        <pt x="210" y="-25" on="1"/>
        <pt x="168" y="-25" on="0"/>
        <pt x="96" y="5" on="0"/>
        <pt x="43" y="63" on="0"/>
        <pt x="14" y="150" on="0"/>
        <pt x="14" y="207" on="1"/>
        <pt x="14" y="242" on="0"/>
        <pt x="28" y="328" on="0"/>
        <pt x="60" y="420" on="0"/>
        <pt x="111" y="512" on="0"/>
        <pt x="147" y="553" on="1"/>
        <pt x="176" y="586" on="0"/>
        <pt x="248" y="641" on="0"/>
        <pt x="330" y="682" on="0"/>
        <pt x="419" y="705" on="0"/>
        <pt x="464" y="705" on="1"/>
        <pt x="506" y="705" on="0"/>
        <pt x="547" y="675" on="0"/>
        <pt x="547" y="640" on="1"/>
        <pt x="547" y="622" on="0"/>
        <pt x="530" y="573" on="0"/>
        <pt x="508" y="528" on="0"/>
        <pt x="490" y="495" on="0"/>
        <pt x="488" y="493" on="1"/>
        <pt x="482" y="485" on="0"/>
        <pt x="463" y="469" on="0"/>
        <pt x="442" y="457" on="0"/>
        <pt x="421" y="450" on="0"/>
        <pt x="415" y="450" on="1"/>
        <pt x="412" y="450" on="0"/>
        <pt x="405" y="452" on="0"/>
        <pt x="405" y="457" on="1"/>
        <pt x="405" y="459" on="0"/>
        <pt x="407" y="464" on="0"/>
        <pt x="413" y="475" on="1"/>
        <pt x="415" y="478" on="0"/>
        <pt x="430" y="507" on="0"/>
        <pt x="447" y="544" on="0"/>
        <pt x="460" y="583" on="0"/>
        <pt x="460" y="596" on="1"/>
        <pt x="460" y="622" on="0"/>
        <pt x="431" y="649" on="0"/>
        <pt x="395" y="649" on="1"/>
        <pt x="334" y="649" on="0"/>
        <pt x="245" y="603" on="0"/>
        <pt x="211" y="561" on="1"/>
        <pt x="178" y="520" on="0"/>
        <pt x="135" y="432" on="0"/>
        <pt x="111" y="349" on="0"/>
        <pt x="101" y="277" on="0"/>
        <pt x="101" y="251" on="1"/>
        <pt x="101" y="194" on="0"/>
        <pt x="130" y="111" on="0"/>
        <pt x="179" y="57" on="0"/>
        <pt x="243" y="31" on="0"/>
        <pt x="278" y="31" on="1"/>
        <pt x="309" y="31" on="0"/>
        <pt x="356" y="48" on="0"/>
        <pt x="392" y="75" on="0"/>
        <pt x="418" y="106" on="0"/>
        <pt x="427" y="119" on="1"/>
        <pt x="436" y="131" on="0"/>
        <pt x="459" y="149" on="0"/>
        <pt x="481" y="160" on="0"/>
        <pt x="499" y="165" on="0"/>
        <pt x="503" y="165" on="1"/>
        <pt x="512" y="165" on="0"/>
      </contour>
    </TTGlyph>
    <TTGlyph name="D" xMin="21" yMin="0" xMax="788" yMax="683">
      <contour>
        <pt x="109" y="0" on="1"/>
        <pt x="92" y="0" on="0"/>
        <pt x="85" y="2" on="0"/>
        <pt x="85" y="7" on="1"/>
        <pt x="85" y="12" on="0"/>
        <pt x="111" y="40" on="0"/>
        <pt x="146" y="53" on="1"/>
        <pt x="203" y="191" on="0"/>
        <pt x="273" y="478" on="0"/>
        <pt x="283" y="627" on="1"/>
        <pt x="232" y="624" on="0"/>
        <pt x="169" y="609" on="0"/>
        <pt x="132" y="587" on="0"/>
        <pt x="115" y="560" on="0"/>
        <pt x="110" y="545" on="1"/>
        <pt x="105" y="532" on="0"/>
        <pt x="96" y="518" on="0"/>
        <pt x="76" y="505" on="1"/>
        <pt x="62" y="496" on="0"/>
        <pt x="37" y="488" on="0"/>
        <pt x="31" y="488" on="1"/>
        <pt x="21" y="488" on="0"/>
        <pt x="21" y="496" on="1"/>
        <pt x="21" y="498" on="0"/>
        <pt x="29" y="527" on="0"/>
        <pt x="60" y="570" on="0"/>
        <pt x="119" y="621" on="0"/>
        <pt x="170" y="644" on="1"/>
        <pt x="203" y="659" on="0"/>
        <pt x="262" y="674" on="0"/>
        <pt x="321" y="682" on="0"/>
        <pt x="380" y="683" on="0"/>
        <pt x="412" y="683" on="1"/>
        <pt x="448" y="683" on="0"/>
        <pt x="515" y="682" on="0"/>
        <pt x="581" y="673" on="0"/>
        <pt x="646" y="654" on="0"/>
        <pt x="678" y="637" on="1"/>
        <pt x="729" y="609" on="0"/>
        <pt x="788" y="516" on="0"/>
        <pt x="788" y="450" on="1"/>
        <pt x="788" y="382" on="0"/>
        <pt x="736" y="262" on="0"/>
        <pt x="649" y="162" on="0"/>
        <pt x="534" y="84" on="0"/>
        <pt x="406" y="29" on="0"/>
        <pt x="274" y="0" on="0"/>
        <pt x="214" y="0" on="1"/>
      </contour>
      <contour>
        <pt x="276" y="56" on="1"/>
        <pt x="368" y="56" on="0"/>
        <pt x="523" y="109" on="0"/>
        <pt x="637" y="203" on="0"/>
        <pt x="701" y="331" on="0"/>
        <pt x="701" y="406" on="1"/>
        <pt x="701" y="461" on="0"/>
        <pt x="662" y="537" on="0"/>
        <pt x="600" y="586" on="0"/>
        <pt x="523" y="613" on="0"/>
        <pt x="449" y="625" on="0"/>
        <pt x="385" y="627" on="0"/>
        <pt x="367" y="627" on="1"/>
        <pt x="360" y="558" on="0"/>
        <pt x="337" y="426" on="0"/>
        <pt x="303" y="289" on="0"/>
        <pt x="253" y="141" on="0"/>
        <pt x="218" y="56" on="1"/>
      </contour>
    </TTGlyph>
    <TTGlyph name="E" xMin="29" yMin="-22" xMax="576" yMax="705">
      <contour>
        <pt x="243" y="363" on="1"/>
        <pt x="225" y="369" on="0"/>
        <pt x="190" y="388" on="0"/>
        <pt x="163" y="416" on="0"/>
        <pt x="146" y="452" on="0"/>
        <pt x="146" y="475" on="1"/>
        <pt x="146" y="520" on="0"/>
        <pt x="204" y="603" on="0"/>
        <pt x="296" y="667" on="0"/>
        <pt x="407" y="705" on="0"/>
        <pt x="459" y="705" on="1"/>
        <pt x="475" y="705" on="0"/>
        <pt x="515" y="701" on="0"/>
        <pt x="551" y="686" on="0"/>
        <pt x="576" y="660" on="0"/>
        <pt x="576" y="637" on="1"/>
        <pt x="576" y="614" on="0"/>
        <pt x="554" y="578" on="0"/>
        <pt x="523" y="553" on="0"/>
        <pt x="491" y="540" on="0"/>
        <pt x="482" y="540" on="1"/>
        <pt x="476" y="540" on="0"/>
        <pt x="473" y="545" on="0"/>
        <pt x="473" y="547" on="1"/>
        <pt x="473" y="549" on="0"/>
        <pt x="474" y="553" on="0"/>
        <pt x="478" y="560" on="1"/>
        <pt x="489" y="576" on="0"/>
        <pt x="489" y="593" on="1"/>
        <pt x="489" y="613" on="0"/>
        <pt x="466" y="635" on="0"/>
        <pt x="434" y="646" on="0"/>
        <pt x="401" y="649" on="0"/>
        <pt x="391" y="649" on="1"/>
        <pt x="337" y="649" on="0"/>
        <pt x="274" y="615" on="0"/>
        <pt x="242" y="570" on="0"/>
        <pt x="233" y="528" on="0"/>
        <pt x="233" y="519" on="1"/>
        <pt x="233" y="499" on="0"/>
        <pt x="251" y="460" on="0"/>
        <pt x="291" y="428" on="0"/>
        <pt x="356" y="406" on="0"/>
        <pt x="404" y="404" on="1"/>
        <pt x="409" y="404" on="0"/>
        <pt x="418" y="402" on="0"/>
        <pt x="418" y="397" on="1"/>
        <pt x="418" y="394" on="0"/>
        <pt x="406" y="378" on="0"/>
        <pt x="383" y="362" on="0"/>
        <pt x="352" y="349" on="0"/>
        <pt x="333" y="348" on="1"/>
        <pt x="271" y="345" on="0"/>
        <pt x="188" y="295" on="0"/>
        <pt x="137" y="230" on="0"/>
        <pt x="116" y="164" on="0"/>
        <pt x="116" y="146" on="1"/>
        <pt x="116" y="117" on="0"/>
        <pt x="144" y="75" on="0"/>
        <pt x="188" y="47" on="0"/>
        <pt x="244" y="34" on="0"/>
        <pt x="271" y="34" on="1"/>
        <pt x="306" y="34" on="0"/>
        <pt x="357" y="53" on="0"/>
        <pt x="393" y="79" on="0"/>
        <pt x="418" y="109" on="0"/>
        <pt x="425" y="119" on="1"/>
        <pt x="435" y="132" on="0"/>
        <pt x="459" y="150" on="0"/>
        <pt x="481" y="160" on="0"/>
        <pt x="499" y="165" on="0"/>
        <pt x="502" y="165" on="1"/>
        <pt x="511" y="165" on="0"/>
        <pt x="511" y="157" on="1"/>
        <pt x="511" y="152" on="0"/>
        <pt x="489" y="122" on="0"/>
        <pt x="449" y="82" on="0"/>
        <pt x="393" y="38" on="0"/>
        <pt x="324" y="2" on="0"/>
        <pt x="246" y="-22" on="0"/>
        <pt x="203" y="-22" on="1"/>
        <pt x="167" y="-22" on="0"/>
        <pt x="103" y="-5" on="0"/>
        <pt x="56" y="27" on="0"/>
        <pt x="29" y="73" on="0"/>
        <pt x="29" y="102" on="1"/>
        <pt x="29" y="130" on="0"/>
        <pt x="55" y="199" on="0"/>
        <pt x="109" y="270" on="0"/>
        <pt x="189" y="337" on="0"/>
      </contour>
    </TTGlyph>
    <TTGlyph name="F" xMin="17" yMin="-32" xMax="848" yMax="683">
      <contour>
        <pt x="848" y="645" on="1"/>
        <pt x="848" y="632" on="0"/>
        <pt x="827" y="611" on="0"/>
        <pt x="800" y="596" on="0"/>
        <pt x="775" y="587" on="0"/>
        <pt x="771" y="587" on="1"/>
        <pt x="760" y="587" on="0"/>
        <pt x="761" y="594" on="0"/>
        <pt x="761" y="601" on="1"/>
        <pt x="761" y="610" on="0"/>
        <pt x="749" y="620" on="0"/>
        <pt x="731" y="626" on="0"/>
        <pt x="712" y="627" on="0"/>
        <pt x="706" y="627" on="1"/>
        <pt x="506" y="627" on="1"/>
        <pt x="502" y="609" on="0"/>
        <pt x="483" y="535" on="0"/>
        <pt x="459" y="454" on="0"/>
        <pt x="436" y="379" on="0"/>
        <pt x="428" y="359" on="1"/>
        <pt x="677" y="359" on="1"/>
        <pt x="689" y="359" on="0"/>
        <pt x="694" y="356" on="0"/>
        <pt x="694" y="353" on="1"/>
        <pt x="694" y="342" on="0"/>
        <pt x="676" y="321" on="0"/>
        <pt x="650" y="304" on="0"/>
        <pt x="623" y="294" on="0"/>
        <pt x="614" y="294" on="1"/>
        <pt x="608" y="294" on="0"/>
        <pt x="605" y="295" on="0"/>
        <pt x="605" y="303" on="1"/>
        <pt x="406" y="303" on="1"/>
        <pt x="399" y="282" on="0"/>
        <pt x="366" y="204" on="0"/>
        <pt x="328" y="123" on="0"/>
        <pt x="294" y="58" on="0"/>
        <pt x="286" y="49" on="1"/>
        <pt x="256" y="14" on="0"/>
        <pt x="179" y="-32" on="0"/>
        <pt x="134" y="-32" on="1"/>
        <pt x="100" y="-32" on="0"/>
        <pt x="39" y="1" on="0"/>
        <pt x="24" y="31" on="1"/>
        <pt x="22" y="34" on="0"/>
        <pt x="17" y="44" on="0"/>
        <pt x="17" y="48" on="1"/>
        <pt x="17" y="55" on="0"/>
        <pt x="35" y="72" on="0"/>
        <pt x="61" y="87" on="0"/>
        <pt x="87" y="97" on="0"/>
        <pt x="96" y="97" on="1"/>
        <pt x="102" y="97" on="0"/>
        <pt x="105" y="91" on="1"/>
        <pt x="110" y="83" on="0"/>
        <pt x="123" y="60" on="0"/>
        <pt x="145" y="39" on="0"/>
        <pt x="180" y="24" on="0"/>
        <pt x="206" y="24" on="1"/>
        <pt x="213" y="32" on="0"/>
        <pt x="237" y="77" on="0"/>
        <pt x="264" y="135" on="0"/>
        <pt x="292" y="198" on="0"/>
        <pt x="303" y="223" on="1"/>
        <pt x="347" y="326" on="0"/>
        <pt x="408" y="530" on="0"/>
        <pt x="427" y="627" on="1"/>
        <pt x="343" y="627" on="1"/>
        <pt x="320" y="627" on="0"/>
        <pt x="279" y="627" on="0"/>
        <pt x="270" y="626" on="1"/>
        <pt x="262" y="619" on="0"/>
        <pt x="221" y="593" on="0"/>
        <pt x="199" y="593" on="1"/>
        <pt x="191" y="593" on="0"/>
        <pt x="191" y="599" on="1"/>
        <pt x="191" y="606" on="0"/>
        <pt x="199" y="618" on="0"/>
        <pt x="204" y="623" on="1"/>
        <pt x="230" y="649" on="0"/>
        <pt x="282" y="674" on="0"/>
        <pt x="328" y="683" on="0"/>
        <pt x="362" y="683" on="0"/>
        <pt x="368" y="683" on="1"/>
        <pt x="768" y="683" on="1"/>
        <pt x="800" y="683" on="0"/>
        <pt x="848" y="670" on="0"/>
      </contour>
    </TTGlyph>
    <TTGlyph name="G" xMin="45" yMin="-119" xMax="615" yMax="705">
      <contour>
        <pt x="451" y="161" on="1"/>
        <pt x="436" y="148" on="0"/>
        <pt x="388" y="116" on="0"/>
        <pt x="329" y="88" on="0"/>
        <pt x="261" y="68" on="0"/>
        <pt x="226" y="68" on="1"/>
        <pt x="180" y="68" on="0"/>
        <pt x="112" y="101" on="0"/>
        <pt x="67" y="158" on="0"/>
        <pt x="45" y="233" on="0"/>
        <pt x="45" y="275" on="1"/>
        <pt x="45" y="363" on="0"/>
        <pt x="117" y="519" on="0"/>
        <pt x="239" y="636" on="0"/>
        <pt x="397" y="705" on="0"/>
        <pt x="484" y="705" on="1"/>
        <pt x="509" y="705" on="0"/>
        <pt x="556" y="699" on="0"/>
        <pt x="593" y="684" on="0"/>
        <pt x="615" y="658" on="0"/>
        <pt x="615" y="638" on="1"/>
        <pt x="615" y="623" on="0"/>
        <pt x="589" y="567" on="0"/>
        <pt x="548" y="512" on="0"/>
        <pt x="499" y="472" on="0"/>
        <pt x="475" y="472" on="1"/>
        <pt x="472" y="472" on="0"/>
        <pt x="465" y="474" on="0"/>
        <pt x="465" y="479" on="1"/>
        <pt x="465" y="484" on="0"/>
        <pt x="474" y="495" on="1"/>
        <pt x="476" y="497" on="0"/>
        <pt x="493" y="519" on="0"/>
        <pt x="513" y="549" on="0"/>
        <pt x="528" y="582" on="0"/>
        <pt x="528" y="594" on="1"/>
        <pt x="528" y="613" on="0"/>
        <pt x="503" y="635" on="0"/>
        <pt x="468" y="646" on="0"/>
        <pt x="429" y="649" on="0"/>
        <pt x="415" y="649" on="1"/>
        <pt x="345" y="649" on="0"/>
        <pt x="252" y="603" on="0"/>
        <pt x="220" y="564" on="1"/>
        <pt x="195" y="533" on="0"/>
        <pt x="161" y="467" on="0"/>
        <pt x="141" y="402" on="0"/>
        <pt x="132" y="343" on="0"/>
        <pt x="132" y="319" on="1"/>
        <pt x="132" y="278" on="0"/>
        <pt x="153" y="207" on="0"/>
        <pt x="195" y="154" on="0"/>
        <pt x="255" y="124" on="0"/>
        <pt x="294" y="124" on="1"/>
        <pt x="335" y="124" on="0"/>
        <pt x="400" y="160" on="0"/>
        <pt x="450" y="217" on="0"/>
        <pt x="485" y="288" on="0"/>
        <pt x="495" y="323" on="1"/>
        <pt x="497" y="330" on="0"/>
        <pt x="516" y="346" on="0"/>
        <pt x="539" y="360" on="0"/>
        <pt x="563" y="370" on="0"/>
        <pt x="571" y="370" on="1"/>
        <pt x="581" y="370" on="0"/>
        <pt x="581" y="362" on="1"/>
        <pt x="581" y="359" on="0"/>
        <pt x="572" y="322" on="0"/>
        <pt x="559" y="276" on="0"/>
        <pt x="547" y="230" on="0"/>
        <pt x="544" y="219" on="1"/>
        <pt x="533" y="187" on="0"/>
        <pt x="513" y="125" on="0"/>
        <pt x="496" y="87" on="1"/>
        <pt x="469" y="28" on="0"/>
        <pt x="400" y="-51" on="0"/>
        <pt x="326" y="-99" on="0"/>
        <pt x="253" y="-119" on="0"/>
        <pt x="222" y="-119" on="1"/>
        <pt x="186" y="-119" on="0"/>
        <pt x="125" y="-106" on="0"/>
        <pt x="81" y="-89" on="0"/>
        <pt x="56" y="-73" on="0"/>
        <pt x="56" y="-70" on="1"/>
        <pt x="56" y="-64" on="0"/>
        <pt x="73" y="-46" on="0"/>
        <pt x="97" y="-31" on="0"/>
        <pt x="124" y="-20" on="0"/>
        <pt x="133" y="-20" on="1"/>
        <pt x="135" y="-20" on="0"/>
        <pt x="139" y="-21" on="0"/>
        <pt x="145" y="-26" on="1"/>
        <pt x="187" y="-49" on="0"/>
        <pt x="263" y="-63" on="0"/>
        <pt x="290" y="-63" on="1"/>
        <pt x="304" y="-63" on="0"/>
        <pt x="327" y="-60" on="0"/>
        <pt x="349" y="-46" on="0"/>
        <pt x="373" y="-18" on="0"/>
        <pt x="388" y="8" on="1"/>
        <pt x="402" y="31" on="0"/>
        <pt x="437" y="112" on="0"/>
      </contour>
    </TTGlyph>
    <TTGlyph name="H" xMin="22" yMin="-50" xMax="827" yMax="683">
      <contour>
        <pt x="618" y="335" on="1"/>
        <pt x="653" y="459" on="0"/>
        <pt x="708" y="607" on="1"/>
        <pt x="713" y="620" on="0"/>
        <pt x="719" y="635" on="0"/>
        <pt x="724" y="644" on="0"/>
        <pt x="730" y="651" on="0"/>
        <pt x="735" y="655" on="1"/>
        <pt x="748" y="666" on="0"/>
        <pt x="784" y="683" on="0"/>
        <pt x="795" y="683" on="1"/>
        <pt x="798" y="683" on="0"/>
        <pt x="805" y="681" on="0"/>
        <pt x="805" y="676" on="1"/>
        <pt x="805" y="674" on="0"/>
        <pt x="804" y="669" on="0"/>
        <pt x="800" y="660" on="1"/>
        <pt x="779" y="605" on="0"/>
        <pt x="733" y="472" on="0"/>
        <pt x="691" y="330" on="0"/>
        <pt x="657" y="187" on="0"/>
        <pt x="648" y="121" on="1"/>
        <pt x="647" y="118" on="0"/>
        <pt x="645" y="98" on="0"/>
        <pt x="642" y="76" on="0"/>
        <pt x="640" y="55" on="0"/>
        <pt x="640" y="51" on="1"/>
        <pt x="640" y="34" on="0"/>
        <pt x="661" y="6" on="0"/>
        <pt x="684" y="6" on="1"/>
        <pt x="697" y="6" on="0"/>
        <pt x="723" y="10" on="0"/>
        <pt x="736" y="12" on="1"/>
        <pt x="739" y="27" on="0"/>
        <pt x="761" y="51" on="0"/>
        <pt x="788" y="66" on="0"/>
        <pt x="812" y="74" on="0"/>
        <pt x="817" y="74" on="1"/>
        <pt x="827" y="74" on="0"/>
        <pt x="827" y="66" on="1"/>
        <pt x="827" y="53" on="0"/>
        <pt x="798" y="14" on="0"/>
        <pt x="744" y="-23" on="0"/>
        <pt x="665" y="-50" on="0"/>
        <pt x="615" y="-50" on="1"/>
        <pt x="581" y="-50" on="0"/>
        <pt x="553" y="-14" on="0"/>
        <pt x="553" y="7" on="1"/>
        <pt x="553" y="10" on="0"/>
        <pt x="555" y="36" on="0"/>
        <pt x="560" y="74" on="0"/>
        <pt x="567" y="121" on="0"/>
        <pt x="571" y="145" on="1"/>
        <pt x="573" y="154" on="0"/>
        <pt x="588" y="227" on="0"/>
        <pt x="605" y="290" on="1"/>
        <pt x="591" y="282" on="0"/>
        <pt x="567" y="279" on="0"/>
        <pt x="557" y="279" on="1"/>
        <pt x="325" y="279" on="1"/>
        <pt x="318" y="250" on="0"/>
        <pt x="292" y="171" on="0"/>
        <pt x="265" y="93" on="0"/>
        <pt x="240" y="24" on="0"/>
        <pt x="232" y="6" on="1"/>
        <pt x="231" y="5" on="0"/>
        <pt x="226" y="-4" on="0"/>
        <pt x="219" y="-10" on="1"/>
        <pt x="202" y="-25" on="0"/>
        <pt x="166" y="-41" on="0"/>
        <pt x="156" y="-41" on="1"/>
        <pt x="153" y="-41" on="0"/>
        <pt x="146" y="-39" on="0"/>
        <pt x="146" y="-34" on="1"/>
        <pt x="146" y="-33" on="0"/>
        <pt x="148" y="-26" on="0"/>
        <pt x="154" y="-11" on="1"/>
        <pt x="166" y="21" on="0"/>
        <pt x="193" y="96" on="0"/>
        <pt x="219" y="173" on="0"/>
        <pt x="242" y="248" on="0"/>
        <pt x="250" y="279" on="1"/>
        <pt x="177" y="279" on="1"/>
        <pt x="160" y="279" on="0"/>
        <pt x="153" y="281" on="0"/>
        <pt x="153" y="286" on="1"/>
        <pt x="153" y="292" on="0"/>
        <pt x="168" y="307" on="0"/>
        <pt x="190" y="322" on="0"/>
        <pt x="215" y="334" on="0"/>
        <pt x="224" y="335" on="1"/>
        <pt x="266" y="335" on="1"/>
        <pt x="282" y="401" on="0"/>
        <pt x="300" y="494" on="0"/>
        <pt x="308" y="553" on="0"/>
        <pt x="309" y="581" on="0"/>
        <pt x="309" y="581" on="1"/>
        <pt x="309" y="586" on="0"/>
        <pt x="306" y="602" on="0"/>
        <pt x="295" y="617" on="0"/>
        <pt x="276" y="627" on="0"/>
        <pt x="259" y="627" on="1"/>
        <pt x="227" y="627" on="0"/>
        <pt x="181" y="615" on="0"/>
        <pt x="147" y="594" on="0"/>
        <pt x="123" y="563" on="0"/>
        <pt x="112" y="543" on="1"/>
        <pt x="105" y="530" on="0"/>
        <pt x="93" y="516" on="0"/>
        <pt x="76" y="505" on="1"/>
        <pt x="62" y="497" on="0"/>
        <pt x="37" y="488" on="0"/>
        <pt x="31" y="488" on="1"/>
        <pt x="22" y="488" on="0"/>
        <pt x="22" y="495" on="1"/>
        <pt x="22" y="504" on="0"/>
        <pt x="62" y="565" on="0"/>
        <pt x="140" y="631" on="0"/>
        <pt x="254" y="683" on="0"/>
        <pt x="327" y="683" on="1"/>
        <pt x="349" y="683" on="0"/>
        <pt x="376" y="671" on="0"/>
        <pt x="391" y="654" on="0"/>
        <pt x="396" y="634" on="0"/>
        <pt x="396" y="625" on="1"/>
        <pt x="396" y="621" on="0"/>
        <pt x="389" y="547" on="0"/>
        <pt x="378" y="487" on="1"/>
        <pt x="363" y="409" on="0"/>
        <pt x="342" y="335" on="1"/>
      </contour>
    </TTGlyph>
    <TTGlyph name="I" xMin="-20" yMin="0" xMax="653" yMax="683">
      <contour>
        <pt x="454" y="627" on="1"/>
        <pt x="438" y="606" on="0"/>
        <pt x="410" y="544" on="0"/>
        <pt x="386" y="472" on="0"/>
        <pt x="366" y="397" on="0"/>
        <pt x="358" y="363" on="1"/>
        <pt x="343" y="305" on="0"/>
        <pt x="317" y="213" on="0"/>
        <pt x="286" y="139" on="0"/>
        <pt x="247" y="81" on="0"/>
        <pt x="219" y="56" on="1"/>
        <pt x="417" y="56" on="1"/>
        <pt x="436" y="56" on="0"/>
        <pt x="458" y="58" on="0"/>
        <pt x="469" y="64" on="0"/>
        <pt x="474" y="74" on="0"/>
        <pt x="477" y="81" on="1"/>
        <pt x="481" y="91" on="0"/>
        <pt x="500" y="109" on="0"/>
        <pt x="524" y="122" on="0"/>
        <pt x="546" y="130" on="0"/>
        <pt x="553" y="130" on="1"/>
        <pt x="556" y="130" on="0"/>
        <pt x="564" y="128" on="0"/>
        <pt x="564" y="123" on="1"/>
        <pt x="564" y="109" on="0"/>
        <pt x="532" y="67" on="0"/>
        <pt x="477" y="28" on="0"/>
        <pt x="400" y="0" on="0"/>
        <pt x="355" y="0" on="1"/>
        <pt x="3" y="0" on="1"/>
        <pt x="-14" y="0" on="0"/>
        <pt x="-20" y="2" on="0"/>
        <pt x="-20" y="7" on="1"/>
        <pt x="-20" y="14" on="0"/>
        <pt x="1" y="33" on="0"/>
        <pt x="15" y="41" on="1"/>
        <pt x="34" y="52" on="0"/>
        <pt x="55" y="56" on="0"/>
        <pt x="70" y="56" on="1"/>
        <pt x="137" y="56" on="1"/>
        <pt x="157" y="56" on="0"/>
        <pt x="167" y="59" on="0"/>
        <pt x="174" y="66" on="1"/>
        <pt x="192" y="87" on="0"/>
        <pt x="220" y="147" on="0"/>
        <pt x="242" y="213" on="0"/>
        <pt x="260" y="280" on="0"/>
        <pt x="267" y="309" on="1"/>
        <pt x="280" y="360" on="0"/>
        <pt x="306" y="455" on="0"/>
        <pt x="336" y="537" on="0"/>
        <pt x="373" y="604" on="0"/>
        <pt x="398" y="627" on="1"/>
        <pt x="295" y="627" on="1"/>
        <pt x="245" y="627" on="0"/>
        <pt x="195" y="621" on="1"/>
        <pt x="171" y="618" on="0"/>
        <pt x="144" y="611" on="0"/>
        <pt x="128" y="599" on="0"/>
        <pt x="121" y="581" on="0"/>
        <pt x="116" y="567" on="1"/>
        <pt x="113" y="558" on="0"/>
        <pt x="93" y="540" on="0"/>
        <pt x="69" y="526" on="0"/>
        <pt x="45" y="518" on="0"/>
        <pt x="39" y="518" on="1"/>
        <pt x="29" y="518" on="0"/>
        <pt x="29" y="526" on="1"/>
        <pt x="29" y="534" on="0"/>
        <pt x="45" y="569" on="0"/>
        <pt x="59" y="585" on="1"/>
        <pt x="89" y="618" on="0"/>
        <pt x="165" y="657" on="0"/>
        <pt x="245" y="677" on="0"/>
        <pt x="324" y="683" on="0"/>
        <pt x="357" y="683" on="1"/>
        <pt x="629" y="683" on="1"/>
        <pt x="646" y="683" on="0"/>
        <pt x="653" y="681" on="0"/>
        <pt x="653" y="676" on="1"/>
        <pt x="653" y="671" on="0"/>
        <pt x="634" y="651" on="0"/>
        <pt x="618" y="642" on="1"/>
        <pt x="599" y="631" on="0"/>
        <pt x="577" y="627" on="0"/>
        <pt x="563" y="627" on="1"/>
      </contour>
    </TTGlyph>
    <TTGlyph name="Ifractur" xMin="57" yMin="-11" xMax="712" yMax="705">
      <contour>
        <pt x="296" y="335" on="1"/>
        <pt x="296" y="325" on="0"/>
        <pt x="284" y="322" on="0"/>
        <pt x="277" y="322" on="1"/>
        <pt x="243" y="322" on="0"/>
        <pt x="166" y="346" on="0"/>
        <pt x="100" y="394" on="0"/>
        <pt x="57" y="466" on="0"/>
        <pt x="57" y="514" on="1"/>
        <pt x="57" y="555" on="0"/>
        <pt x="92" y="624" on="0"/>
        <pt x="153" y="676" on="0"/>
        <pt x="234" y="705" on="0"/>
        <pt x="280" y="705" on="1"/>
        <pt x="298" y="705" on="0"/>
        <pt x="364" y="696" on="0"/>
        <pt x="443" y="661" on="0"/>
        <pt x="527" y="592" on="0"/>
        <pt x="561" y="531" on="1"/>
        <pt x="574" y="509" on="0"/>
        <pt x="588" y="500" on="0"/>
        <pt x="598" y="500" on="1"/>
        <pt x="599" y="500" on="0"/>
        <pt x="623" y="501" on="0"/>
        <pt x="653" y="510" on="0"/>
        <pt x="678" y="528" on="0"/>
        <pt x="681" y="545" on="1"/>
        <pt x="682" y="552" on="0"/>
        <pt x="686" y="560" on="0"/>
        <pt x="696" y="560" on="1"/>
        <pt x="703" y="560" on="0"/>
        <pt x="712" y="555" on="0"/>
        <pt x="712" y="546" on="1"/>
        <pt x="712" y="517" on="0"/>
        <pt x="652" y="475" on="0"/>
        <pt x="595" y="475" on="1"/>
        <pt x="563" y="475" on="0"/>
        <pt x="511" y="495" on="0"/>
        <pt x="465" y="530" on="0"/>
        <pt x="423" y="578" on="0"/>
        <pt x="400" y="605" on="1"/>
        <pt x="380" y="629" on="0"/>
        <pt x="346" y="658" on="0"/>
        <pt x="316" y="675" on="0"/>
        <pt x="290" y="680" on="0"/>
        <pt x="277" y="680" on="1"/>
        <pt x="241" y="680" on="0"/>
        <pt x="173" y="656" on="0"/>
        <pt x="120" y="612" on="0"/>
        <pt x="88" y="551" on="0"/>
        <pt x="88" y="514" on="1"/>
        <pt x="88" y="484" on="0"/>
        <pt x="113" y="426" on="0"/>
        <pt x="162" y="379" on="0"/>
        <pt x="234" y="349" on="0"/>
        <pt x="281" y="347" on="1"/>
        <pt x="285" y="347" on="0"/>
        <pt x="296" y="343" on="0"/>
      </contour>
      <contour>
        <pt x="126" y="185" on="1"/>
        <pt x="150" y="185" on="0"/>
        <pt x="191" y="175" on="0"/>
        <pt x="232" y="154" on="0"/>
        <pt x="276" y="120" on="0"/>
        <pt x="303" y="96" on="1"/>
        <pt x="312" y="88" on="0"/>
        <pt x="344" y="61" on="0"/>
        <pt x="380" y="34" on="0"/>
        <pt x="417" y="15" on="0"/>
        <pt x="431" y="15" on="1"/>
        <pt x="439" y="15" on="0"/>
        <pt x="480" y="28" on="0"/>
        <pt x="522" y="58" on="0"/>
        <pt x="555" y="105" on="0"/>
        <pt x="555" y="138" on="1"/>
        <pt x="555" y="162" on="0"/>
        <pt x="530" y="198" on="0"/>
        <pt x="511" y="219" on="1"/>
        <pt x="490" y="242" on="0"/>
        <pt x="460" y="286" on="0"/>
        <pt x="460" y="315" on="1"/>
        <pt x="460" y="339" on="0"/>
        <pt x="481" y="381" on="0"/>
        <pt x="517" y="413" on="0"/>
        <pt x="566" y="431" on="0"/>
        <pt x="593" y="431" on="1"/>
        <pt x="620" y="431" on="0"/>
        <pt x="664" y="414" on="0"/>
        <pt x="695" y="388" on="0"/>
        <pt x="712" y="355" on="0"/>
        <pt x="712" y="339" on="1"/>
        <pt x="712" y="328" on="0"/>
        <pt x="702" y="324" on="0"/>
        <pt x="696" y="324" on="1"/>
        <pt x="686" y="324" on="0"/>
        <pt x="682" y="331" on="0"/>
        <pt x="681" y="339" on="1"/>
        <pt x="678" y="360" on="0"/>
        <pt x="656" y="387" on="0"/>
        <pt x="629" y="401" on="0"/>
        <pt x="603" y="406" on="0"/>
        <pt x="595" y="406" on="1"/>
        <pt x="577" y="406" on="0"/>
        <pt x="558" y="380" on="0"/>
        <pt x="549" y="349" on="0"/>
        <pt x="547" y="320" on="0"/>
        <pt x="547" y="317" on="1"/>
        <pt x="547" y="295" on="0"/>
        <pt x="567" y="261" on="0"/>
        <pt x="590" y="235" on="1"/>
        <pt x="611" y="212" on="0"/>
        <pt x="642" y="169" on="0"/>
        <pt x="642" y="138" on="1"/>
        <pt x="642" y="107" on="0"/>
        <pt x="610" y="46" on="0"/>
        <pt x="577" y="24" on="1"/>
        <pt x="538" y="-2" on="0"/>
        <pt x="469" y="-11" on="0"/>
        <pt x="429" y="-11" on="1"/>
        <pt x="398" y="-11" on="0"/>
        <pt x="353" y="-7" on="0"/>
        <pt x="309" y="11" on="0"/>
        <pt x="257" y="49" on="0"/>
        <pt x="217" y="84" on="1"/>
        <pt x="194" y="104" on="0"/>
        <pt x="158" y="131" on="0"/>
        <pt x="125" y="149" on="0"/>
        <pt x="92" y="159" on="0"/>
        <pt x="73" y="160" on="1"/>
        <pt x="68" y="161" on="0"/>
        <pt x="57" y="164" on="0"/>
        <pt x="57" y="172" on="1"/>
        <pt x="57" y="182" on="0"/>
        <pt x="70" y="185" on="0"/>
        <pt x="85" y="185" on="1"/>
      </contour>
    </TTGlyph>
    <TTGlyph name="J" xMin="48" yMin="-119" xMax="859" yMax="683">
      <contour>
        <pt x="835" y="683" on="1"/>
        <pt x="852" y="683" on="0"/>
        <pt x="859" y="681" on="0"/>
        <pt x="859" y="676" on="1"/>
        <pt x="859" y="672" on="0"/>
        <pt x="847" y="657" on="0"/>
        <pt x="825" y="641" on="0"/>
        <pt x="795" y="628" on="0"/>
        <pt x="777" y="627" on="1"/>
        <pt x="761" y="626" on="0"/>
        <pt x="745" y="618" on="0"/>
        <pt x="734" y="605" on="1"/>
        <pt x="706" y="573" on="0"/>
        <pt x="659" y="480" on="0"/>
        <pt x="620" y="372" on="0"/>
        <pt x="589" y="259" on="0"/>
        <pt x="576" y="206" on="1"/>
        <pt x="568" y="175" on="0"/>
        <pt x="557" y="133" on="0"/>
        <pt x="544" y="100" on="0"/>
        <pt x="527" y="69" on="0"/>
        <pt x="514" y="49" on="1"/>
        <pt x="491" y="15" on="0"/>
        <pt x="424" y="-46" on="0"/>
        <pt x="346" y="-92" on="0"/>
        <pt x="262" y="-119" on="0"/>
        <pt x="222" y="-119" on="1"/>
        <pt x="183" y="-119" on="0"/>
        <pt x="119" y="-97" on="0"/>
        <pt x="73" y="-57" on="0"/>
        <pt x="48" y="-1" on="0"/>
        <pt x="48" y="33" on="1"/>
        <pt x="48" y="50" on="0"/>
        <pt x="52" y="72" on="0"/>
        <pt x="58" y="86" on="0"/>
        <pt x="67" y="95" on="0"/>
        <pt x="72" y="99" on="1"/>
        <pt x="90" y="113" on="0"/>
        <pt x="122" y="125" on="0"/>
        <pt x="129" y="125" on="1"/>
        <pt x="140" y="125" on="0"/>
        <pt x="140" y="117" on="1"/>
        <pt x="140" y="115" on="0"/>
        <pt x="135" y="91" on="0"/>
        <pt x="135" y="77" on="1"/>
        <pt x="135" y="44" on="0"/>
        <pt x="160" y="-8" on="0"/>
        <pt x="203" y="-44" on="0"/>
        <pt x="259" y="-63" on="0"/>
        <pt x="290" y="-63" on="1"/>
        <pt x="334" y="-63" on="0"/>
        <pt x="387" y="-31" on="0"/>
        <pt x="406" y="-12" on="1"/>
        <pt x="445" y="28" on="0"/>
        <pt x="476" y="113" on="0"/>
        <pt x="486" y="154" on="1"/>
        <pt x="509" y="244" on="0"/>
        <pt x="553" y="391" on="0"/>
        <pt x="603" y="508" on="0"/>
        <pt x="664" y="596" on="0"/>
        <pt x="704" y="627" on="1"/>
        <pt x="566" y="627" on="1"/>
        <pt x="506" y="627" on="0"/>
        <pt x="430" y="591" on="0"/>
        <pt x="384" y="542" on="0"/>
        <pt x="364" y="492" on="0"/>
        <pt x="359" y="478" on="1"/>
        <pt x="357" y="472" on="0"/>
        <pt x="339" y="456" on="0"/>
        <pt x="317" y="442" on="0"/>
        <pt x="293" y="432" on="0"/>
        <pt x="284" y="432" on="1"/>
        <pt x="274" y="432" on="0"/>
        <pt x="274" y="440" on="1"/>
        <pt x="274" y="442" on="0"/>
        <pt x="282" y="472" on="0"/>
        <pt x="309" y="519" on="0"/>
        <pt x="358" y="577" on="0"/>
        <pt x="399" y="605" on="1"/>
        <pt x="418" y="618" on="0"/>
        <pt x="467" y="645" on="0"/>
        <pt x="526" y="668" on="0"/>
        <pt x="592" y="683" on="0"/>
        <pt x="628" y="683" on="1"/>
      </contour>
    </TTGlyph>
    <TTGlyph name="K" xMin="31" yMin="-22" xMax="749" yMax="705">
      <contour>
        <pt x="197" y="637" on="1"/>
        <pt x="182" y="629" on="0"/>
        <pt x="144" y="612" on="0"/>
        <pt x="136" y="612" on="1"/>
        <pt x="126" y="612" on="0"/>
        <pt x="126" y="619" on="1"/>
        <pt x="126" y="632" on="0"/>
        <pt x="175" y="660" on="0"/>
        <pt x="213" y="680" on="1"/>
        <pt x="228" y="688" on="0"/>
        <pt x="266" y="705" on="0"/>
        <pt x="274" y="705" on="1"/>
        <pt x="282" y="705" on="0"/>
        <pt x="285" y="698" on="0"/>
        <pt x="285" y="690" on="1"/>
        <pt x="285" y="688" on="0"/>
        <pt x="283" y="647" on="0"/>
        <pt x="276" y="581" on="0"/>
        <pt x="263" y="496" on="0"/>
        <pt x="252" y="451" on="1"/>
        <pt x="232" y="368" on="0"/>
        <pt x="185" y="214" on="0"/>
        <pt x="144" y="94" on="0"/>
        <pt x="115" y="19" on="0"/>
        <pt x="112" y="16" on="1"/>
        <pt x="95" y="-2" on="0"/>
        <pt x="52" y="-22" on="0"/>
        <pt x="42" y="-22" on="1"/>
        <pt x="40" y="-22" on="0"/>
        <pt x="31" y="-20" on="0"/>
        <pt x="31" y="-15" on="1"/>
        <pt x="31" y="-14" on="0"/>
        <pt x="34" y="-5" on="0"/>
        <pt x="42" y="15" on="1"/>
        <pt x="65" y="74" on="0"/>
        <pt x="116" y="224" on="0"/>
        <pt x="161" y="389" on="0"/>
        <pt x="194" y="559" on="0"/>
      </contour>
      <contour>
        <pt x="747" y="127" on="1"/>
        <pt x="747" y="126" on="0"/>
        <pt x="741" y="105" on="0"/>
        <pt x="723" y="75" on="0"/>
        <pt x="689" y="39" on="0"/>
        <pt x="660" y="21" on="1"/>
        <pt x="635" y="6" on="0"/>
        <pt x="587" y="-12" on="0"/>
        <pt x="547" y="-20" on="0"/>
        <pt x="518" y="-22" on="0"/>
        <pt x="512" y="-22" on="1"/>
        <pt x="483" y="-22" on="0"/>
        <pt x="420" y="28" on="0"/>
        <pt x="361" y="106" on="0"/>
        <pt x="308" y="203" on="0"/>
        <pt x="268" y="297" on="0"/>
        <pt x="245" y="378" on="0"/>
        <pt x="245" y="401" on="1"/>
        <pt x="245" y="415" on="0"/>
        <pt x="255" y="439" on="0"/>
        <pt x="269" y="460" on="0"/>
        <pt x="284" y="477" on="0"/>
        <pt x="289" y="482" on="1"/>
        <pt x="327" y="520" on="0"/>
        <pt x="438" y="599" on="0"/>
        <pt x="554" y="664" on="0"/>
        <pt x="660" y="705" on="0"/>
        <pt x="692" y="705" on="1"/>
        <pt x="715" y="705" on="0"/>
        <pt x="749" y="674" on="0"/>
        <pt x="749" y="646" on="1"/>
        <pt x="749" y="627" on="0"/>
        <pt x="732" y="605" on="0"/>
        <pt x="712" y="595" on="0"/>
        <pt x="694" y="592" on="0"/>
        <pt x="694" y="592" on="1"/>
        <pt x="691" y="592" on="0"/>
        <pt x="684" y="597" on="0"/>
        <pt x="684" y="602" on="1"/>
        <pt x="684" y="605" on="0"/>
        <pt x="686" y="614" on="0"/>
        <pt x="686" y="618" on="1"/>
        <pt x="686" y="630" on="0"/>
        <pt x="671" y="660" on="0"/>
        <pt x="647" y="660" on="1"/>
        <pt x="635" y="660" on="0"/>
        <pt x="591" y="645" on="0"/>
        <pt x="537" y="619" on="0"/>
        <pt x="476" y="584" on="0"/>
        <pt x="417" y="546" on="0"/>
        <pt x="364" y="507" on="0"/>
        <pt x="345" y="489" on="1"/>
        <pt x="320" y="464" on="0"/>
        <pt x="308" y="439" on="0"/>
        <pt x="308" y="428" on="1"/>
        <pt x="308" y="407" on="0"/>
        <pt x="331" y="330" on="0"/>
        <pt x="369" y="240" on="0"/>
        <pt x="419" y="147" on="0"/>
        <pt x="475" y="71" on="0"/>
        <pt x="532" y="23" on="0"/>
        <pt x="558" y="23" on="1"/>
        <pt x="560" y="23" on="0"/>
        <pt x="593" y="25" on="0"/>
        <pt x="633" y="39" on="0"/>
        <pt x="673" y="69" on="0"/>
        <pt x="683" y="96" on="1"/>
        <pt x="686" y="107" on="0"/>
        <pt x="692" y="117" on="0"/>
        <pt x="703" y="124" on="1"/>
        <pt x="717" y="134" on="0"/>
        <pt x="734" y="137" on="0"/>
        <pt x="735" y="137" on="1"/>
        <pt x="739" y="137" on="0"/>
        <pt x="747" y="133" on="0"/>
      </contour>
    </TTGlyph>
    <TTGlyph name="L" xMin="32" yMin="-22" xMax="673" yMax="705">
      <contour>
        <pt x="182" y="92" on="1"/>
        <pt x="195" y="96" on="0"/>
        <pt x="219" y="97" on="0"/>
        <pt x="224" y="97" on="1"/>
        <pt x="263" y="97" on="0"/>
        <pt x="339" y="80" on="0"/>
        <pt x="374" y="70" on="1"/>
        <pt x="417" y="58" on="0"/>
        <pt x="495" y="40" on="0"/>
        <pt x="532" y="40" on="1"/>
        <pt x="544" y="40" on="0"/>
        <pt x="551" y="43" on="0"/>
        <pt x="556" y="49" on="1"/>
        <pt x="565" y="61" on="0"/>
        <pt x="572" y="80" on="0"/>
        <pt x="574" y="85" on="1"/>
        <pt x="579" y="96" on="0"/>
        <pt x="600" y="117" on="0"/>
        <pt x="625" y="134" on="0"/>
        <pt x="653" y="145" on="0"/>
        <pt x="665" y="145" on="1"/>
        <pt x="673" y="145" on="0"/>
        <pt x="673" y="140" on="1"/>
        <pt x="673" y="138" on="0"/>
        <pt x="668" y="119" on="0"/>
        <pt x="651" y="90" on="0"/>
        <pt x="621" y="53" on="0"/>
        <pt x="596" y="34" on="1"/>
        <pt x="589" y="29" on="0"/>
        <pt x="560" y="10" on="0"/>
        <pt x="521" y="-8" on="0"/>
        <pt x="474" y="-22" on="0"/>
        <pt x="449" y="-22" on="1"/>
        <pt x="409" y="-22" on="0"/>
        <pt x="333" y="-5" on="0"/>
        <pt x="287" y="8" on="1"/>
        <pt x="256" y="16" on="0"/>
        <pt x="214" y="26" on="0"/>
        <pt x="181" y="32" on="0"/>
        <pt x="153" y="35" on="0"/>
        <pt x="135" y="35" on="1"/>
        <pt x="115" y="14" on="0"/>
        <pt x="81" y="-10" on="0"/>
        <pt x="56" y="-20" on="0"/>
        <pt x="41" y="-22" on="0"/>
        <pt x="41" y="-22" on="1"/>
        <pt x="35" y="-22" on="0"/>
        <pt x="32" y="-17" on="0"/>
        <pt x="32" y="-16" on="1"/>
        <pt x="32" y="-14" on="0"/>
        <pt x="41" y="3" on="0"/>
        <pt x="66" y="28" on="1"/>
        <pt x="84" y="46" on="0"/>
        <pt x="115" y="93" on="0"/>
        <pt x="140" y="147" on="0"/>
        <pt x="161" y="205" on="0"/>
        <pt x="168" y="234" on="1"/>
        <pt x="180" y="280" on="0"/>
        <pt x="206" y="374" on="0"/>
        <pt x="239" y="463" on="0"/>
        <pt x="281" y="545" on="0"/>
        <pt x="309" y="579" on="1"/>
        <pt x="330" y="605" on="0"/>
        <pt x="385" y="651" on="0"/>
        <pt x="447" y="685" on="0"/>
        <pt x="513" y="705" on="0"/>
        <pt x="544" y="705" on="1"/>
        <pt x="570" y="705" on="0"/>
        <pt x="604" y="686" on="0"/>
        <pt x="624" y="658" on="0"/>
        <pt x="632" y="624" on="0"/>
        <pt x="632" y="609" on="1"/>
        <pt x="632" y="593" on="0"/>
        <pt x="628" y="572" on="0"/>
        <pt x="621" y="558" on="0"/>
        <pt x="609" y="549" on="0"/>
        <pt x="601" y="543" on="1"/>
        <pt x="585" y="532" on="0"/>
        <pt x="549" y="516" on="0"/>
        <pt x="538" y="516" on="1"/>
        <pt x="536" y="516" on="0"/>
        <pt x="531" y="518" on="0"/>
        <pt x="531" y="523" on="1"/>
        <pt x="531" y="526" on="0"/>
        <pt x="534" y="544" on="0"/>
        <pt x="534" y="558" on="1"/>
        <pt x="534" y="572" on="0"/>
        <pt x="528" y="602" on="0"/>
        <pt x="511" y="627" on="0"/>
        <pt x="483" y="643" on="0"/>
        <pt x="461" y="643" on="1"/>
        <pt x="435" y="643" on="0"/>
        <pt x="413" y="629" on="0"/>
        <pt x="402" y="616" on="1"/>
        <pt x="357" y="563" on="0"/>
        <pt x="295" y="399" on="0"/>
        <pt x="267" y="291" on="1"/>
        <pt x="258" y="254" on="0"/>
        <pt x="223" y="152" on="0"/>
      </contour>
    </TTGlyph>
    <TTGlyph name="M" xMin="28" yMin="-51" xMax="1146" yMax="705">
      <contour>
        <pt x="392" y="561" on="1"/>
        <pt x="381" y="506" on="0"/>
        <pt x="352" y="397" on="0"/>
        <pt x="319" y="296" on="0"/>
        <pt x="286" y="206" on="0"/>
        <pt x="271" y="169" on="1"/>
        <pt x="262" y="147" on="0"/>
        <pt x="230" y="73" on="0"/>
        <pt x="189" y="1" on="0"/>
        <pt x="142" y="-51" on="0"/>
        <pt x="117" y="-51" on="1"/>
        <pt x="107" y="-51" on="0"/>
        <pt x="77" y="-44" on="0"/>
        <pt x="49" y="-31" on="0"/>
        <pt x="28" y="-12" on="0"/>
        <pt x="28" y="0" on="1"/>
        <pt x="28" y="3" on="0"/>
        <pt x="31" y="23" on="0"/>
        <pt x="39" y="47" on="0"/>
        <pt x="54" y="71" on="0"/>
        <pt x="66" y="78" on="1"/>
        <pt x="76" y="68" on="0"/>
        <pt x="101" y="54" on="0"/>
        <pt x="125" y="46" on="0"/>
        <pt x="144" y="43" on="0"/>
        <pt x="149" y="43" on="1"/>
        <pt x="163" y="43" on="0"/>
        <pt x="188" y="69" on="0"/>
        <pt x="211" y="109" on="0"/>
        <pt x="231" y="156" on="0"/>
        <pt x="240" y="178" on="1"/>
        <pt x="276" y="266" on="0"/>
        <pt x="323" y="411" on="0"/>
        <pt x="352" y="530" on="0"/>
        <pt x="368" y="622" on="0"/>
        <pt x="373" y="658" on="1"/>
        <pt x="375" y="668" on="0"/>
        <pt x="391" y="685" on="0"/>
        <pt x="412" y="698" on="0"/>
        <pt x="433" y="705" on="0"/>
        <pt x="439" y="705" on="1"/>
        <pt x="447" y="705" on="0"/>
        <pt x="451" y="698" on="0"/>
        <pt x="452" y="692" on="1"/>
        <pt x="466" y="616" on="0"/>
        <pt x="497" y="472" on="0"/>
        <pt x="518" y="391" on="1"/>
        <pt x="532" y="337" on="0"/>
        <pt x="553" y="263" on="0"/>
        <pt x="573" y="207" on="0"/>
        <pt x="593" y="160" on="0"/>
        <pt x="606" y="134" on="1"/>
        <pt x="630" y="154" on="0"/>
        <pt x="698" y="224" on="0"/>
        <pt x="770" y="302" on="0"/>
        <pt x="838" y="377" on="0"/>
        <pt x="862" y="404" on="1"/>
        <pt x="1110" y="693" on="1"/>
        <pt x="1114" y="697" on="0"/>
        <pt x="1121" y="704" on="0"/>
        <pt x="1125" y="704" on="1"/>
        <pt x="1131" y="704" on="0"/>
        <pt x="1133" y="691" on="0"/>
        <pt x="1133" y="690" on="1"/>
        <pt x="1133" y="685" on="0"/>
        <pt x="1131" y="675" on="0"/>
        <pt x="1126" y="658" on="1"/>
        <pt x="1123" y="644" on="0"/>
        <pt x="1110" y="575" on="0"/>
        <pt x="1096" y="482" on="0"/>
        <pt x="1080" y="374" on="0"/>
        <pt x="1068" y="268" on="0"/>
        <pt x="1060" y="174" on="0"/>
        <pt x="1060" y="141" on="1"/>
        <pt x="1060" y="140" on="0"/>
        <pt x="1061" y="97" on="0"/>
        <pt x="1063" y="71" on="1"/>
        <pt x="1065" y="53" on="0"/>
        <pt x="1074" y="29" on="0"/>
        <pt x="1094" y="27" on="1"/>
        <pt x="1102" y="32" on="0"/>
        <pt x="1128" y="43" on="0"/>
        <pt x="1137" y="43" on="1"/>
        <pt x="1144" y="43" on="0"/>
        <pt x="1146" y="37" on="0"/>
        <pt x="1146" y="35" on="1"/>
        <pt x="1146" y="28" on="0"/>
        <pt x="1121" y="6" on="0"/>
        <pt x="1084" y="-14" on="0"/>
        <pt x="1042" y="-29" on="0"/>
        <pt x="1026" y="-29" on="1"/>
        <pt x="1010" y="-29" on="0"/>
        <pt x="991" y="-19" on="0"/>
        <pt x="981" y="-5" on="0"/>
        <pt x="978" y="9" on="0"/>
        <pt x="978" y="12" on="1"/>
        <pt x="974" y="41" on="0"/>
        <pt x="973" y="89" on="0"/>
        <pt x="973" y="97" on="1"/>
        <pt x="973" y="103" on="0"/>
        <pt x="973" y="124" on="0"/>
        <pt x="976" y="161" on="0"/>
        <pt x="981" y="215" on="0"/>
        <pt x="985" y="254" on="1"/>
        <pt x="990" y="295" on="0"/>
        <pt x="997" y="356" on="0"/>
        <pt x="1005" y="414" on="0"/>
        <pt x="1014" y="476" on="0"/>
        <pt x="1021" y="517" on="1"/>
        <pt x="917" y="396" on="0"/>
        <pt x="775" y="236" on="0"/>
        <pt x="678" y="133" on="0"/>
        <pt x="618" y="73" on="0"/>
        <pt x="595" y="52" on="1"/>
        <pt x="581" y="39" on="0"/>
        <pt x="575" y="34" on="0"/>
        <pt x="571" y="34" on="1"/>
        <pt x="566" y="34" on="0"/>
        <pt x="559" y="41" on="0"/>
        <pt x="553" y="51" on="1"/>
        <pt x="529" y="92" on="0"/>
        <pt x="493" y="172" on="0"/>
        <pt x="458" y="284" on="0"/>
        <pt x="419" y="443" on="0"/>
      </contour>
    </TTGlyph>
    <TTGlyph name="N" xMin="-29" yMin="-51" xMax="1000" yMax="777">
      <contour>
        <pt x="311" y="575" on="1"/>
        <pt x="302" y="525" on="0"/>
        <pt x="282" y="430" on="0"/>
        <pt x="257" y="331" on="0"/>
        <pt x="226" y="224" on="0"/>
        <pt x="205" y="164" on="1"/>
        <pt x="197" y="140" on="0"/>
        <pt x="169" y="67" on="0"/>
        <pt x="133" y="-2" on="0"/>
        <pt x="87" y="-51" on="0"/>
        <pt x="61" y="-51" on="1"/>
        <pt x="52" y="-51" on="0"/>
        <pt x="21" y="-44" on="0"/>
        <pt x="-8" y="-31" on="0"/>
        <pt x="-29" y="-12" on="0"/>
        <pt x="-29" y="0" on="1"/>
        <pt x="-29" y="3" on="0"/>
        <pt x="-26" y="23" on="0"/>
        <pt x="-18" y="47" on="0"/>
        <pt x="-3" y="71" on="0"/>
        <pt x="9" y="78" on="1"/>
        <pt x="20" y="67" on="0"/>
        <pt x="47" y="53" on="0"/>
        <pt x="71" y="46" on="0"/>
        <pt x="90" y="43" on="0"/>
        <pt x="94" y="43" on="1"/>
        <pt x="111" y="43" on="0"/>
        <pt x="134" y="71" on="0"/>
        <pt x="143" y="89" on="1"/>
        <pt x="150" y="103" on="0"/>
        <pt x="187" y="202" on="0"/>
        <pt x="231" y="352" on="0"/>
        <pt x="273" y="544" on="0"/>
        <pt x="284" y="650" on="1"/>
        <pt x="285" y="660" on="0"/>
        <pt x="290" y="675" on="0"/>
        <pt x="303" y="685" on="1"/>
        <pt x="313" y="692" on="0"/>
        <pt x="339" y="705" on="0"/>
        <pt x="350" y="705" on="1"/>
        <pt x="356" y="705" on="0"/>
        <pt x="360" y="702" on="1"/>
        <pt x="361" y="701" on="0"/>
        <pt x="363" y="692" on="0"/>
        <pt x="371" y="669" on="1"/>
        <pt x="394" y="593" on="0"/>
        <pt x="453" y="424" on="0"/>
        <pt x="492" y="324" on="1"/>
        <pt x="510" y="278" on="0"/>
        <pt x="540" y="206" on="0"/>
        <pt x="570" y="144" on="0"/>
        <pt x="602" y="87" on="0"/>
        <pt x="623" y="56" on="1"/>
        <pt x="649" y="169" on="0"/>
        <pt x="697" y="358" on="0"/>
        <pt x="737" y="505" on="0"/>
        <pt x="768" y="608" on="0"/>
        <pt x="777" y="634" on="1"/>
        <pt x="788" y="664" on="0"/>
        <pt x="813" y="716" on="0"/>
        <pt x="859" y="755" on="0"/>
        <pt x="935" y="777" on="0"/>
        <pt x="996" y="777" on="1"/>
        <pt x="999" y="774" on="0"/>
        <pt x="1000" y="762" on="0"/>
        <pt x="1000" y="760" on="1"/>
        <pt x="1000" y="743" on="0"/>
        <pt x="987" y="711" on="0"/>
        <pt x="984" y="706" on="1"/>
        <pt x="974" y="689" on="0"/>
        <pt x="964" y="683" on="0"/>
        <pt x="953" y="683" on="1"/>
        <pt x="943" y="683" on="0"/>
        <pt x="909" y="681" on="0"/>
        <pt x="870" y="674" on="0"/>
        <pt x="831" y="658" on="0"/>
        <pt x="814" y="644" on="1"/>
        <pt x="807" y="625" on="0"/>
        <pt x="784" y="551" on="0"/>
        <pt x="756" y="451" on="0"/>
        <pt x="724" y="332" on="0"/>
        <pt x="692" y="205" on="0"/>
        <pt x="662" y="77" on="0"/>
        <pt x="649" y="18" on="1"/>
        <pt x="639" y="0" on="0"/>
        <pt x="596" y="-25" on="0"/>
        <pt x="583" y="-25" on="1"/>
        <pt x="575" y="-25" on="0"/>
        <pt x="571" y="-22" on="1"/>
        <pt x="570" y="-21" on="0"/>
        <pt x="554" y="2" on="0"/>
        <pt x="530" y="39" on="0"/>
        <pt x="500" y="90" on="0"/>
        <pt x="485" y="121" on="1"/>
        <pt x="471" y="149" on="0"/>
        <pt x="437" y="228" on="0"/>
        <pt x="402" y="316" on="0"/>
        <pt x="368" y="408" on="0"/>
        <pt x="339" y="490" on="0"/>
        <pt x="317" y="556" on="0"/>
      </contour>
    </TTGlyph>
    <TTGlyph name="O" xMin="58" yMin="-22" xMax="795" yMax="705">
      <contour>
        <pt x="795" y="478" on="1"/>
        <pt x="795" y="403" on="0"/>
        <pt x="750" y="270" on="0"/>
        <pt x="674" y="159" on="0"/>
        <pt x="575" y="71" on="0"/>
        <pt x="466" y="10" on="0"/>
        <pt x="354" y="-22" on="0"/>
        <pt x="304" y="-22" on="1"/>
        <pt x="244" y="-22" on="0"/>
        <pt x="152" y="21" on="0"/>
        <pt x="90" y="95" on="0"/>
        <pt x="58" y="194" on="0"/>
        <pt x="58" y="249" on="1"/>
        <pt x="58" y="324" on="0"/>
        <pt x="103" y="450" on="0"/>
        <pt x="172" y="551" on="0"/>
        <pt x="254" y="628" on="0"/>
        <pt x="329" y="679" on="0"/>
        <pt x="386" y="705" on="0"/>
        <pt x="394" y="705" on="1"/>
        <pt x="404" y="705" on="0"/>
        <pt x="404" y="698" on="1"/>
        <pt x="404" y="688" on="0"/>
        <pt x="373" y="665" on="0"/>
        <pt x="357" y="657" on="1"/>
        <pt x="317" y="636" on="0"/>
        <pt x="241" y="565" on="0"/>
        <pt x="181" y="471" on="0"/>
        <pt x="145" y="357" on="0"/>
        <pt x="145" y="293" on="1"/>
        <pt x="145" y="238" on="0"/>
        <pt x="176" y="143" on="0"/>
        <pt x="235" y="73" on="0"/>
        <pt x="319" y="34" on="0"/>
        <pt x="372" y="34" on="1"/>
        <pt x="444" y="34" on="0"/>
        <pt x="567" y="102" on="0"/>
        <pt x="657" y="215" on="0"/>
        <pt x="708" y="359" on="0"/>
        <pt x="708" y="434" on="1"/>
        <pt x="708" y="534" on="0"/>
        <pt x="620" y="649" on="0"/>
        <pt x="544" y="649" on="1"/>
        <pt x="514" y="649" on="0"/>
        <pt x="477" y="629" on="0"/>
        <pt x="458" y="607" on="1"/>
        <pt x="447" y="595" on="0"/>
        <pt x="408" y="545" on="0"/>
        <pt x="385" y="494" on="1"/>
        <pt x="382" y="488" on="0"/>
        <pt x="377" y="477" on="0"/>
        <pt x="369" y="467" on="0"/>
        <pt x="355" y="457" on="0"/>
        <pt x="344" y="450" on="1"/>
        <pt x="340" y="448" on="0"/>
        <pt x="317" y="437" on="0"/>
        <pt x="306" y="437" on="1"/>
        <pt x="303" y="437" on="0"/>
        <pt x="295" y="438" on="0"/>
        <pt x="295" y="443" on="1"/>
        <pt x="295" y="446" on="0"/>
        <pt x="310" y="482" on="0"/>
        <pt x="340" y="533" on="0"/>
        <pt x="384" y="592" on="0"/>
        <pt x="412" y="617" on="1"/>
        <pt x="428" y="631" on="0"/>
        <pt x="471" y="662" on="0"/>
        <pt x="523" y="688" on="0"/>
        <pt x="581" y="705" on="0"/>
        <pt x="612" y="705" on="1"/>
        <pt x="657" y="705" on="0"/>
        <pt x="725" y="672" on="0"/>
        <pt x="772" y="613" on="0"/>
        <pt x="795" y="529" on="0"/>
      </contour>
    </TTGlyph>
    <TTGlyph name="P" xMin="21" yMin="-50" xMax="754" yMax="683">
      <contour>
        <pt x="496" y="683" on="1"/>
        <pt x="538" y="683" on="0"/>
        <pt x="630" y="666" on="0"/>
        <pt x="705" y="629" on="0"/>
        <pt x="754" y="568" on="0"/>
        <pt x="754" y="524" on="1"/>
        <pt x="754" y="483" on="0"/>
        <pt x="717" y="403" on="0"/>
        <pt x="653" y="333" on="0"/>
        <pt x="568" y="273" on="0"/>
        <pt x="473" y="229" on="0"/>
        <pt x="373" y="205" on="0"/>
        <pt x="326" y="205" on="1"/>
        <pt x="317" y="205" on="0"/>
        <pt x="307" y="207" on="0"/>
        <pt x="307" y="212" on="1"/>
        <pt x="307" y="219" on="0"/>
        <pt x="330" y="239" on="0"/>
        <pt x="341" y="246" on="1"/>
        <pt x="360" y="257" on="0"/>
        <pt x="379" y="260" on="0"/>
        <pt x="396" y="261" on="1"/>
        <pt x="470" y="263" on="0"/>
        <pt x="574" y="311" on="0"/>
        <pt x="638" y="378" on="0"/>
        <pt x="667" y="452" on="0"/>
        <pt x="667" y="480" on="1"/>
        <pt x="667" y="521" on="0"/>
        <pt x="622" y="577" on="0"/>
        <pt x="550" y="611" on="0"/>
        <pt x="463" y="627" on="0"/>
        <pt x="421" y="627" on="1"/>
        <pt x="366" y="627" on="1"/>
        <pt x="361" y="582" on="0"/>
        <pt x="336" y="413" on="0"/>
        <pt x="302" y="289" on="1"/>
        <pt x="286" y="228" on="0"/>
        <pt x="250" y="121" on="0"/>
        <pt x="220" y="41" on="0"/>
        <pt x="200" y="-5" on="0"/>
        <pt x="199" y="-6" on="1"/>
        <pt x="194" y="-15" on="0"/>
        <pt x="174" y="-31" on="0"/>
        <pt x="153" y="-43" on="0"/>
        <pt x="132" y="-50" on="0"/>
        <pt x="126" y="-50" on="1"/>
        <pt x="124" y="-50" on="0"/>
        <pt x="115" y="-48" on="0"/>
        <pt x="115" y="-43" on="1"/>
        <pt x="115" y="-42" on="0"/>
        <pt x="117" y="-34" on="0"/>
        <pt x="125" y="-16" on="1"/>
        <pt x="164" y="79" on="0"/>
        <pt x="218" y="251" on="0"/>
        <pt x="255" y="410" on="0"/>
        <pt x="277" y="557" on="0"/>
        <pt x="283" y="627" on="1"/>
        <pt x="232" y="624" on="0"/>
        <pt x="169" y="609" on="0"/>
        <pt x="132" y="587" on="0"/>
        <pt x="115" y="560" on="0"/>
        <pt x="110" y="545" on="1"/>
        <pt x="105" y="532" on="0"/>
        <pt x="96" y="518" on="0"/>
        <pt x="76" y="505" on="1"/>
        <pt x="62" y="496" on="0"/>
        <pt x="37" y="488" on="0"/>
        <pt x="31" y="488" on="1"/>
        <pt x="21" y="488" on="0"/>
        <pt x="21" y="496" on="1"/>
        <pt x="21" y="499" on="0"/>
        <pt x="30" y="527" on="0"/>
        <pt x="58" y="567" on="0"/>
        <pt x="111" y="614" on="0"/>
        <pt x="155" y="636" on="1"/>
        <pt x="185" y="651" on="0"/>
        <pt x="244" y="670" on="0"/>
        <pt x="296" y="680" on="0"/>
        <pt x="340" y="683" on="0"/>
        <pt x="356" y="683" on="1"/>
      </contour>
    </TTGlyph>
    <TTGlyph name="Q" xMin="115" yMin="-125" xMax="809" yMax="705">
      <contour>
        <pt x="260" y="28" on="1"/>
        <pt x="364" y="28" on="0"/>
        <pt x="512" y="68" on="0"/>
        <pt x="570" y="120" on="1"/>
        <pt x="613" y="159" on="0"/>
        <pt x="666" y="240" on="0"/>
        <pt x="696" y="317" on="0"/>
        <pt x="706" y="386" on="0"/>
        <pt x="706" y="413" on="1"/>
        <pt x="706" y="463" on="0"/>
        <pt x="677" y="550" on="0"/>
        <pt x="623" y="613" on="0"/>
        <pt x="546" y="649" on="0"/>
        <pt x="497" y="649" on="1"/>
        <pt x="451" y="649" on="0"/>
        <pt x="371" y="619" on="0"/>
        <pt x="306" y="569" on="0"/>
        <pt x="255" y="504" on="0"/>
        <pt x="220" y="434" on="0"/>
        <pt x="202" y="363" on="0"/>
        <pt x="202" y="333" on="1"/>
        <pt x="202" y="297" on="0"/>
        <pt x="224" y="233" on="0"/>
        <pt x="266" y="186" on="0"/>
        <pt x="326" y="158" on="0"/>
        <pt x="364" y="158" on="1"/>
        <pt x="367" y="158" on="0"/>
        <pt x="387" y="159" on="0"/>
        <pt x="414" y="164" on="0"/>
        <pt x="445" y="173" on="0"/>
        <pt x="461" y="182" on="1"/>
        <pt x="466" y="186" on="0"/>
        <pt x="494" y="199" on="0"/>
        <pt x="505" y="199" on="1"/>
        <pt x="514" y="199" on="0"/>
        <pt x="514" y="192" on="1"/>
        <pt x="514" y="183" on="0"/>
        <pt x="474" y="153" on="0"/>
        <pt x="411" y="123" on="0"/>
        <pt x="333" y="102" on="0"/>
        <pt x="295" y="102" on="1"/>
        <pt x="251" y="102" on="0"/>
        <pt x="184" y="132" on="0"/>
        <pt x="138" y="183" on="0"/>
        <pt x="115" y="251" on="0"/>
        <pt x="115" y="289" on="1"/>
        <pt x="115" y="342" on="0"/>
        <pt x="153" y="444" on="0"/>
        <pt x="218" y="536" on="0"/>
        <pt x="306" y="615" on="0"/>
        <pt x="406" y="673" on="0"/>
        <pt x="513" y="705" on="0"/>
        <pt x="565" y="705" on="1"/>
        <pt x="621" y="705" on="0"/>
        <pt x="706" y="666" on="0"/>
        <pt x="764" y="598" on="0"/>
        <pt x="793" y="508" on="0"/>
        <pt x="793" y="457" on="1"/>
        <pt x="793" y="377" on="0"/>
        <pt x="730" y="231" on="0"/>
        <pt x="622" y="111" on="0"/>
        <pt x="477" y="21" on="0"/>
        <pt x="395" y="-5" on="1"/>
        <pt x="435" y="-18" on="0"/>
        <pt x="474" y="-31" on="0"/>
        <pt x="495" y="-38" on="0"/>
        <pt x="511" y="-43" on="0"/>
        <pt x="529" y="-48" on="1"/>
        <pt x="574" y="-61" on="0"/>
        <pt x="640" y="-69" on="0"/>
        <pt x="658" y="-69" on="1"/>
        <pt x="685" y="-69" on="0"/>
        <pt x="712" y="-52" on="0"/>
        <pt x="723" y="-22" on="1"/>
        <pt x="726" y="-12" on="0"/>
        <pt x="746" y="6" on="0"/>
        <pt x="769" y="20" on="0"/>
        <pt x="792" y="28" on="0"/>
        <pt x="799" y="28" on="1"/>
        <pt x="809" y="28" on="0"/>
        <pt x="809" y="21" on="1"/>
        <pt x="809" y="5" on="0"/>
        <pt x="774" y="-44" on="0"/>
        <pt x="714" y="-91" on="0"/>
        <pt x="635" y="-125" on="0"/>
        <pt x="590" y="-125" on="1"/>
        <pt x="537" y="-125" on="0"/>
        <pt x="435" y="-100" on="0"/>
        <pt x="381" y="-81" on="1"/>
        <pt x="338" y="-66" on="0"/>
        <pt x="275" y="-46" on="0"/>
        <pt x="223" y="-34" on="0"/>
        <pt x="177" y="-29" on="0"/>
        <pt x="150" y="-28" on="1"/>
        <pt x="146" y="-28" on="0"/>
        <pt x="140" y="-26" on="0"/>
        <pt x="140" y="-21" on="1"/>
        <pt x="140" y="-15" on="0"/>
        <pt x="160" y="5" on="0"/>
        <pt x="175" y="13" on="1"/>
        <pt x="194" y="24" on="0"/>
        <pt x="215" y="28" on="0"/>
        <pt x="230" y="28" on="1"/>
      </contour>
    </TTGlyph>
    <TTGlyph name="R" xMin="21" yMin="-22" xMax="864" yMax="683">
      <contour>
        <pt x="366" y="627" on="1"/>
        <pt x="360" y="554" on="0"/>
        <pt x="333" y="407" on="0"/>
        <pt x="298" y="273" on="0"/>
        <pt x="260" y="157" on="0"/>
        <pt x="228" y="71" on="0"/>
        <pt x="206" y="19" on="0"/>
        <pt x="203" y="16" on="1"/>
        <pt x="186" y="-2" on="0"/>
        <pt x="143" y="-22" on="0"/>
        <pt x="133" y="-22" on="1"/>
        <pt x="131" y="-22" on="0"/>
        <pt x="122" y="-20" on="0"/>
        <pt x="122" y="-15" on="1"/>
        <pt x="122" y="-14" on="0"/>
        <pt x="124" y="-8" on="0"/>
        <pt x="129" y="3" on="1"/>
        <pt x="152" y="59" on="0"/>
        <pt x="200" y="191" on="0"/>
        <pt x="242" y="347" on="0"/>
        <pt x="275" y="525" on="0"/>
        <pt x="283" y="627" on="1"/>
        <pt x="232" y="624" on="0"/>
        <pt x="169" y="609" on="0"/>
        <pt x="132" y="587" on="0"/>
        <pt x="115" y="560" on="0"/>
        <pt x="110" y="545" on="1"/>
        <pt x="105" y="532" on="0"/>
        <pt x="96" y="518" on="0"/>
        <pt x="76" y="505" on="1"/>
        <pt x="62" y="496" on="0"/>
        <pt x="37" y="488" on="0"/>
        <pt x="31" y="488" on="1"/>
        <pt x="21" y="488" on="0"/>
        <pt x="21" y="496" on="1"/>
        <pt x="21" y="498" on="0"/>
        <pt x="29" y="527" on="0"/>
        <pt x="60" y="570" on="0"/>
        <pt x="119" y="621" on="0"/>
        <pt x="170" y="644" on="1"/>
        <pt x="203" y="659" on="0"/>
        <pt x="262" y="674" on="0"/>
        <pt x="322" y="682" on="0"/>
        <pt x="387" y="683" on="0"/>
        <pt x="426" y="683" on="1"/>
        <pt x="486" y="683" on="0"/>
        <pt x="604" y="679" on="0"/>
        <pt x="696" y="656" on="0"/>
        <pt x="753" y="605" on="0"/>
        <pt x="753" y="558" on="1"/>
        <pt x="753" y="516" on="0"/>
        <pt x="713" y="436" on="0"/>
        <pt x="645" y="367" on="0"/>
        <pt x="556" y="314" on="0"/>
        <pt x="506" y="297" on="1"/>
        <pt x="526" y="273" on="0"/>
        <pt x="562" y="202" on="0"/>
        <pt x="579" y="165" on="1"/>
        <pt x="607" y="103" on="0"/>
        <pt x="658" y="34" on="0"/>
        <pt x="690" y="34" on="1"/>
        <pt x="727" y="34" on="0"/>
        <pt x="766" y="67" on="0"/>
        <pt x="777" y="83" on="1"/>
        <pt x="796" y="109" on="0"/>
        <pt x="844" y="130" on="0"/>
        <pt x="853" y="130" on="1"/>
        <pt x="856" y="130" on="0"/>
        <pt x="864" y="129" on="0"/>
        <pt x="864" y="124" on="1"/>
        <pt x="864" y="115" on="0"/>
        <pt x="823" y="68" on="0"/>
        <pt x="755" y="17" on="0"/>
        <pt x="668" y="-22" on="0"/>
        <pt x="622" y="-22" on="1"/>
        <pt x="603" y="-22" on="0"/>
        <pt x="570" y="-7" on="0"/>
        <pt x="540" y="26" on="0"/>
        <pt x="510" y="78" on="0"/>
        <pt x="492" y="116" on="1"/>
        <pt x="467" y="172" on="0"/>
        <pt x="432" y="234" on="0"/>
        <pt x="405" y="264" on="0"/>
        <pt x="382" y="272" on="0"/>
        <pt x="368" y="274" on="1"/>
        <pt x="367" y="274" on="0"/>
        <pt x="363" y="275" on="0"/>
        <pt x="363" y="280" on="1"/>
        <pt x="363" y="285" on="0"/>
        <pt x="378" y="302" on="0"/>
        <pt x="388" y="309" on="1"/>
        <pt x="411" y="323" on="0"/>
        <pt x="435" y="328" on="0"/>
        <pt x="450" y="329" on="1"/>
        <pt x="514" y="331" on="0"/>
        <pt x="597" y="372" on="0"/>
        <pt x="646" y="429" on="0"/>
        <pt x="666" y="491" on="0"/>
        <pt x="666" y="514" on="1"/>
        <pt x="666" y="537" on="0"/>
        <pt x="647" y="578" on="0"/>
        <pt x="593" y="609" on="0"/>
        <pt x="497" y="627" on="0"/>
        <pt x="420" y="627" on="1"/>
      </contour>
    </TTGlyph>
    <TTGlyph name="Rfraktur" xMin="46" yMin="-22" xMax="734" yMax="716">
      <contour>
        <pt x="728" y="459" on="1"/>
        <pt x="733" y="451" on="0"/>
        <pt x="734" y="446" on="0"/>
        <pt x="734" y="444" on="1"/>
        <pt x="734" y="438" on="0"/>
        <pt x="730" y="435" on="1"/>
        <pt x="706" y="421" on="1"/>
        <pt x="679" y="405" on="0"/>
        <pt x="638" y="382" on="0"/>
        <pt x="604" y="366" on="0"/>
        <pt x="574" y="354" on="0"/>
        <pt x="557" y="350" on="1"/>
        <pt x="571" y="124" on="1"/>
        <pt x="571" y="118" on="0"/>
        <pt x="568" y="111" on="0"/>
        <pt x="568" y="96" on="1"/>
        <pt x="568" y="62" on="0"/>
        <pt x="600" y="22" on="0"/>
        <pt x="614" y="14" on="1"/>
        <pt x="623" y="20" on="0"/>
        <pt x="645" y="37" on="0"/>
        <pt x="666" y="52" on="0"/>
        <pt x="682" y="63" on="0"/>
        <pt x="683" y="64" on="1"/>
        <pt x="696" y="74" on="0"/>
        <pt x="702" y="77" on="0"/>
        <pt x="704" y="77" on="1"/>
        <pt x="706" y="77" on="0"/>
        <pt x="722" y="70" on="0"/>
        <pt x="722" y="62" on="1"/>
        <pt x="722" y="58" on="0"/>
        <pt x="717" y="53" on="0"/>
        <pt x="704" y="43" on="1"/>
        <pt x="699" y="40" on="0"/>
        <pt x="681" y="27" on="0"/>
        <pt x="676" y="23" on="1"/>
        <pt x="673" y="21" on="0"/>
        <pt x="653" y="8" on="0"/>
        <pt x="632" y="-7" on="0"/>
        <pt x="615" y="-19" on="0"/>
        <pt x="614" y="-19" on="1"/>
        <pt x="611" y="-21" on="0"/>
        <pt x="606" y="-22" on="0"/>
        <pt x="598" y="-22" on="1"/>
        <pt x="576" y="-22" on="0"/>
        <pt x="534" y="-5" on="0"/>
        <pt x="501" y="25" on="0"/>
        <pt x="481" y="69" on="0"/>
        <pt x="481" y="96" on="1"/>
        <pt x="481" y="105" on="0"/>
        <pt x="482" y="114" on="0"/>
        <pt x="482" y="119" on="0"/>
        <pt x="483" y="121" on="0"/>
        <pt x="483" y="124" on="1"/>
        <pt x="471" y="345" on="1"/>
        <pt x="354" y="345" on="1"/>
        <pt x="354" y="272" on="1"/>
        <pt x="354" y="194" on="0"/>
        <pt x="325" y="83" on="0"/>
        <pt x="280" y="11" on="0"/>
        <pt x="225" y="-22" on="0"/>
        <pt x="199" y="-22" on="1"/>
        <pt x="186" y="-22" on="0"/>
        <pt x="153" y="-13" on="0"/>
        <pt x="119" y="10" on="0"/>
        <pt x="88" y="51" on="0"/>
        <pt x="76" y="83" on="1"/>
        <pt x="73" y="81" on="0"/>
        <pt x="62" y="77" on="0"/>
        <pt x="58" y="77" on="1"/>
        <pt x="53" y="77" on="0"/>
        <pt x="46" y="85" on="0"/>
        <pt x="46" y="90" on="1"/>
        <pt x="46" y="97" on="0"/>
        <pt x="63" y="106" on="0"/>
        <pt x="68" y="106" on="1"/>
        <pt x="67" y="108" on="0"/>
        <pt x="63" y="117" on="0"/>
        <pt x="63" y="120" on="1"/>
        <pt x="63" y="126" on="0"/>
        <pt x="73" y="135" on="0"/>
        <pt x="78" y="135" on="1"/>
        <pt x="84" y="135" on="0"/>
        <pt x="93" y="121" on="0"/>
        <pt x="93" y="116" on="1"/>
        <pt x="97" y="118" on="0"/>
        <pt x="108" y="122" on="0"/>
        <pt x="113" y="122" on="1"/>
        <pt x="117" y="122" on="0"/>
        <pt x="125" y="116" on="0"/>
        <pt x="125" y="110" on="1"/>
        <pt x="125" y="103" on="0"/>
        <pt x="108" y="94" on="0"/>
        <pt x="103" y="94" on="1"/>
        <pt x="112" y="66" on="0"/>
        <pt x="137" y="30" on="0"/>
        <pt x="163" y="10" on="0"/>
        <pt x="189" y="3" on="0"/>
        <pt x="198" y="3" on="1"/>
        <pt x="214" y="3" on="0"/>
        <pt x="236" y="27" on="0"/>
        <pt x="251" y="65" on="0"/>
        <pt x="260" y="111" on="0"/>
        <pt x="265" y="154" on="0"/>
        <pt x="266" y="188" on="0"/>
        <pt x="266" y="196" on="1"/>
        <pt x="266" y="486" on="1"/>
        <pt x="266" y="531" on="0"/>
        <pt x="251" y="602" on="0"/>
        <pt x="225" y="653" on="0"/>
        <pt x="190" y="680" on="0"/>
        <pt x="170" y="680" on="1"/>
        <pt x="152" y="680" on="0"/>
        <pt x="123" y="664" on="0"/>
        <pt x="102" y="637" on="0"/>
        <pt x="90" y="603" on="0"/>
        <pt x="90" y="586" on="1"/>
        <pt x="90" y="566" on="0"/>
        <pt x="116" y="537" on="0"/>
        <pt x="138" y="517" on="1"/>
        <pt x="161" y="496" on="0"/>
        <pt x="186" y="458" on="0"/>
        <pt x="198" y="426" on="0"/>
        <pt x="200" y="402" on="0"/>
        <pt x="200" y="395" on="1"/>
        <pt x="200" y="382" on="0"/>
        <pt x="196" y="331" on="0"/>
        <pt x="180" y="281" on="0"/>
        <pt x="147" y="243" on="0"/>
        <pt x="117" y="243" on="1"/>
        <pt x="98" y="243" on="0"/>
        <pt x="75" y="262" on="0"/>
        <pt x="62" y="288" on="0"/>
        <pt x="57" y="314" on="0"/>
        <pt x="57" y="321" on="1"/>
        <pt x="57" y="329" on="0"/>
        <pt x="62" y="337" on="0"/>
        <pt x="71" y="337" on="1"/>
        <pt x="81" y="337" on="0"/>
        <pt x="84" y="328" on="0"/>
        <pt x="85" y="320" on="1"/>
        <pt x="85" y="313" on="0"/>
        <pt x="88" y="295" on="0"/>
        <pt x="95" y="279" on="0"/>
        <pt x="107" y="268" on="0"/>
        <pt x="117" y="268" on="1"/>
        <pt x="146" y="268" on="0"/>
        <pt x="165" y="333" on="0"/>
        <pt x="165" y="386" on="1"/>
        <pt x="165" y="400" on="0"/>
        <pt x="163" y="420" on="0"/>
        <pt x="153" y="442" on="0"/>
        <pt x="133" y="468" on="0"/>
        <pt x="114" y="486" on="1"/>
        <pt x="91" y="510" on="0"/>
        <pt x="57" y="553" on="0"/>
        <pt x="57" y="584" on="1"/>
        <pt x="57" y="606" on="0"/>
        <pt x="73" y="649" on="0"/>
        <pt x="103" y="684" on="0"/>
        <pt x="145" y="705" on="0"/>
        <pt x="172" y="705" on="1"/>
        <pt x="183" y="705" on="0"/>
        <pt x="217" y="698" on="0"/>
        <pt x="256" y="677" on="0"/>
        <pt x="298" y="636" on="0"/>
        <pt x="317" y="602" on="1"/>
        <pt x="343" y="645" on="0"/>
        <pt x="425" y="691" on="0"/>
        <pt x="503" y="712" on="0"/>
        <pt x="561" y="716" on="0"/>
        <pt x="564" y="716" on="1"/>
        <pt x="575" y="716" on="0"/>
        <pt x="582" y="711" on="0"/>
        <pt x="589" y="700" on="1"/>
      </contour>
      <contour>
        <pt x="508" y="666" on="1"/>
        <pt x="503" y="674" on="0"/>
        <pt x="500" y="678" on="0"/>
        <pt x="499" y="678" on="1"/>
        <pt x="497" y="678" on="0"/>
        <pt x="454" y="668" on="0"/>
        <pt x="399" y="643" on="0"/>
        <pt x="345" y="599" on="0"/>
        <pt x="333" y="565" on="1"/>
        <pt x="341" y="544" on="0"/>
        <pt x="354" y="482" on="0"/>
        <pt x="354" y="426" on="1"/>
        <pt x="354" y="376" on="1"/>
        <pt x="505" y="376" on="1"/>
        <pt x="518" y="376" on="0"/>
        <pt x="544" y="378" on="0"/>
        <pt x="576" y="388" on="0"/>
        <pt x="618" y="407" on="0"/>
        <pt x="648" y="423" on="1"/>
      </contour>
    </TTGlyph>
    <TTGlyph name="S" xMin="19" yMin="-22" xMax="656" yMax="705">
      <contour>
        <pt x="118" y="220" on="1"/>
        <pt x="106" y="196" on="0"/>
        <pt x="106" y="169" on="1"/>
        <pt x="106" y="144" on="0"/>
        <pt x="136" y="95" on="0"/>
        <pt x="188" y="57" on="0"/>
        <pt x="257" y="34" on="0"/>
        <pt x="296" y="34" on="1"/>
        <pt x="310" y="34" on="0"/>
        <pt x="348" y="38" on="0"/>
        <pt x="387" y="46" on="0"/>
        <pt x="425" y="59" on="0"/>
        <pt x="440" y="69" on="1"/>
        <pt x="472" y="90" on="0"/>
        <pt x="501" y="157" on="0"/>
        <pt x="501" y="184" on="1"/>
        <pt x="501" y="217" on="0"/>
        <pt x="468" y="267" on="0"/>
        <pt x="418" y="306" on="0"/>
        <pt x="358" y="335" on="0"/>
        <pt x="330" y="347" on="1"/>
        <pt x="315" y="353" on="0"/>
        <pt x="268" y="376" on="0"/>
        <pt x="224" y="410" on="0"/>
        <pt x="193" y="458" on="0"/>
        <pt x="193" y="490" on="1"/>
        <pt x="193" y="533" on="0"/>
        <pt x="248" y="611" on="0"/>
        <pt x="335" y="670" on="0"/>
        <pt x="441" y="705" on="0"/>
        <pt x="491" y="705" on="1"/>
        <pt x="502" y="705" on="0"/>
        <pt x="563" y="700" on="0"/>
        <pt x="599" y="684" on="1"/>
        <pt x="608" y="680" on="0"/>
        <pt x="628" y="669" on="0"/>
        <pt x="645" y="652" on="0"/>
        <pt x="656" y="627" on="0"/>
        <pt x="656" y="608" on="1"/>
        <pt x="656" y="579" on="0"/>
        <pt x="642" y="555" on="0"/>
        <pt x="634" y="547" on="1"/>
        <pt x="622" y="536" on="0"/>
        <pt x="583" y="518" on="0"/>
        <pt x="573" y="518" on="1"/>
        <pt x="563" y="518" on="0"/>
        <pt x="563" y="525" on="1"/>
        <pt x="563" y="530" on="0"/>
        <pt x="565" y="538" on="1"/>
        <pt x="566" y="539" on="0"/>
        <pt x="569" y="554" on="0"/>
        <pt x="569" y="564" on="1"/>
        <pt x="569" y="581" on="0"/>
        <pt x="559" y="603" on="0"/>
        <pt x="544" y="618" on="0"/>
        <pt x="526" y="627" on="0"/>
        <pt x="518" y="630" on="1"/>
        <pt x="487" y="643" on="0"/>
        <pt x="433" y="649" on="0"/>
        <pt x="423" y="649" on="1"/>
        <pt x="399" y="649" on="0"/>
        <pt x="340" y="637" on="0"/>
        <pt x="323" y="624" on="1"/>
        <pt x="304" y="610" on="0"/>
        <pt x="280" y="560" on="0"/>
        <pt x="280" y="534" on="1"/>
        <pt x="280" y="505" on="0"/>
        <pt x="310" y="460" on="0"/>
        <pt x="351" y="429" on="0"/>
        <pt x="393" y="408" on="0"/>
        <pt x="406" y="403" on="1"/>
        <pt x="436" y="390" on="0"/>
        <pt x="500" y="359" on="0"/>
        <pt x="553" y="318" on="0"/>
        <pt x="588" y="264" on="0"/>
        <pt x="588" y="228" on="1"/>
        <pt x="588" y="177" on="0"/>
        <pt x="523" y="87" on="0"/>
        <pt x="420" y="18" on="0"/>
        <pt x="292" y="-22" on="0"/>
        <pt x="228" y="-22" on="1"/>
        <pt x="182" y="-22" on="0"/>
        <pt x="105" y="4" on="0"/>
        <pt x="50" y="45" on="0"/>
        <pt x="19" y="98" on="0"/>
        <pt x="19" y="125" on="1"/>
        <pt x="19" y="161" on="0"/>
        <pt x="51" y="214" on="0"/>
        <pt x="94" y="250" on="0"/>
        <pt x="140" y="267" on="0"/>
        <pt x="154" y="267" on="1"/>
        <pt x="165" y="267" on="0"/>
        <pt x="165" y="260" on="1"/>
        <pt x="165" y="258" on="0"/>
        <pt x="151" y="235" on="0"/>
      </contour>
    </TTGlyph>
    <TTGlyph name="T" xMin="35" yMin="-68" xMax="857" yMax="717">
      <contour>
        <pt x="388" y="182" on="1"/>
        <pt x="380" y="149" on="0"/>
        <pt x="356" y="80" on="0"/>
        <pt x="334" y="22" on="0"/>
        <pt x="316" y="-18" on="0"/>
        <pt x="313" y="-21" on="1"/>
        <pt x="306" y="-30" on="0"/>
        <pt x="283" y="-47" on="0"/>
        <pt x="259" y="-60" on="0"/>
        <pt x="237" y="-68" on="0"/>
        <pt x="230" y="-68" on="1"/>
        <pt x="228" y="-68" on="0"/>
        <pt x="221" y="-67" on="0"/>
        <pt x="221" y="-62" on="1"/>
        <pt x="221" y="-61" on="0"/>
        <pt x="222" y="-57" on="0"/>
        <pt x="225" y="-49" on="1"/>
        <pt x="241" y="-14" on="0"/>
        <pt x="278" y="83" on="0"/>
        <pt x="291" y="135" on="1"/>
        <pt x="404" y="586" on="1"/>
        <pt x="406" y="594" on="0"/>
        <pt x="414" y="612" on="0"/>
        <pt x="427" y="621" on="1"/>
        <pt x="226" y="621" on="1"/>
        <pt x="193" y="621" on="0"/>
        <pt x="168" y="612" on="0"/>
        <pt x="161" y="604" on="1"/>
        <pt x="144" y="585" on="0"/>
        <pt x="135" y="553" on="0"/>
        <pt x="133" y="539" on="1"/>
        <pt x="132" y="530" on="0"/>
        <pt x="111" y="510" on="0"/>
        <pt x="82" y="493" on="0"/>
        <pt x="53" y="481" on="0"/>
        <pt x="44" y="481" on="1"/>
        <pt x="37" y="481" on="0"/>
        <pt x="35" y="489" on="0"/>
        <pt x="35" y="491" on="1"/>
        <pt x="35" y="521" on="0"/>
        <pt x="82" y="588" on="0"/>
        <pt x="158" y="645" on="0"/>
        <pt x="255" y="683" on="0"/>
        <pt x="306" y="683" on="1"/>
        <pt x="778" y="683" on="1"/>
        <pt x="804" y="705" on="0"/>
        <pt x="843" y="717" on="0"/>
        <pt x="847" y="717" on="1"/>
        <pt x="855" y="717" on="0"/>
        <pt x="857" y="712" on="0"/>
        <pt x="857" y="711" on="1"/>
        <pt x="857" y="704" on="0"/>
        <pt x="835" y="674" on="0"/>
        <pt x="791" y="644" on="0"/>
        <pt x="724" y="621" on="0"/>
        <pt x="679" y="621" on="1"/>
        <pt x="498" y="621" on="1"/>
      </contour>
    </TTGlyph>
    <TTGlyph name="U" xMin="-16" yMin="-28" xMax="704" yMax="683">
      <contour>
        <pt x="507" y="301" on="1"/>
        <pt x="485" y="272" on="0"/>
        <pt x="444" y="221" on="0"/>
        <pt x="404" y="174" on="0"/>
        <pt x="361" y="130" on="0"/>
        <pt x="336" y="108" on="1"/>
        <pt x="267" y="45" on="0"/>
        <pt x="135" y="-22" on="0"/>
        <pt x="84" y="-22" on="1"/>
        <pt x="56" y="-22" on="0"/>
        <pt x="18" y="-2" on="0"/>
        <pt x="-6" y="33" on="0"/>
        <pt x="-16" y="77" on="0"/>
        <pt x="-16" y="101" on="1"/>
        <pt x="-16" y="158" on="0"/>
        <pt x="39" y="304" on="0"/>
        <pt x="84" y="406" on="1"/>
        <pt x="120" y="486" on="0"/>
        <pt x="147" y="568" on="0"/>
        <pt x="147" y="591" on="1"/>
        <pt x="147" y="627" on="0"/>
        <pt x="116" y="627" on="1"/>
        <pt x="114" y="627" on="0"/>
        <pt x="83" y="624" on="0"/>
        <pt x="67" y="614" on="1"/>
        <pt x="50" y="603" on="0"/>
        <pt x="26" y="593" on="0"/>
        <pt x="18" y="593" on="1"/>
        <pt x="8" y="593" on="0"/>
        <pt x="8" y="600" on="1"/>
        <pt x="8" y="608" on="0"/>
        <pt x="41" y="636" on="0"/>
        <pt x="93" y="663" on="0"/>
        <pt x="155" y="683" on="0"/>
        <pt x="184" y="683" on="1"/>
        <pt x="191" y="683" on="0"/>
        <pt x="208" y="681" on="0"/>
        <pt x="223" y="672" on="0"/>
        <pt x="234" y="652" on="0"/>
        <pt x="234" y="635" on="1"/>
        <pt x="234" y="618" on="0"/>
        <pt x="221" y="570" on="0"/>
        <pt x="202" y="517" on="0"/>
        <pt x="178" y="460" on="0"/>
        <pt x="166" y="434" on="1"/>
        <pt x="121" y="331" on="0"/>
        <pt x="71" y="196" on="0"/>
        <pt x="71" y="145" on="1"/>
        <pt x="71" y="125" on="0"/>
        <pt x="79" y="85" on="0"/>
        <pt x="98" y="54" on="0"/>
        <pt x="130" y="34" on="0"/>
        <pt x="153" y="34" on="1"/>
        <pt x="183" y="34" on="0"/>
        <pt x="262" y="87" on="0"/>
        <pt x="349" y="174" on="0"/>
        <pt x="437" y="287" on="0"/>
        <pt x="516" y="405" on="0"/>
        <pt x="577" y="521" on="0"/>
        <pt x="594" y="568" on="1"/>
        <pt x="596" y="574" on="0"/>
        <pt x="604" y="596" on="0"/>
        <pt x="612" y="619" on="0"/>
        <pt x="619" y="638" on="0"/>
        <pt x="620" y="640" on="1"/>
        <pt x="626" y="649" on="0"/>
        <pt x="645" y="664" on="0"/>
        <pt x="667" y="676" on="0"/>
        <pt x="688" y="683" on="0"/>
        <pt x="694" y="683" on="1"/>
        <pt x="697" y="683" on="0"/>
        <pt x="704" y="681" on="0"/>
        <pt x="704" y="676" on="1"/>
        <pt x="704" y="671" on="0"/>
        <pt x="689" y="622" on="0"/>
        <pt x="678" y="596" on="1"/>
        <pt x="672" y="581" on="0"/>
        <pt x="645" y="506" on="0"/>
        <pt x="614" y="407" on="0"/>
        <pt x="581" y="293" on="0"/>
        <pt x="553" y="183" on="0"/>
        <pt x="536" y="87" on="0"/>
        <pt x="536" y="56" on="1"/>
        <pt x="536" y="55" on="0"/>
        <pt x="537" y="46" on="0"/>
        <pt x="541" y="37" on="0"/>
        <pt x="549" y="29" on="0"/>
        <pt x="557" y="28" on="1"/>
        <pt x="567" y="33" on="0"/>
        <pt x="588" y="43" on="0"/>
        <pt x="599" y="43" on="1"/>
        <pt x="602" y="43" on="0"/>
        <pt x="608" y="40" on="0"/>
        <pt x="608" y="36" on="1"/>
        <pt x="608" y="29" on="0"/>
        <pt x="583" y="7" on="0"/>
        <pt x="546" y="-14" on="0"/>
        <pt x="506" y="-28" on="0"/>
        <pt x="491" y="-28" on="1"/>
        <pt x="476" y="-28" on="0"/>
        <pt x="449" y="-12" on="0"/>
        <pt x="449" y="12" on="1"/>
        <pt x="449" y="41" on="0"/>
        <pt x="461" y="115" on="0"/>
        <pt x="479" y="193" on="0"/>
        <pt x="499" y="270" on="0"/>
        <pt x="508" y="301" on="1"/>
      </contour>
    </TTGlyph>
    <TTGlyph name="V" xMin="34" yMin="-46" xMax="677" yMax="683">
      <contour>
        <pt x="280" y="86" on="1"/>
        <pt x="363" y="151" on="0"/>
        <pt x="494" y="279" on="0"/>
        <pt x="584" y="391" on="0"/>
        <pt x="632" y="479" on="0"/>
        <pt x="632" y="503" on="1"/>
        <pt x="632" y="512" on="0"/>
        <pt x="626" y="538" on="0"/>
        <pt x="608" y="564" on="0"/>
        <pt x="576" y="586" on="0"/>
        <pt x="549" y="589" on="1"/>
        <pt x="541" y="590" on="0"/>
        <pt x="534" y="594" on="0"/>
        <pt x="534" y="605" on="1"/>
        <pt x="534" y="610" on="0"/>
        <pt x="539" y="636" on="0"/>
        <pt x="550" y="663" on="0"/>
        <pt x="567" y="683" on="0"/>
        <pt x="578" y="683" on="1"/>
        <pt x="595" y="683" on="0"/>
        <pt x="631" y="668" on="0"/>
        <pt x="659" y="639" on="0"/>
        <pt x="677" y="595" on="0"/>
        <pt x="677" y="566" on="1"/>
        <pt x="677" y="543" on="0"/>
        <pt x="665" y="491" on="0"/>
        <pt x="647" y="440" on="0"/>
        <pt x="624" y="392" on="0"/>
        <pt x="613" y="373" on="1"/>
        <pt x="580" y="317" on="0"/>
        <pt x="495" y="212" on="0"/>
        <pt x="404" y="119" on="0"/>
        <pt x="316" y="41" on="0"/>
        <pt x="247" y="-15" on="0"/>
        <pt x="202" y="-46" on="0"/>
        <pt x="200" y="-46" on="1"/>
        <pt x="195" y="-46" on="0"/>
        <pt x="192" y="-33" on="0"/>
        <pt x="192" y="-32" on="1"/>
        <pt x="192" y="-27" on="0"/>
        <pt x="194" y="-17" on="1"/>
        <pt x="199" y="10" on="0"/>
        <pt x="207" y="79" on="0"/>
        <pt x="213" y="153" on="0"/>
        <pt x="216" y="227" on="0"/>
        <pt x="216" y="259" on="1"/>
        <pt x="216" y="315" on="0"/>
        <pt x="205" y="444" on="0"/>
        <pt x="186" y="501" on="1"/>
        <pt x="171" y="547" on="0"/>
        <pt x="132" y="599" on="0"/>
        <pt x="92" y="624" on="0"/>
        <pt x="57" y="631" on="0"/>
        <pt x="45" y="632" on="1"/>
        <pt x="40" y="633" on="0"/>
        <pt x="34" y="635" on="0"/>
        <pt x="34" y="640" on="1"/>
        <pt x="34" y="645" on="0"/>
        <pt x="46" y="659" on="0"/>
        <pt x="65" y="673" on="0"/>
        <pt x="91" y="683" on="0"/>
        <pt x="105" y="683" on="1"/>
        <pt x="152" y="683" on="0"/>
        <pt x="216" y="636" on="0"/>
        <pt x="258" y="562" on="0"/>
        <pt x="281" y="471" on="0"/>
        <pt x="291" y="385" on="0"/>
        <pt x="293" y="314" on="0"/>
        <pt x="293" y="296" on="1"/>
        <pt x="293" y="265" on="0"/>
        <pt x="290" y="202" on="0"/>
        <pt x="286" y="147" on="0"/>
        <pt x="282" y="101" on="0"/>
      </contour>
    </TTGlyph>
    <TTGlyph name="W" xMin="34" yMin="-46" xMax="1065" yMax="683">
      <contour>
        <pt x="251" y="128" on="1"/>
        <pt x="289" y="173" on="0"/>
        <pt x="367" y="279" on="0"/>
        <pt x="438" y="386" on="0"/>
        <pt x="500" y="487" on="0"/>
        <pt x="546" y="567" on="0"/>
        <pt x="572" y="618" on="0"/>
        <pt x="572" y="621" on="1"/>
        <pt x="572" y="623" on="0"/>
        <pt x="568" y="636" on="0"/>
        <pt x="568" y="639" on="1"/>
        <pt x="568" y="645" on="0"/>
        <pt x="582" y="661" on="0"/>
        <pt x="602" y="674" on="0"/>
        <pt x="624" y="683" on="0"/>
        <pt x="632" y="683" on="1"/>
        <pt x="640" y="683" on="0"/>
        <pt x="644" y="677" on="0"/>
        <pt x="648" y="667" on="1"/>
        <pt x="696" y="533" on="0"/>
        <pt x="754" y="257" on="0"/>
        <pt x="763" y="114" on="1"/>
        <pt x="764" y="108" on="0"/>
        <pt x="764" y="95" on="0"/>
        <pt x="766" y="95" on="1"/>
        <pt x="768" y="95" on="0"/>
        <pt x="806" y="141" on="0"/>
        <pt x="863" y="215" on="0"/>
        <pt x="928" y="308" on="0"/>
        <pt x="983" y="400" on="0"/>
        <pt x="1020" y="484" on="0"/>
        <pt x="1020" y="513" on="1"/>
        <pt x="1020" y="521" on="0"/>
        <pt x="1016" y="545" on="0"/>
        <pt x="1004" y="568" on="0"/>
        <pt x="980" y="586" on="0"/>
        <pt x="960" y="589" on="1"/>
        <pt x="952" y="590" on="0"/>
        <pt x="945" y="594" on="0"/>
        <pt x="945" y="605" on="1"/>
        <pt x="945" y="611" on="0"/>
        <pt x="951" y="637" on="0"/>
        <pt x="962" y="663" on="0"/>
        <pt x="978" y="683" on="0"/>
        <pt x="988" y="683" on="1"/>
        <pt x="1019" y="683" on="0"/>
        <pt x="1065" y="629" on="0"/>
        <pt x="1065" y="576" on="1"/>
        <pt x="1065" y="538" on="0"/>
        <pt x="1039" y="448" on="0"/>
        <pt x="995" y="352" on="0"/>
        <pt x="937" y="254" on="0"/>
        <pt x="906" y="208" on="1"/>
        <pt x="888" y="182" on="0"/>
        <pt x="845" y="123" on="0"/>
        <pt x="801" y="67" on="0"/>
        <pt x="759" y="16" on="0"/>
        <pt x="725" y="-23" on="0"/>
        <pt x="702" y="-46" on="0"/>
        <pt x="699" y="-46" on="1"/>
        <pt x="695" y="-46" on="0"/>
        <pt x="694" y="-42" on="1"/>
        <pt x="692" y="-40" on="0"/>
        <pt x="692" y="-30" on="0"/>
        <pt x="691" y="-7" on="1"/>
        <pt x="690" y="43" on="0"/>
        <pt x="677" y="182" on="0"/>
        <pt x="652" y="339" on="0"/>
        <pt x="614" y="503" on="0"/>
        <pt x="588" y="576" on="1"/>
        <pt x="557" y="520" on="0"/>
        <pt x="492" y="404" on="0"/>
        <pt x="411" y="275" on="0"/>
        <pt x="307" y="127" on="0"/>
        <pt x="236" y="40" on="1"/>
        <pt x="227" y="28" on="0"/>
        <pt x="203" y="-1" on="0"/>
        <pt x="180" y="-28" on="0"/>
        <pt x="162" y="-46" on="0"/>
        <pt x="159" y="-46" on="1"/>
        <pt x="154" y="-46" on="0"/>
        <pt x="152" y="-34" on="0"/>
        <pt x="152" y="-30" on="1"/>
        <pt x="152" y="-25" on="0"/>
        <pt x="153" y="-16" on="0"/>
        <pt x="158" y="-1" on="1"/>
        <pt x="159" y="3" on="0"/>
        <pt x="170" y="64" on="0"/>
        <pt x="183" y="158" on="0"/>
        <pt x="193" y="273" on="0"/>
        <pt x="193" y="330" on="1"/>
        <pt x="193" y="338" on="0"/>
        <pt x="192" y="380" on="0"/>
        <pt x="188" y="433" on="0"/>
        <pt x="179" y="492" on="0"/>
        <pt x="170" y="518" on="1"/>
        <pt x="157" y="556" on="0"/>
        <pt x="127" y="600" on="0"/>
        <pt x="94" y="623" on="0"/>
        <pt x="61" y="631" on="0"/>
        <pt x="45" y="632" on="1"/>
        <pt x="40" y="633" on="0"/>
        <pt x="34" y="635" on="0"/>
        <pt x="34" y="640" on="1"/>
        <pt x="34" y="645" on="0"/>
        <pt x="46" y="659" on="0"/>
        <pt x="65" y="673" on="0"/>
        <pt x="91" y="683" on="0"/>
        <pt x="105" y="683" on="1"/>
        <pt x="146" y="683" on="0"/>
        <pt x="203" y="645" on="0"/>
        <pt x="239" y="585" on="0"/>
        <pt x="259" y="512" on="0"/>
        <pt x="268" y="441" on="0"/>
        <pt x="270" y="382" on="0"/>
        <pt x="270" y="367" on="1"/>
        <pt x="270" y="301" on="0"/>
        <pt x="258" y="183" on="0"/>
      </contour>
    </TTGlyph>
    <TTGlyph name="X" xMin="52" yMin="0" xMax="827" yMax="683">
      <contour>
        <pt x="528" y="191" on="1"/>
        <pt x="533" y="148" on="0"/>
        <pt x="545" y="95" on="0"/>
        <pt x="564" y="66" on="0"/>
        <pt x="591" y="56" on="0"/>
        <pt x="611" y="56" on="1"/>
        <pt x="619" y="69" on="0"/>
        <pt x="643" y="87" on="0"/>
        <pt x="665" y="99" on="0"/>
        <pt x="684" y="104" on="0"/>
        <pt x="687" y="104" on="1"/>
        <pt x="690" y="104" on="0"/>
        <pt x="697" y="102" on="0"/>
        <pt x="697" y="97" on="1"/>
        <pt x="697" y="86" on="0"/>
        <pt x="673" y="53" on="0"/>
        <pt x="629" y="22" on="0"/>
        <pt x="569" y="0" on="0"/>
        <pt x="534" y="0" on="1"/>
        <pt x="507" y="0" on="0"/>
        <pt x="474" y="21" on="0"/>
        <pt x="454" y="59" on="0"/>
        <pt x="444" y="111" on="0"/>
        <pt x="441" y="142" on="1"/>
        <pt x="440" y="157" on="0"/>
        <pt x="434" y="205" on="0"/>
        <pt x="429" y="256" on="0"/>
        <pt x="424" y="301" on="0"/>
        <pt x="422" y="313" on="1"/>
        <pt x="397" y="300" on="0"/>
        <pt x="341" y="266" on="0"/>
        <pt x="288" y="235" on="0"/>
        <pt x="246" y="208" on="0"/>
        <pt x="235" y="202" on="1"/>
        <pt x="199" y="178" on="0"/>
        <pt x="160" y="148" on="0"/>
        <pt x="142" y="126" on="0"/>
        <pt x="139" y="110" on="0"/>
        <pt x="139" y="101" on="1"/>
        <pt x="139" y="86" on="0"/>
        <pt x="147" y="68" on="0"/>
        <pt x="157" y="59" on="0"/>
        <pt x="169" y="56" on="0"/>
        <pt x="172" y="56" on="1"/>
        <pt x="179" y="55" on="0"/>
        <pt x="179" y="49" on="1"/>
        <pt x="179" y="43" on="0"/>
        <pt x="163" y="27" on="0"/>
        <pt x="139" y="11" on="0"/>
        <pt x="112" y="0" on="0"/>
        <pt x="101" y="0" on="1"/>
        <pt x="82" y="0" on="0"/>
        <pt x="52" y="26" on="0"/>
        <pt x="52" y="57" on="1"/>
        <pt x="52" y="67" on="0"/>
        <pt x="56" y="90" on="0"/>
        <pt x="79" y="122" on="0"/>
        <pt x="127" y="166" on="0"/>
        <pt x="170" y="196" on="1"/>
        <pt x="196" y="214" on="0"/>
        <pt x="251" y="248" on="0"/>
        <pt x="311" y="284" on="0"/>
        <pt x="379" y="324" on="0"/>
        <pt x="419" y="347" on="1"/>
        <pt x="401" y="512" on="1"/>
        <pt x="396" y="555" on="0"/>
        <pt x="379" y="602" on="0"/>
        <pt x="358" y="623" on="0"/>
        <pt x="333" y="627" on="0"/>
        <pt x="320" y="627" on="1"/>
        <pt x="312" y="614" on="0"/>
        <pt x="289" y="596" on="0"/>
        <pt x="266" y="584" on="0"/>
        <pt x="247" y="579" on="0"/>
        <pt x="244" y="579" on="1"/>
        <pt x="234" y="579" on="0"/>
        <pt x="234" y="586" on="1"/>
        <pt x="234" y="597" on="0"/>
        <pt x="259" y="630" on="0"/>
        <pt x="302" y="661" on="0"/>
        <pt x="362" y="683" on="0"/>
        <pt x="397" y="683" on="1"/>
        <pt x="442" y="683" on="0"/>
        <pt x="480" y="624" on="0"/>
        <pt x="488" y="560" on="1"/>
        <pt x="493" y="515" on="0"/>
        <pt x="500" y="443" on="0"/>
        <pt x="505" y="398" on="1"/>
        <pt x="532" y="413" on="0"/>
        <pt x="583" y="443" on="0"/>
        <pt x="624" y="469" on="0"/>
        <pt x="651" y="486" on="0"/>
        <pt x="655" y="489" on="1"/>
        <pt x="687" y="510" on="0"/>
        <pt x="721" y="538" on="0"/>
        <pt x="737" y="558" on="0"/>
        <pt x="740" y="573" on="0"/>
        <pt x="740" y="582" on="1"/>
        <pt x="740" y="597" on="0"/>
        <pt x="732" y="615" on="0"/>
        <pt x="722" y="624" on="0"/>
        <pt x="710" y="627" on="0"/>
        <pt x="707" y="627" on="1"/>
        <pt x="700" y="629" on="0"/>
        <pt x="700" y="634" on="1"/>
        <pt x="700" y="640" on="0"/>
        <pt x="716" y="656" on="0"/>
        <pt x="740" y="672" on="0"/>
        <pt x="767" y="683" on="0"/>
        <pt x="778" y="683" on="1"/>
        <pt x="797" y="683" on="0"/>
        <pt x="827" y="657" on="0"/>
        <pt x="827" y="626" on="1"/>
        <pt x="827" y="615" on="0"/>
        <pt x="822" y="591" on="0"/>
        <pt x="800" y="561" on="0"/>
        <pt x="758" y="522" on="0"/>
        <pt x="720" y="495" on="1"/>
        <pt x="696" y="478" on="0"/>
        <pt x="638" y="441" on="0"/>
        <pt x="581" y="406" on="0"/>
        <pt x="528" y="375" on="0"/>
        <pt x="509" y="364" on="1"/>
      </contour>
    </TTGlyph>
    <TTGlyph name="Y" xMin="31" yMin="-137" xMax="732" yMax="683">
      <contour>
        <pt x="419" y="99" on="1"/>
        <pt x="429" y="107" on="0"/>
        <pt x="462" y="140" on="0"/>
        <pt x="502" y="184" on="0"/>
        <pt x="545" y="234" on="0"/>
        <pt x="564" y="260" on="1"/>
        <pt x="602" y="310" on="0"/>
        <pt x="651" y="396" on="0"/>
        <pt x="679" y="463" on="0"/>
        <pt x="691" y="509" on="0"/>
        <pt x="691" y="519" on="1"/>
        <pt x="691" y="523" on="0"/>
        <pt x="688" y="547" on="0"/>
        <pt x="673" y="575" on="0"/>
        <pt x="639" y="600" on="0"/>
        <pt x="607" y="603" on="1"/>
        <pt x="602" y="604" on="0"/>
        <pt x="595" y="609" on="0"/>
        <pt x="595" y="619" on="1"/>
        <pt x="595" y="623" on="0"/>
        <pt x="599" y="644" on="0"/>
        <pt x="608" y="666" on="0"/>
        <pt x="623" y="683" on="0"/>
        <pt x="634" y="683" on="1"/>
        <pt x="650" y="683" on="0"/>
        <pt x="685" y="670" on="0"/>
        <pt x="713" y="641" on="0"/>
        <pt x="732" y="597" on="0"/>
        <pt x="732" y="566" on="1"/>
        <pt x="732" y="547" on="0"/>
        <pt x="714" y="464" on="0"/>
        <pt x="663" y="346" on="0"/>
        <pt x="569" y="196" on="0"/>
        <pt x="492" y="110" on="1"/>
        <pt x="453" y="66" on="0"/>
        <pt x="359" y="-22" on="0"/>
        <pt x="267" y="-93" on="0"/>
        <pt x="185" y="-137" on="0"/>
        <pt x="158" y="-137" on="1"/>
        <pt x="124" y="-137" on="0"/>
        <pt x="76" y="-111" on="0"/>
        <pt x="45" y="-74" on="0"/>
        <pt x="31" y="-36" on="0"/>
        <pt x="31" y="-24" on="1"/>
        <pt x="31" y="-15" on="0"/>
        <pt x="37" y="7" on="0"/>
        <pt x="47" y="26" on="0"/>
        <pt x="59" y="39" on="0"/>
        <pt x="64" y="39" on="1"/>
        <pt x="67" y="39" on="0"/>
        <pt x="70" y="34" on="0"/>
        <pt x="74" y="23" on="1"/>
        <pt x="80" y="0" on="0"/>
        <pt x="106" y="-31" on="0"/>
        <pt x="138" y="-49" on="0"/>
        <pt x="172" y="-57" on="0"/>
        <pt x="185" y="-57" on="1"/>
        <pt x="203" y="-57" on="0"/>
        <pt x="256" y="-31" on="0"/>
        <pt x="305" y="1" on="0"/>
        <pt x="340" y="29" on="0"/>
        <pt x="340" y="32" on="1"/>
        <pt x="342" y="52" on="0"/>
        <pt x="343" y="95" on="0"/>
        <pt x="344" y="132" on="0"/>
        <pt x="344" y="157" on="0"/>
        <pt x="344" y="158" on="1"/>
        <pt x="344" y="193" on="0"/>
        <pt x="340" y="291" on="0"/>
        <pt x="327" y="396" on="0"/>
        <pt x="300" y="499" on="0"/>
        <pt x="254" y="580" on="0"/>
        <pt x="185" y="632" on="0"/>
        <pt x="136" y="632" on="1"/>
        <pt x="117" y="609" on="0"/>
        <pt x="79" y="598" on="0"/>
        <pt x="76" y="598" on="1"/>
        <pt x="74" y="598" on="0"/>
        <pt x="65" y="600" on="0"/>
        <pt x="65" y="605" on="1"/>
        <pt x="65" y="611" on="0"/>
        <pt x="87" y="637" on="0"/>
        <pt x="125" y="663" on="0"/>
        <pt x="173" y="683" on="0"/>
        <pt x="200" y="683" on="1"/>
        <pt x="254" y="683" on="0"/>
        <pt x="328" y="626" on="0"/>
        <pt x="377" y="536" on="0"/>
        <pt x="405" y="425" on="0"/>
        <pt x="418" y="316" on="0"/>
        <pt x="421" y="223" on="0"/>
        <pt x="421" y="195" on="1"/>
        <pt x="421" y="172" on="0"/>
        <pt x="421" y="122" on="0"/>
      </contour>
    </TTGlyph>
    <TTGlyph name="Z" xMin="38" yMin="0" xMax="784" yMax="683">
      <contour>
        <pt x="181" y="86" on="1"/>
        <pt x="196" y="89" on="0"/>
        <pt x="226" y="90" on="0"/>
        <pt x="231" y="90" on="1"/>
        <pt x="270" y="90" on="0"/>
        <pt x="368" y="80" on="0"/>
        <pt x="407" y="75" on="1"/>
        <pt x="461" y="68" on="0"/>
        <pt x="540" y="62" on="0"/>
        <pt x="561" y="62" on="1"/>
        <pt x="568" y="62" on="0"/>
        <pt x="577" y="63" on="0"/>
        <pt x="585" y="67" on="0"/>
        <pt x="593" y="78" on="0"/>
        <pt x="599" y="87" on="1"/>
        <pt x="611" y="106" on="0"/>
        <pt x="623" y="137" on="0"/>
        <pt x="628" y="152" on="1"/>
        <pt x="631" y="161" on="0"/>
        <pt x="653" y="181" on="0"/>
        <pt x="680" y="198" on="0"/>
        <pt x="707" y="208" on="0"/>
        <pt x="715" y="208" on="1"/>
        <pt x="717" y="208" on="0"/>
        <pt x="725" y="207" on="0"/>
        <pt x="725" y="202" on="1"/>
        <pt x="725" y="200" on="0"/>
        <pt x="717" y="172" on="0"/>
        <pt x="697" y="132" on="0"/>
        <pt x="665" y="87" on="0"/>
        <pt x="641" y="67" on="1"/>
        <pt x="610" y="42" on="0"/>
        <pt x="558" y="15" on="0"/>
        <pt x="517" y="2" on="0"/>
        <pt x="487" y="0" on="0"/>
        <pt x="478" y="0" on="1"/>
        <pt x="462" y="0" on="0"/>
        <pt x="421" y="2" on="0"/>
        <pt x="379" y="6" on="0"/>
        <pt x="338" y="11" on="0"/>
        <pt x="320" y="13" on="1"/>
        <pt x="301" y="15" on="0"/>
        <pt x="256" y="21" on="0"/>
        <pt x="210" y="25" on="0"/>
        <pt x="166" y="28" on="0"/>
        <pt x="148" y="28" on="1"/>
        <pt x="131" y="28" on="0"/>
        <pt x="105" y="24" on="0"/>
        <pt x="91" y="16" on="1"/>
        <pt x="73" y="6" on="0"/>
        <pt x="50" y="0" on="0"/>
        <pt x="47" y="0" on="1"/>
        <pt x="44" y="0" on="0"/>
        <pt x="38" y="3" on="0"/>
        <pt x="38" y="6" on="1"/>
        <pt x="38" y="10" on="0"/>
        <pt x="43" y="17" on="0"/>
        <pt x="43" y="18" on="1"/>
        <pt x="46" y="21" on="0"/>
        <pt x="74" y="45" on="0"/>
        <pt x="85" y="54" on="1"/>
        <pt x="267" y="209" on="1"/>
        <pt x="419" y="350" on="1"/>
        <pt x="324" y="350" on="1"/>
        <pt x="310" y="350" on="0"/>
        <pt x="298" y="352" on="0"/>
        <pt x="298" y="359" on="1"/>
        <pt x="298" y="361" on="0"/>
        <pt x="303" y="372" on="0"/>
        <pt x="318" y="385" on="0"/>
        <pt x="344" y="395" on="0"/>
        <pt x="365" y="395" on="1"/>
        <pt x="467" y="395" on="1"/>
        <pt x="498" y="426" on="0"/>
        <pt x="540" y="469" on="0"/>
        <pt x="571" y="502" on="0"/>
        <pt x="594" y="526" on="0"/>
        <pt x="615" y="550" on="0"/>
        <pt x="639" y="577" on="0"/>
        <pt x="656" y="596" on="1"/>
        <pt x="647" y="594" on="0"/>
        <pt x="630" y="593" on="0"/>
        <pt x="621" y="593" on="1"/>
        <pt x="592" y="593" on="0"/>
        <pt x="529" y="602" on="0"/>
        <pt x="508" y="607" on="1"/>
        <pt x="482" y="612" on="0"/>
        <pt x="417" y="621" on="0"/>
        <pt x="390" y="621" on="1"/>
        <pt x="363" y="621" on="0"/>
        <pt x="328" y="613" on="0"/>
        <pt x="307" y="597" on="0"/>
        <pt x="295" y="575" on="0"/>
        <pt x="290" y="560" on="1"/>
        <pt x="287" y="550" on="0"/>
        <pt x="264" y="530" on="0"/>
        <pt x="237" y="514" on="0"/>
        <pt x="210" y="504" on="0"/>
        <pt x="203" y="504" on="1"/>
        <pt x="195" y="504" on="0"/>
        <pt x="193" y="509" on="0"/>
        <pt x="193" y="510" on="1"/>
        <pt x="193" y="515" on="0"/>
        <pt x="209" y="553" on="0"/>
        <pt x="227" y="574" on="1"/>
        <pt x="241" y="589" on="0"/>
        <pt x="289" y="627" on="0"/>
        <pt x="354" y="660" on="0"/>
        <pt x="431" y="683" on="0"/>
        <pt x="473" y="683" on="1"/>
        <pt x="500" y="683" on="0"/>
        <pt x="554" y="676" on="0"/>
        <pt x="589" y="669" on="1"/>
        <pt x="613" y="665" on="0"/>
        <pt x="649" y="659" on="0"/>
        <pt x="678" y="656" on="0"/>
        <pt x="701" y="655" on="0"/>
        <pt x="713" y="655" on="1"/>
        <pt x="737" y="672" on="0"/>
        <pt x="770" y="683" on="0"/>
        <pt x="775" y="683" on="1"/>
        <pt x="778" y="683" on="0"/>
        <pt x="784" y="680" on="0"/>
        <pt x="784" y="677" on="1"/>
        <pt x="784" y="674" on="0"/>
        <pt x="755" y="638" on="0"/>
        <pt x="709" y="587" on="0"/>
        <pt x="652" y="525" on="0"/>
        <pt x="596" y="466" on="0"/>
        <pt x="545" y="416" on="0"/>
        <pt x="529" y="401" on="1"/>
        <pt x="528" y="399" on="0"/>
        <pt x="526" y="398" on="0"/>
        <pt x="526" y="396" on="1"/>
        <pt x="526" y="395" on="0"/>
        <pt x="545" y="394" on="0"/>
        <pt x="547" y="394" on="1"/>
        <pt x="555" y="394" on="0"/>
        <pt x="577" y="391" on="0"/>
        <pt x="597" y="384" on="0"/>
        <pt x="611" y="372" on="0"/>
        <pt x="611" y="362" on="1"/>
        <pt x="611" y="355" on="0"/>
        <pt x="600" y="340" on="0"/>
        <pt x="584" y="330" on="0"/>
        <pt x="567" y="323" on="0"/>
        <pt x="560" y="323" on="1"/>
        <pt x="553" y="323" on="0"/>
        <pt x="549" y="327" on="0"/>
        <pt x="548" y="331" on="1"/>
        <pt x="547" y="335" on="0"/>
        <pt x="544" y="341" on="0"/>
        <pt x="530" y="346" on="0"/>
        <pt x="502" y="349" on="0"/>
        <pt x="476" y="350" on="1"/>
      </contour>
    </TTGlyph>
    <TTGlyph name="angbracketleft" xMin="113" yMin="-249" xMax="342" yMax="750">
      <contour>
        <pt x="158" y="250" on="1"/>
        <pt x="336" y="-209" on="1"/>
        <pt x="341" y="-220" on="0"/>
        <pt x="342" y="-225" on="0"/>
        <pt x="342" y="-227" on="1"/>
        <pt x="342" y="-237" on="0"/>
        <pt x="329" y="-249" on="0"/>
        <pt x="321" y="-249" on="1"/>
        <pt x="310" y="-249" on="0"/>
        <pt x="300" y="-233" on="0"/>
        <pt x="296" y="-224" on="1"/>
        <pt x="119" y="232" on="1"/>
        <pt x="114" y="243" on="0"/>
        <pt x="113" y="249" on="0"/>
        <pt x="113" y="251" on="1"/>
        <pt x="113" y="253" on="0"/>
        <pt x="114" y="258" on="0"/>
        <pt x="119" y="269" on="1"/>
        <pt x="302" y="740" on="1"/>
        <pt x="303" y="742" on="0"/>
        <pt x="310" y="750" on="0"/>
        <pt x="321" y="750" on="1"/>
        <pt x="329" y="750" on="0"/>
        <pt x="342" y="738" on="0"/>
        <pt x="342" y="728" on="1"/>
        <pt x="342" y="726" on="0"/>
        <pt x="341" y="721" on="0"/>
        <pt x="336" y="710" on="1"/>
      </contour>
    </TTGlyph>
    <TTGlyph name="angbracketright" xMin="57" yMin="-249" xMax="286" yMax="750">
      <contour>
        <pt x="103" y="-225" on="1"/>
        <pt x="98" y="-239" on="0"/>
        <pt x="87" y="-249" on="0"/>
        <pt x="78" y="-249" on="1"/>
        <pt x="70" y="-249" on="0"/>
        <pt x="57" y="-237" on="0"/>
        <pt x="57" y="-227" on="1"/>
        <pt x="57" y="-225" on="0"/>
        <pt x="58" y="-220" on="0"/>
        <pt x="63" y="-209" on="1"/>
        <pt x="241" y="251" on="1"/>
        <pt x="63" y="710" on="1"/>
        <pt x="58" y="721" on="0"/>
        <pt x="57" y="726" on="0"/>
        <pt x="57" y="728" on="1"/>
        <pt x="57" y="738" on="0"/>
        <pt x="70" y="750" on="0"/>
        <pt x="78" y="750" on="1"/>
        <pt x="87" y="750" on="0"/>
        <pt x="98" y="740" on="0"/>
        <pt x="103" y="726" on="1"/>
        <pt x="280" y="269" on="1"/>
        <pt x="285" y="258" on="0"/>
        <pt x="286" y="252" on="0"/>
        <pt x="286" y="250" on="1"/>
        <pt x="286" y="248" on="0"/>
        <pt x="285" y="243" on="0"/>
        <pt x="280" y="232" on="1"/>
      </contour>
    </TTGlyph>
    <TTGlyph name="approxequal" xMin="57" yMin="48" xMax="741" yMax="494">
      <contour>
        <pt x="741" y="460" on="1"/>
        <pt x="741" y="426" on="0"/>
        <pt x="716" y="365" on="0"/>
        <pt x="670" y="319" on="0"/>
        <pt x="608" y="291" on="0"/>
        <pt x="570" y="291" on="1"/>
        <pt x="523" y="291" on="0"/>
        <pt x="441" y="332" on="0"/>
        <pt x="392" y="366" on="1"/>
        <pt x="348" y="395" on="0"/>
        <pt x="270" y="434" on="0"/>
        <pt x="228" y="434" on="1"/>
        <pt x="202" y="434" on="0"/>
        <pt x="153" y="418" on="0"/>
        <pt x="136" y="404" on="1"/>
        <pt x="119" y="392" on="0"/>
        <pt x="99" y="367" on="0"/>
        <pt x="90" y="344" on="0"/>
        <pt x="87" y="324" on="0"/>
        <pt x="87" y="316" on="1"/>
        <pt x="86" y="311" on="0"/>
        <pt x="80" y="292" on="0"/>
        <pt x="72" y="292" on="1"/>
        <pt x="67" y="292" on="0"/>
        <pt x="57" y="305" on="0"/>
        <pt x="57" y="325" on="1"/>
        <pt x="57" y="359" on="0"/>
        <pt x="82" y="420" on="0"/>
        <pt x="128" y="467" on="0"/>
        <pt x="191" y="494" on="0"/>
        <pt x="228" y="494" on="1"/>
        <pt x="276" y="494" on="0"/>
        <pt x="358" y="452" on="0"/>
        <pt x="405" y="420" on="1"/>
        <pt x="450" y="389" on="0"/>
        <pt x="528" y="351" on="0"/>
        <pt x="570" y="351" on="1"/>
        <pt x="596" y="351" on="0"/>
        <pt x="645" y="367" on="0"/>
        <pt x="662" y="381" on="1"/>
        <pt x="679" y="393" on="0"/>
        <pt x="698" y="418" on="0"/>
        <pt x="707" y="440" on="0"/>
        <pt x="710" y="460" on="0"/>
        <pt x="711" y="469" on="1"/>
        <pt x="712" y="472" on="0"/>
        <pt x="718" y="493" on="0"/>
        <pt x="726" y="493" on="1"/>
        <pt x="731" y="493" on="0"/>
        <pt x="741" y="480" on="0"/>
      </contour>
      <contour>
        <pt x="741" y="217" on="1"/>
        <pt x="741" y="184" on="0"/>
        <pt x="716" y="122" on="0"/>
        <pt x="671" y="76" on="0"/>
        <pt x="608" y="48" on="0"/>
        <pt x="570" y="48" on="1"/>
        <pt x="523" y="48" on="0"/>
        <pt x="441" y="89" on="0"/>
        <pt x="392" y="123" on="1"/>
        <pt x="348" y="152" on="0"/>
        <pt x="270" y="191" on="0"/>
        <pt x="228" y="191" on="1"/>
        <pt x="202" y="191" on="0"/>
        <pt x="153" y="175" on="0"/>
        <pt x="136" y="161" on="1"/>
        <pt x="119" y="149" on="0"/>
        <pt x="99" y="124" on="0"/>
        <pt x="90" y="101" on="0"/>
        <pt x="87" y="81" on="0"/>
        <pt x="87" y="73" on="1"/>
        <pt x="86" y="68" on="0"/>
        <pt x="80" y="49" on="0"/>
        <pt x="72" y="49" on="1"/>
        <pt x="67" y="49" on="0"/>
        <pt x="57" y="62" on="0"/>
        <pt x="57" y="82" on="1"/>
        <pt x="57" y="116" on="0"/>
        <pt x="82" y="177" on="0"/>
        <pt x="128" y="224" on="0"/>
        <pt x="191" y="251" on="0"/>
        <pt x="228" y="251" on="1"/>
        <pt x="276" y="251" on="0"/>
        <pt x="358" y="209" on="0"/>
        <pt x="405" y="177" on="1"/>
        <pt x="450" y="146" on="0"/>
        <pt x="528" y="108" on="0"/>
        <pt x="570" y="108" on="1"/>
        <pt x="594" y="108" on="0"/>
        <pt x="642" y="123" on="0"/>
        <pt x="662" y="138" on="1"/>
        <pt x="679" y="150" on="0"/>
        <pt x="698" y="175" on="0"/>
        <pt x="707" y="197" on="0"/>
        <pt x="710" y="217" on="0"/>
        <pt x="711" y="226" on="1"/>
        <pt x="712" y="229" on="0"/>
        <pt x="718" y="250" on="0"/>
        <pt x="726" y="250" on="1"/>
        <pt x="731" y="250" on="0"/>
        <pt x="741" y="235" on="0"/>
      </contour>
    </TTGlyph>
    <TTGlyph name="arrowboth" xMin="57" yMin="-12" xMax="970" yMax="513">
      <contour>
        <pt x="851" y="272" on="1"/>
        <pt x="806" y="304" on="0"/>
        <pt x="751" y="379" on="0"/>
        <pt x="719" y="447" on="0"/>
        <pt x="708" y="495" on="0"/>
        <pt x="708" y="499" on="1"/>
        <pt x="708" y="510" on="0"/>
        <pt x="722" y="513" on="0"/>
        <pt x="729" y="513" on="1"/>
        <pt x="740" y="513" on="0"/>
        <pt x="749" y="509" on="0"/>
        <pt x="751" y="498" on="1"/>
        <pt x="760" y="461" on="0"/>
        <pt x="791" y="392" on="0"/>
        <pt x="840" y="332" on="0"/>
        <pt x="910" y="282" on="0"/>
        <pt x="957" y="264" on="1"/>
        <pt x="962" y="262" on="0"/>
        <pt x="970" y="257" on="0"/>
        <pt x="970" y="250" on="1"/>
        <pt x="970" y="244" on="0"/>
        <pt x="961" y="239" on="0"/>
        <pt x="956" y="237" on="1"/>
        <pt x="791" y="177" on="0"/>
        <pt x="751" y="1" on="1"/>
        <pt x="749" y="-9" on="0"/>
        <pt x="738" y="-12" on="0"/>
        <pt x="729" y="-12" on="1"/>
        <pt x="723" y="-12" on="0"/>
        <pt x="708" y="-9" on="0"/>
        <pt x="708" y="2" on="1"/>
        <pt x="708" y="6" on="0"/>
        <pt x="719" y="54" on="0"/>
        <pt x="751" y="121" on="0"/>
        <pt x="806" y="197" on="0"/>
        <pt x="851" y="229" on="1"/>
        <pt x="176" y="229" on="1"/>
        <pt x="221" y="198" on="0"/>
        <pt x="276" y="122" on="0"/>
        <pt x="308" y="54" on="0"/>
        <pt x="319" y="6" on="0"/>
        <pt x="319" y="2" on="1"/>
        <pt x="319" y="-9" on="0"/>
        <pt x="305" y="-12" on="0"/>
        <pt x="298" y="-12" on="1"/>
        <pt x="287" y="-12" on="0"/>
        <pt x="278" y="-8" on="0"/>
        <pt x="276" y="3" on="1"/>
        <pt x="267" y="40" on="0"/>
        <pt x="236" y="109" on="0"/>
        <pt x="187" y="169" on="0"/>
        <pt x="117" y="219" on="0"/>
        <pt x="70" y="237" on="1"/>
        <pt x="65" y="239" on="0"/>
        <pt x="57" y="244" on="0"/>
        <pt x="57" y="251" on="1"/>
        <pt x="57" y="257" on="0"/>
        <pt x="66" y="262" on="0"/>
        <pt x="71" y="264" on="1"/>
        <pt x="236" y="324" on="0"/>
        <pt x="276" y="500" on="1"/>
        <pt x="278" y="510" on="0"/>
        <pt x="289" y="513" on="0"/>
        <pt x="298" y="513" on="1"/>
        <pt x="304" y="513" on="0"/>
        <pt x="319" y="510" on="0"/>
        <pt x="319" y="499" on="1"/>
        <pt x="319" y="495" on="0"/>
        <pt x="308" y="447" on="0"/>
        <pt x="276" y="380" on="0"/>
        <pt x="221" y="304" on="0"/>
        <pt x="176" y="272" on="1"/>
      </contour>
    </TTGlyph>
    <TTGlyph name="arrowbothv" xMin="16" yMin="-272" xMax="497" yMax="772">
      <contour>
        <pt x="278" y="-129" on="1"/>
        <pt x="279" y="-128" on="0"/>
        <pt x="291" y="-110" on="0"/>
        <pt x="312" y="-86" on="0"/>
        <pt x="340" y="-58" on="0"/>
        <pt x="357" y="-46" on="1"/>
        <pt x="380" y="-29" on="0"/>
        <pt x="424" y="-7" on="0"/>
        <pt x="460" y="6" on="0"/>
        <pt x="483" y="11" on="0"/>
        <pt x="484" y="11" on="1"/>
        <pt x="494" y="11" on="0"/>
        <pt x="497" y="-3" on="0"/>
        <pt x="497" y="-10" on="1"/>
        <pt x="497" y="-24" on="0"/>
        <pt x="491" y="-29" on="0"/>
        <pt x="477" y="-33" on="1"/>
        <pt x="389" y="-57" on="0"/>
        <pt x="288" y="-173" on="0"/>
        <pt x="269" y="-261" on="1"/>
        <pt x="269" y="-262" on="0"/>
        <pt x="264" y="-272" on="0"/>
        <pt x="256" y="-272" on="1"/>
        <pt x="248" y="-272" on="0"/>
        <pt x="244" y="-262" on="1"/>
        <pt x="240" y="-244" on="0"/>
        <pt x="221" y="-181" on="0"/>
        <pt x="175" y="-113" on="0"/>
        <pt x="95" y="-49" on="0"/>
        <pt x="29" y="-31" on="1"/>
        <pt x="19" y="-29" on="0"/>
        <pt x="16" y="-19" on="0"/>
        <pt x="16" y="-10" on="1"/>
        <pt x="16" y="-3" on="0"/>
        <pt x="19" y="11" on="0"/>
        <pt x="29" y="11" on="1"/>
        <pt x="31" y="11" on="0"/>
        <pt x="54" y="6" on="0"/>
        <pt x="89" y="-7" on="0"/>
        <pt x="133" y="-28" on="0"/>
        <pt x="155" y="-44" on="1"/>
        <pt x="163" y="-51" on="0"/>
        <pt x="211" y="-93" on="0"/>
        <pt x="235" y="-129" on="1"/>
        <pt x="235" y="629" on="1"/>
        <pt x="234" y="628" on="0"/>
        <pt x="222" y="610" on="0"/>
        <pt x="201" y="586" on="0"/>
        <pt x="173" y="558" on="0"/>
        <pt x="156" y="546" on="1"/>
        <pt x="133" y="529" on="0"/>
        <pt x="89" y="507" on="0"/>
        <pt x="53" y="494" on="0"/>
        <pt x="31" y="489" on="0"/>
        <pt x="29" y="489" on="1"/>
        <pt x="19" y="489" on="0"/>
        <pt x="16" y="503" on="0"/>
        <pt x="16" y="510" on="1"/>
        <pt x="16" y="524" on="0"/>
        <pt x="22" y="529" on="0"/>
        <pt x="36" y="533" on="1"/>
        <pt x="124" y="557" on="0"/>
        <pt x="225" y="673" on="0"/>
        <pt x="244" y="761" on="1"/>
        <pt x="244" y="762" on="0"/>
        <pt x="249" y="772" on="0"/>
        <pt x="257" y="772" on="1"/>
        <pt x="265" y="772" on="0"/>
        <pt x="269" y="762" on="1"/>
        <pt x="273" y="744" on="0"/>
        <pt x="292" y="681" on="0"/>
        <pt x="338" y="613" on="0"/>
        <pt x="418" y="549" on="0"/>
        <pt x="484" y="531" on="1"/>
        <pt x="494" y="529" on="0"/>
        <pt x="497" y="519" on="0"/>
        <pt x="497" y="510" on="1"/>
        <pt x="497" y="503" on="0"/>
        <pt x="494" y="489" on="0"/>
        <pt x="484" y="489" on="1"/>
        <pt x="482" y="489" on="0"/>
        <pt x="459" y="494" on="0"/>
        <pt x="424" y="507" on="0"/>
        <pt x="380" y="528" on="0"/>
        <pt x="358" y="544" on="1"/>
        <pt x="350" y="551" on="0"/>
        <pt x="302" y="593" on="0"/>
        <pt x="278" y="629" on="1"/>
      </contour>
    </TTGlyph>
    <TTGlyph name="arrowdblboth" xMin="35" yMin="-30" xMax="992" yMax="531">
      <contour>
        <pt x="758" y="374" on="1"/>
        <pt x="737" y="398" on="0"/>
        <pt x="706" y="447" on="0"/>
        <pt x="684" y="488" on="0"/>
        <pt x="673" y="515" on="0"/>
        <pt x="673" y="518" on="1"/>
        <pt x="673" y="528" on="0"/>
        <pt x="687" y="531" on="0"/>
        <pt x="694" y="531" on="1"/>
        <pt x="702" y="531" on="0"/>
        <pt x="712" y="529" on="0"/>
        <pt x="715" y="522" on="1"/>
        <pt x="757" y="428" on="0"/>
        <pt x="881" y="304" on="0"/>
        <pt x="976" y="265" on="1"/>
        <pt x="984" y="262" on="0"/>
        <pt x="992" y="257" on="0"/>
        <pt x="992" y="250" on="1"/>
        <pt x="992" y="244" on="0"/>
        <pt x="983" y="239" on="0"/>
        <pt x="972" y="234" on="1"/>
        <pt x="923" y="213" on="0"/>
        <pt x="843" y="159" on="0"/>
        <pt x="782" y="96" on="0"/>
        <pt x="737" y="28" on="0"/>
        <pt x="722" y="-6" on="1"/>
        <pt x="715" y="-20" on="0"/>
        <pt x="712" y="-26" on="0"/>
        <pt x="710" y="-27" on="1"/>
        <pt x="708" y="-29" on="0"/>
        <pt x="702" y="-30" on="0"/>
        <pt x="694" y="-30" on="1"/>
        <pt x="687" y="-30" on="0"/>
        <pt x="673" y="-27" on="0"/>
        <pt x="673" y="-17" on="1"/>
        <pt x="673" y="-14" on="0"/>
        <pt x="684" y="13" on="0"/>
        <pt x="706" y="54" on="0"/>
        <pt x="738" y="103" on="0"/>
        <pt x="758" y="127" on="1"/>
        <pt x="269" y="127" on="1"/>
        <pt x="290" y="103" on="0"/>
        <pt x="321" y="54" on="0"/>
        <pt x="343" y="13" on="0"/>
        <pt x="354" y="-14" on="0"/>
        <pt x="354" y="-17" on="1"/>
        <pt x="354" y="-27" on="0"/>
        <pt x="340" y="-30" on="0"/>
        <pt x="333" y="-30" on="1"/>
        <pt x="325" y="-30" on="0"/>
        <pt x="315" y="-28" on="0"/>
        <pt x="312" y="-21" on="1"/>
        <pt x="270" y="73" on="0"/>
        <pt x="146" y="197" on="0"/>
        <pt x="51" y="236" on="1"/>
        <pt x="43" y="239" on="0"/>
        <pt x="35" y="244" on="0"/>
        <pt x="35" y="251" on="1"/>
        <pt x="35" y="257" on="0"/>
        <pt x="44" y="262" on="0"/>
        <pt x="55" y="267" on="1"/>
        <pt x="105" y="288" on="0"/>
        <pt x="184" y="342" on="0"/>
        <pt x="245" y="405" on="0"/>
        <pt x="290" y="473" on="0"/>
        <pt x="305" y="507" on="1"/>
        <pt x="312" y="521" on="0"/>
        <pt x="315" y="527" on="0"/>
        <pt x="317" y="528" on="1"/>
        <pt x="319" y="530" on="0"/>
        <pt x="325" y="531" on="0"/>
        <pt x="333" y="531" on="1"/>
        <pt x="340" y="531" on="0"/>
        <pt x="354" y="528" on="0"/>
        <pt x="354" y="518" on="1"/>
        <pt x="354" y="515" on="0"/>
        <pt x="343" y="488" on="0"/>
        <pt x="321" y="447" on="0"/>
        <pt x="289" y="398" on="0"/>
        <pt x="269" y="374" on="1"/>
      </contour>
      <contour>
        <pt x="779" y="170" on="1"/>
        <pt x="793" y="170" on="0"/>
        <pt x="802" y="172" on="0"/>
        <pt x="809" y="179" on="1"/>
        <pt x="829" y="197" on="0"/>
        <pt x="884" y="237" on="0"/>
        <pt x="910" y="251" on="1"/>
        <pt x="877" y="268" on="0"/>
        <pt x="823" y="309" on="0"/>
        <pt x="806" y="324" on="1"/>
        <pt x="801" y="329" on="0"/>
        <pt x="793" y="331" on="0"/>
        <pt x="779" y="331" on="1"/>
        <pt x="248" y="331" on="1"/>
        <pt x="234" y="331" on="0"/>
        <pt x="225" y="329" on="0"/>
        <pt x="218" y="322" on="1"/>
        <pt x="198" y="304" on="0"/>
        <pt x="143" y="264" on="0"/>
        <pt x="117" y="250" on="1"/>
        <pt x="150" y="233" on="0"/>
        <pt x="204" y="192" on="0"/>
        <pt x="221" y="177" on="1"/>
        <pt x="226" y="172" on="0"/>
        <pt x="234" y="170" on="0"/>
        <pt x="248" y="170" on="1"/>
      </contour>
    </TTGlyph>
    <TTGlyph name="arrowdblbothv" xMin="28" yMin="-272" xMax="599" yMax="772">
      <contour>
        <pt x="437" y="-46" on="1"/>
        <pt x="461" y="-25" on="0"/>
        <pt x="512" y="6" on="0"/>
        <pt x="554" y="28" on="0"/>
        <pt x="583" y="39" on="0"/>
        <pt x="586" y="39" on="1"/>
        <pt x="596" y="39" on="0"/>
        <pt x="599" y="23" on="0"/>
        <pt x="599" y="18" on="1"/>
        <pt x="599" y="5" on="0"/>
        <pt x="593" y="-1" on="0"/>
        <pt x="587" y="-4" on="1"/>
        <pt x="537" y="-25" on="0"/>
        <pt x="457" y="-79" on="0"/>
        <pt x="395" y="-142" on="0"/>
        <pt x="347" y="-216" on="0"/>
        <pt x="328" y="-258" on="1"/>
        <pt x="325" y="-264" on="0"/>
        <pt x="320" y="-272" on="0"/>
        <pt x="313" y="-272" on="1"/>
        <pt x="305" y="-272" on="0"/>
        <pt x="297" y="-253" on="1"/>
        <pt x="254" y="-158" on="0"/>
        <pt x="124" y="-40" on="0"/>
        <pt x="51" y="-9" on="1"/>
        <pt x="35" y="-2" on="0"/>
        <pt x="28" y="6" on="0"/>
        <pt x="28" y="18" on="1"/>
        <pt x="28" y="23" on="0"/>
        <pt x="31" y="39" on="0"/>
        <pt x="41" y="39" on="1"/>
        <pt x="44" y="39" on="0"/>
        <pt x="73" y="28" on="0"/>
        <pt x="116" y="6" on="0"/>
        <pt x="166" y="-26" on="0"/>
        <pt x="190" y="-46" on="1"/>
        <pt x="190" y="546" on="1"/>
        <pt x="166" y="525" on="0"/>
        <pt x="115" y="494" on="0"/>
        <pt x="73" y="472" on="0"/>
        <pt x="44" y="461" on="0"/>
        <pt x="41" y="461" on="1"/>
        <pt x="31" y="461" on="0"/>
        <pt x="28" y="477" on="0"/>
        <pt x="28" y="482" on="1"/>
        <pt x="28" y="495" on="0"/>
        <pt x="34" y="501" on="0"/>
        <pt x="40" y="504" on="1"/>
        <pt x="90" y="525" on="0"/>
        <pt x="170" y="579" on="0"/>
        <pt x="232" y="642" on="0"/>
        <pt x="280" y="716" on="0"/>
        <pt x="299" y="758" on="1"/>
        <pt x="302" y="764" on="0"/>
        <pt x="307" y="772" on="0"/>
        <pt x="314" y="772" on="1"/>
        <pt x="322" y="772" on="0"/>
        <pt x="330" y="753" on="1"/>
        <pt x="373" y="658" on="0"/>
        <pt x="503" y="540" on="0"/>
        <pt x="576" y="509" on="1"/>
        <pt x="593" y="502" on="0"/>
        <pt x="599" y="494" on="0"/>
        <pt x="599" y="482" on="1"/>
        <pt x="599" y="477" on="0"/>
        <pt x="596" y="461" on="0"/>
        <pt x="586" y="461" on="1"/>
        <pt x="583" y="461" on="0"/>
        <pt x="554" y="472" on="0"/>
        <pt x="511" y="494" on="0"/>
        <pt x="461" y="526" on="0"/>
        <pt x="437" y="546" on="1"/>
      </contour>
      <contour>
        <pt x="233" y="-86" on="1"/>
        <pt x="242" y="-95" on="0"/>
        <pt x="287" y="-148" on="0"/>
        <pt x="314" y="-193" on="1"/>
        <pt x="328" y="-167" on="0"/>
        <pt x="368" y="-113" on="0"/>
        <pt x="394" y="-86" on="1"/>
        <pt x="394" y="586" on="1"/>
        <pt x="385" y="595" on="0"/>
        <pt x="340" y="648" on="0"/>
        <pt x="313" y="693" on="1"/>
        <pt x="299" y="667" on="0"/>
        <pt x="259" y="613" on="0"/>
        <pt x="233" y="586" on="1"/>
      </contour>
    </TTGlyph>
    <TTGlyph name="arrowdbldown" xMin="28" yMin="-194" xMax="599" yMax="694">
      <contour>
        <pt x="437" y="75" on="1"/>
        <pt x="458" y="95" on="0"/>
        <pt x="506" y="130" on="0"/>
        <pt x="549" y="157" on="0"/>
        <pt x="582" y="173" on="0"/>
        <pt x="586" y="173" on="1"/>
        <pt x="596" y="173" on="0"/>
        <pt x="599" y="157" on="0"/>
        <pt x="599" y="152" on="1"/>
        <pt x="599" y="140" on="0"/>
        <pt x="594" y="133" on="0"/>
        <pt x="583" y="128" on="1"/>
        <pt x="522" y="97" on="0"/>
        <pt x="435" y="20" on="0"/>
        <pt x="375" y="-62" on="0"/>
        <pt x="338" y="-145" on="0"/>
        <pt x="326" y="-182" on="1"/>
        <pt x="325" y="-184" on="0"/>
        <pt x="321" y="-194" on="0"/>
        <pt x="313" y="-194" on="1"/>
        <pt x="306" y="-194" on="0"/>
        <pt x="302" y="-184" on="0"/>
        <pt x="301" y="-181" on="1"/>
        <pt x="266" y="-65" on="0"/>
        <pt x="132" y="83" on="0"/>
        <pt x="37" y="131" on="1"/>
        <pt x="30" y="134" on="0"/>
        <pt x="28" y="146" on="0"/>
        <pt x="28" y="152" on="1"/>
        <pt x="28" y="157" on="0"/>
        <pt x="31" y="173" on="0"/>
        <pt x="41" y="173" on="1"/>
        <pt x="46" y="173" on="0"/>
        <pt x="77" y="157" on="0"/>
        <pt x="121" y="130" on="0"/>
        <pt x="169" y="95" on="0"/>
        <pt x="190" y="75" on="1"/>
        <pt x="190" y="654" on="1"/>
        <pt x="190" y="667" on="0"/>
        <pt x="196" y="694" on="0"/>
        <pt x="212" y="694" on="1"/>
        <pt x="228" y="694" on="0"/>
        <pt x="233" y="670" on="0"/>
        <pt x="233" y="659" on="1"/>
        <pt x="233" y="28" on="1"/>
        <pt x="265" y="-10" on="0"/>
        <pt x="305" y="-81" on="0"/>
        <pt x="314" y="-101" on="1"/>
        <pt x="329" y="-66" on="0"/>
        <pt x="371" y="1" on="0"/>
        <pt x="394" y="28" on="1"/>
        <pt x="394" y="659" on="1"/>
        <pt x="394" y="670" on="0"/>
        <pt x="399" y="694" on="0"/>
        <pt x="415" y="694" on="1"/>
        <pt x="423" y="694" on="0"/>
        <pt x="432" y="686" on="0"/>
        <pt x="436" y="674" on="0"/>
        <pt x="437" y="660" on="0"/>
        <pt x="437" y="654" on="1"/>
      </contour>
    </TTGlyph>
    <TTGlyph name="arrowdblleft" xMin="57" yMin="-30" xMax="970" yMax="531">
      <contour>
        <pt x="335" y="127" on="1"/>
        <pt x="359" y="102" on="0"/>
        <pt x="396" y="52" on="0"/>
        <pt x="420" y="13" on="0"/>
        <pt x="433" y="-14" on="0"/>
        <pt x="433" y="-17" on="1"/>
        <pt x="433" y="-27" on="0"/>
        <pt x="419" y="-30" on="0"/>
        <pt x="412" y="-30" on="1"/>
        <pt x="400" y="-30" on="0"/>
        <pt x="393" y="-24" on="0"/>
        <pt x="385" y="-10" on="1"/>
        <pt x="360" y="38" on="0"/>
        <pt x="301" y="108" on="0"/>
        <pt x="273" y="132" on="1"/>
        <pt x="241" y="159" on="0"/>
        <pt x="182" y="195" on="0"/>
        <pt x="131" y="219" on="0"/>
        <pt x="86" y="233" on="0"/>
        <pt x="68" y="238" on="1"/>
        <pt x="66" y="239" on="0"/>
        <pt x="57" y="243" on="0"/>
        <pt x="57" y="251" on="1"/>
        <pt x="57" y="254" on="0"/>
        <pt x="62" y="261" on="0"/>
        <pt x="68" y="263" on="1"/>
        <pt x="116" y="277" on="0"/>
        <pt x="206" y="317" on="0"/>
        <pt x="288" y="378" on="0"/>
        <pt x="360" y="464" on="0"/>
        <pt x="390" y="522" on="1"/>
        <pt x="394" y="529" on="0"/>
        <pt x="403" y="531" on="0"/>
        <pt x="412" y="531" on="1"/>
        <pt x="419" y="531" on="0"/>
        <pt x="433" y="528" on="0"/>
        <pt x="433" y="518" on="1"/>
        <pt x="433" y="515" on="0"/>
        <pt x="420" y="488" on="0"/>
        <pt x="395" y="448" on="0"/>
        <pt x="359" y="399" on="0"/>
        <pt x="335" y="374" on="1"/>
        <pt x="930" y="374" on="1"/>
        <pt x="937" y="374" on="0"/>
        <pt x="951" y="373" on="0"/>
        <pt x="963" y="369" on="0"/>
        <pt x="970" y="360" on="0"/>
        <pt x="970" y="352" on="1"/>
        <pt x="970" y="336" on="0"/>
        <pt x="947" y="331" on="0"/>
        <pt x="935" y="331" on="1"/>
        <pt x="287" y="331" on="1"/>
        <pt x="253" y="302" on="0"/>
        <pt x="186" y="264" on="0"/>
        <pt x="154" y="250" on="1"/>
        <pt x="179" y="240" on="0"/>
        <pt x="249" y="203" on="0"/>
        <pt x="287" y="170" on="1"/>
        <pt x="935" y="170" on="1"/>
        <pt x="947" y="170" on="0"/>
        <pt x="970" y="165" on="0"/>
        <pt x="970" y="149" on="1"/>
        <pt x="970" y="133" on="0"/>
        <pt x="944" y="127" on="0"/>
        <pt x="930" y="127" on="1"/>
      </contour>
    </TTGlyph>
    <TTGlyph name="arrowdblright" xMin="57" yMin="-30" xMax="970" yMax="531">
      <contour>
        <pt x="92" y="331" on="1"/>
        <pt x="81" y="331" on="0"/>
        <pt x="57" y="336" on="0"/>
        <pt x="57" y="352" on="1"/>
        <pt x="57" y="369" on="0"/>
        <pt x="84" y="374" on="0"/>
        <pt x="97" y="374" on="1"/>
        <pt x="692" y="374" on="1"/>
        <pt x="668" y="400" on="0"/>
        <pt x="631" y="449" on="0"/>
        <pt x="607" y="488" on="0"/>
        <pt x="594" y="515" on="0"/>
        <pt x="594" y="518" on="1"/>
        <pt x="594" y="528" on="0"/>
        <pt x="608" y="531" on="0"/>
        <pt x="615" y="531" on="1"/>
        <pt x="627" y="531" on="0"/>
        <pt x="634" y="525" on="0"/>
        <pt x="642" y="511" on="1"/>
        <pt x="667" y="463" on="0"/>
        <pt x="726" y="393" on="0"/>
        <pt x="754" y="369" on="1"/>
        <pt x="786" y="342" on="0"/>
        <pt x="845" y="306" on="0"/>
        <pt x="896" y="282" on="0"/>
        <pt x="941" y="268" on="0"/>
        <pt x="959" y="263" on="1"/>
        <pt x="961" y="262" on="0"/>
        <pt x="970" y="258" on="0"/>
        <pt x="970" y="250" on="1"/>
        <pt x="970" y="247" on="0"/>
        <pt x="965" y="240" on="0"/>
        <pt x="959" y="238" on="1"/>
        <pt x="911" y="225" on="0"/>
        <pt x="821" y="184" on="0"/>
        <pt x="739" y="123" on="0"/>
        <pt x="667" y="38" on="0"/>
        <pt x="637" y="-21" on="1"/>
        <pt x="633" y="-28" on="0"/>
        <pt x="624" y="-30" on="0"/>
        <pt x="615" y="-30" on="1"/>
        <pt x="608" y="-30" on="0"/>
        <pt x="594" y="-27" on="0"/>
        <pt x="594" y="-17" on="1"/>
        <pt x="594" y="-14" on="0"/>
        <pt x="607" y="13" on="0"/>
        <pt x="632" y="53" on="0"/>
        <pt x="668" y="102" on="0"/>
        <pt x="692" y="127" on="1"/>
        <pt x="97" y="127" on="1"/>
        <pt x="90" y="127" on="0"/>
        <pt x="76" y="128" on="0"/>
        <pt x="64" y="132" on="0"/>
        <pt x="57" y="141" on="0"/>
        <pt x="57" y="149" on="1"/>
        <pt x="57" y="165" on="0"/>
        <pt x="81" y="170" on="0"/>
        <pt x="92" y="170" on="1"/>
        <pt x="740" y="170" on="1"/>
        <pt x="774" y="199" on="0"/>
        <pt x="841" y="237" on="0"/>
        <pt x="873" y="251" on="1"/>
        <pt x="848" y="261" on="0"/>
        <pt x="778" y="298" on="0"/>
        <pt x="740" y="331" on="1"/>
      </contour>
    </TTGlyph>
    <TTGlyph name="arrowdblup" xMin="28" yMin="-194" xMax="599" yMax="694">
      <contour>
        <pt x="437" y="-154" on="1"/>
        <pt x="437" y="-160" on="0"/>
        <pt x="436" y="-174" on="0"/>
        <pt x="432" y="-186" on="0"/>
        <pt x="423" y="-194" on="0"/>
        <pt x="415" y="-194" on="1"/>
        <pt x="399" y="-194" on="0"/>
        <pt x="394" y="-170" on="0"/>
        <pt x="394" y="-159" on="1"/>
        <pt x="394" y="472" on="1"/>
        <pt x="362" y="510" on="0"/>
        <pt x="322" y="581" on="0"/>
        <pt x="313" y="601" on="1"/>
        <pt x="298" y="566" on="0"/>
        <pt x="256" y="499" on="0"/>
        <pt x="233" y="472" on="1"/>
        <pt x="233" y="-159" on="1"/>
        <pt x="233" y="-170" on="0"/>
        <pt x="228" y="-194" on="0"/>
        <pt x="212" y="-194" on="1"/>
        <pt x="196" y="-194" on="0"/>
        <pt x="190" y="-167" on="0"/>
        <pt x="190" y="-154" on="1"/>
        <pt x="190" y="425" on="1"/>
        <pt x="169" y="405" on="0"/>
        <pt x="121" y="370" on="0"/>
        <pt x="78" y="343" on="0"/>
        <pt x="46" y="327" on="0"/>
        <pt x="41" y="327" on="1"/>
        <pt x="31" y="327" on="0"/>
        <pt x="28" y="343" on="0"/>
        <pt x="28" y="348" on="1"/>
        <pt x="28" y="360" on="0"/>
        <pt x="33" y="367" on="0"/>
        <pt x="44" y="372" on="1"/>
        <pt x="106" y="404" on="0"/>
        <pt x="192" y="480" on="0"/>
        <pt x="252" y="562" on="0"/>
        <pt x="289" y="645" on="0"/>
        <pt x="301" y="682" on="1"/>
        <pt x="302" y="684" on="0"/>
        <pt x="306" y="694" on="0"/>
        <pt x="314" y="694" on="1"/>
        <pt x="321" y="694" on="0"/>
        <pt x="325" y="684" on="0"/>
        <pt x="326" y="681" on="1"/>
        <pt x="361" y="565" on="0"/>
        <pt x="495" y="417" on="0"/>
        <pt x="590" y="369" on="1"/>
        <pt x="597" y="366" on="0"/>
        <pt x="599" y="354" on="0"/>
        <pt x="599" y="348" on="1"/>
        <pt x="599" y="343" on="0"/>
        <pt x="596" y="327" on="0"/>
        <pt x="586" y="327" on="1"/>
        <pt x="582" y="327" on="0"/>
        <pt x="550" y="343" on="0"/>
        <pt x="506" y="370" on="0"/>
        <pt x="458" y="405" on="0"/>
        <pt x="437" y="425" on="1"/>
      </contour>
    </TTGlyph>
    <TTGlyph name="arrowdown" xMin="16" yMin="-194" xMax="497" yMax="694">
      <contour>
        <pt x="278" y="-51" on="1"/>
        <pt x="279" y="-50" on="0"/>
        <pt x="291" y="-32" on="0"/>
        <pt x="312" y="-8" on="0"/>
        <pt x="340" y="20" on="0"/>
        <pt x="357" y="32" on="1"/>
        <pt x="380" y="49" on="0"/>
        <pt x="424" y="71" on="0"/>
        <pt x="460" y="84" on="0"/>
        <pt x="483" y="89" on="0"/>
        <pt x="484" y="89" on="1"/>
        <pt x="494" y="89" on="0"/>
        <pt x="497" y="75" on="0"/>
        <pt x="497" y="68" on="1"/>
        <pt x="497" y="54" on="0"/>
        <pt x="491" y="49" on="0"/>
        <pt x="477" y="45" on="1"/>
        <pt x="389" y="21" on="0"/>
        <pt x="288" y="-95" on="0"/>
        <pt x="269" y="-183" on="1"/>
        <pt x="269" y="-184" on="0"/>
        <pt x="264" y="-194" on="0"/>
        <pt x="256" y="-194" on="1"/>
        <pt x="248" y="-194" on="0"/>
        <pt x="244" y="-184" on="1"/>
        <pt x="240" y="-166" on="0"/>
        <pt x="221" y="-103" on="0"/>
        <pt x="175" y="-35" on="0"/>
        <pt x="95" y="29" on="0"/>
        <pt x="29" y="47" on="1"/>
        <pt x="19" y="49" on="0"/>
        <pt x="16" y="59" on="0"/>
        <pt x="16" y="68" on="1"/>
        <pt x="16" y="75" on="0"/>
        <pt x="19" y="89" on="0"/>
        <pt x="29" y="89" on="1"/>
        <pt x="31" y="89" on="0"/>
        <pt x="54" y="84" on="0"/>
        <pt x="89" y="71" on="0"/>
        <pt x="133" y="50" on="0"/>
        <pt x="155" y="34" on="1"/>
        <pt x="163" y="27" on="0"/>
        <pt x="211" y="-15" on="0"/>
        <pt x="235" y="-51" on="1"/>
        <pt x="235" y="657" on="1"/>
        <pt x="235" y="671" on="0"/>
        <pt x="240" y="694" on="0"/>
        <pt x="257" y="694" on="1"/>
        <pt x="273" y="694" on="0"/>
        <pt x="278" y="670" on="0"/>
        <pt x="278" y="657" on="1"/>
      </contour>
    </TTGlyph>
    <TTGlyph name="arrowleft" xMin="57" yMin="-12" xMax="970" yMax="513">
      <contour>
        <pt x="176" y="229" on="1"/>
        <pt x="221" y="198" on="0"/>
        <pt x="276" y="122" on="0"/>
        <pt x="308" y="54" on="0"/>
        <pt x="319" y="6" on="0"/>
        <pt x="319" y="2" on="1"/>
        <pt x="319" y="-9" on="0"/>
        <pt x="305" y="-12" on="0"/>
        <pt x="298" y="-12" on="1"/>
        <pt x="287" y="-12" on="0"/>
        <pt x="278" y="-8" on="0"/>
        <pt x="276" y="3" on="1"/>
        <pt x="267" y="40" on="0"/>
        <pt x="236" y="109" on="0"/>
        <pt x="187" y="169" on="0"/>
        <pt x="117" y="219" on="0"/>
        <pt x="70" y="237" on="1"/>
        <pt x="65" y="239" on="0"/>
        <pt x="57" y="244" on="0"/>
        <pt x="57" y="251" on="1"/>
        <pt x="57" y="257" on="0"/>
        <pt x="66" y="262" on="0"/>
        <pt x="71" y="264" on="1"/>
        <pt x="236" y="324" on="0"/>
        <pt x="276" y="500" on="1"/>
        <pt x="278" y="510" on="0"/>
        <pt x="289" y="513" on="0"/>
        <pt x="298" y="513" on="1"/>
        <pt x="304" y="513" on="0"/>
        <pt x="319" y="510" on="0"/>
        <pt x="319" y="499" on="1"/>
        <pt x="319" y="495" on="0"/>
        <pt x="308" y="447" on="0"/>
        <pt x="276" y="380" on="0"/>
        <pt x="221" y="304" on="0"/>
        <pt x="176" y="272" on="1"/>
        <pt x="933" y="272" on="1"/>
        <pt x="946" y="272" on="0"/>
        <pt x="970" y="267" on="0"/>
        <pt x="970" y="251" on="1"/>
        <pt x="970" y="234" on="0"/>
        <pt x="947" y="229" on="0"/>
        <pt x="933" y="229" on="1"/>
      </contour>
    </TTGlyph>
    <TTGlyph name="arrowright" xMin="57" yMin="-12" xMax="970" yMax="513">
      <contour>
        <pt x="94" y="229" on="1"/>
        <pt x="80" y="229" on="0"/>
        <pt x="57" y="234" on="0"/>
        <pt x="57" y="251" on="1"/>
        <pt x="57" y="267" on="0"/>
        <pt x="81" y="272" on="0"/>
        <pt x="94" y="272" on="1"/>
        <pt x="851" y="272" on="1"/>
        <pt x="806" y="304" on="0"/>
        <pt x="751" y="379" on="0"/>
        <pt x="719" y="447" on="0"/>
        <pt x="708" y="495" on="0"/>
        <pt x="708" y="499" on="1"/>
        <pt x="708" y="510" on="0"/>
        <pt x="722" y="513" on="0"/>
        <pt x="729" y="513" on="1"/>
        <pt x="740" y="513" on="0"/>
        <pt x="749" y="509" on="0"/>
        <pt x="751" y="498" on="1"/>
        <pt x="760" y="461" on="0"/>
        <pt x="791" y="392" on="0"/>
        <pt x="840" y="332" on="0"/>
        <pt x="910" y="282" on="0"/>
        <pt x="957" y="264" on="1"/>
        <pt x="962" y="262" on="0"/>
        <pt x="970" y="257" on="0"/>
        <pt x="970" y="250" on="1"/>
        <pt x="970" y="244" on="0"/>
        <pt x="961" y="239" on="0"/>
        <pt x="956" y="237" on="1"/>
        <pt x="791" y="177" on="0"/>
        <pt x="751" y="1" on="1"/>
        <pt x="749" y="-9" on="0"/>
        <pt x="738" y="-12" on="0"/>
        <pt x="729" y="-12" on="1"/>
        <pt x="723" y="-12" on="0"/>
        <pt x="708" y="-9" on="0"/>
        <pt x="708" y="2" on="1"/>
        <pt x="708" y="6" on="0"/>
        <pt x="719" y="54" on="0"/>
        <pt x="751" y="121" on="0"/>
        <pt x="806" y="197" on="0"/>
        <pt x="851" y="229" on="1"/>
      </contour>
    </TTGlyph>
    <TTGlyph name="arrowup" xMin="16" yMin="-194" xMax="497" yMax="694">
      <contour>
        <pt x="278" y="-157" on="1"/>
        <pt x="278" y="-171" on="0"/>
        <pt x="273" y="-194" on="0"/>
        <pt x="256" y="-194" on="1"/>
        <pt x="240" y="-194" on="0"/>
        <pt x="235" y="-170" on="0"/>
        <pt x="235" y="-157" on="1"/>
        <pt x="235" y="551" on="1"/>
        <pt x="234" y="550" on="0"/>
        <pt x="222" y="532" on="0"/>
        <pt x="201" y="508" on="0"/>
        <pt x="173" y="480" on="0"/>
        <pt x="156" y="468" on="1"/>
        <pt x="133" y="451" on="0"/>
        <pt x="89" y="429" on="0"/>
        <pt x="53" y="416" on="0"/>
        <pt x="31" y="411" on="0"/>
        <pt x="29" y="411" on="1"/>
        <pt x="19" y="411" on="0"/>
        <pt x="16" y="425" on="0"/>
        <pt x="16" y="432" on="1"/>
        <pt x="16" y="446" on="0"/>
        <pt x="22" y="451" on="0"/>
        <pt x="36" y="455" on="1"/>
        <pt x="124" y="479" on="0"/>
        <pt x="225" y="595" on="0"/>
        <pt x="244" y="683" on="1"/>
        <pt x="244" y="684" on="0"/>
        <pt x="249" y="694" on="0"/>
        <pt x="257" y="694" on="1"/>
        <pt x="265" y="694" on="0"/>
        <pt x="269" y="684" on="1"/>
        <pt x="273" y="666" on="0"/>
        <pt x="292" y="603" on="0"/>
        <pt x="338" y="535" on="0"/>
        <pt x="418" y="471" on="0"/>
        <pt x="484" y="453" on="1"/>
        <pt x="494" y="451" on="0"/>
        <pt x="497" y="441" on="0"/>
        <pt x="497" y="432" on="1"/>
        <pt x="497" y="425" on="0"/>
        <pt x="494" y="411" on="0"/>
        <pt x="484" y="411" on="1"/>
        <pt x="482" y="411" on="0"/>
        <pt x="459" y="416" on="0"/>
        <pt x="424" y="429" on="0"/>
        <pt x="380" y="450" on="0"/>
        <pt x="358" y="466" on="1"/>
        <pt x="350" y="473" on="0"/>
        <pt x="302" y="515" on="0"/>
        <pt x="278" y="551" on="1"/>
      </contour>
    </TTGlyph>
    <TTGlyph name="asteriskmath" xMin="67" yMin="34" xMax="446" yMax="465">
      <contour>
        <pt x="270" y="226" on="1"/>
        <pt x="272" y="204" on="0"/>
        <pt x="275" y="166" on="0"/>
        <pt x="277" y="144" on="1"/>
        <pt x="284" y="60" on="1"/>
        <pt x="284" y="52" on="0"/>
        <pt x="270" y="34" on="0"/>
        <pt x="256" y="34" on="1"/>
        <pt x="244" y="34" on="0"/>
        <pt x="229" y="50" on="0"/>
        <pt x="229" y="60" on="1"/>
        <pt x="243" y="226" on="1"/>
        <pt x="129" y="146" on="1"/>
        <pt x="111" y="132" on="0"/>
        <pt x="101" y="127" on="0"/>
        <pt x="96" y="127" on="1"/>
        <pt x="84" y="127" on="0"/>
        <pt x="67" y="146" on="0"/>
        <pt x="67" y="157" on="1"/>
        <pt x="67" y="169" on="0"/>
        <pt x="80" y="179" on="0"/>
        <pt x="88" y="183" on="1"/>
        <pt x="93" y="186" on="0"/>
        <pt x="112" y="194" on="0"/>
        <pt x="145" y="209" on="0"/>
        <pt x="195" y="233" on="0"/>
        <pt x="231" y="250" on="1"/>
        <pt x="88" y="316" on="1"/>
        <pt x="81" y="319" on="0"/>
        <pt x="67" y="330" on="0"/>
        <pt x="67" y="342" on="1"/>
        <pt x="67" y="353" on="0"/>
        <pt x="84" y="372" on="0"/>
        <pt x="96" y="372" on="1"/>
        <pt x="102" y="372" on="0"/>
        <pt x="124" y="358" on="0"/>
        <pt x="132" y="351" on="1"/>
        <pt x="243" y="273" on="1"/>
        <pt x="241" y="295" on="0"/>
        <pt x="238" y="333" on="0"/>
        <pt x="236" y="355" on="1"/>
        <pt x="229" y="439" on="1"/>
        <pt x="229" y="447" on="0"/>
        <pt x="243" y="465" on="0"/>
        <pt x="257" y="465" on="1"/>
        <pt x="269" y="465" on="0"/>
        <pt x="284" y="449" on="0"/>
        <pt x="284" y="439" on="1"/>
        <pt x="270" y="273" on="1"/>
        <pt x="384" y="353" on="1"/>
        <pt x="402" y="367" on="0"/>
        <pt x="412" y="372" on="0"/>
        <pt x="417" y="372" on="1"/>
        <pt x="429" y="372" on="0"/>
        <pt x="446" y="353" on="0"/>
        <pt x="446" y="342" on="1"/>
        <pt x="446" y="330" on="0"/>
        <pt x="433" y="320" on="0"/>
        <pt x="425" y="316" on="1"/>
        <pt x="420" y="313" on="0"/>
        <pt x="401" y="305" on="0"/>
        <pt x="368" y="290" on="0"/>
        <pt x="318" y="266" on="0"/>
        <pt x="282" y="249" on="1"/>
        <pt x="425" y="183" on="1"/>
        <pt x="432" y="180" on="0"/>
        <pt x="446" y="169" on="0"/>
        <pt x="446" y="157" on="1"/>
        <pt x="446" y="146" on="0"/>
        <pt x="429" y="127" on="0"/>
        <pt x="417" y="127" on="1"/>
        <pt x="411" y="127" on="0"/>
        <pt x="389" y="141" on="0"/>
        <pt x="381" y="148" on="1"/>
      </contour>
    </TTGlyph>
    <TTGlyph name="backslash" xMin="57" yMin="-250" xMax="456" yMax="750">
      <contour>
        <pt x="63" y="710" on="1"/>
        <pt x="58" y="721" on="0"/>
        <pt x="57" y="726" on="0"/>
        <pt x="57" y="728" on="1"/>
        <pt x="57" y="738" on="0"/>
        <pt x="70" y="750" on="0"/>
        <pt x="78" y="750" on="1"/>
        <pt x="85" y="750" on="0"/>
        <pt x="97" y="742" on="0"/>
        <pt x="103" y="726" on="1"/>
        <pt x="450" y="-210" on="1"/>
        <pt x="455" y="-221" on="0"/>
        <pt x="456" y="-226" on="0"/>
        <pt x="456" y="-228" on="1"/>
        <pt x="456" y="-238" on="0"/>
        <pt x="443" y="-250" on="0"/>
        <pt x="435" y="-250" on="1"/>
        <pt x="424" y="-250" on="0"/>
        <pt x="414" y="-235" on="0"/>
        <pt x="410" y="-225" on="1"/>
      </contour>
    </TTGlyph>
    <TTGlyph name="bar" xMin="121" yMin="-250" xMax="164" yMax="750">
      <contour>
        <pt x="164" y="-213" on="1"/>
        <pt x="164" y="-227" on="0"/>
        <pt x="159" y="-250" on="0"/>
        <pt x="142" y="-250" on="1"/>
        <pt x="126" y="-250" on="0"/>
        <pt x="121" y="-226" on="0"/>
        <pt x="121" y="-213" on="1"/>
        <pt x="121" y="713" on="1"/>
        <pt x="121" y="727" on="0"/>
        <pt x="126" y="750" on="0"/>
        <pt x="143" y="750" on="1"/>
        <pt x="159" y="750" on="0"/>
        <pt x="164" y="726" on="0"/>
        <pt x="164" y="713" on="1"/>
      </contour>
    </TTGlyph>
    <TTGlyph name="bardbl" xMin="133" yMin="-249" xMax="380" yMax="750">
      <contour>
        <pt x="176" y="-214" on="1"/>
        <pt x="176" y="-225" on="0"/>
        <pt x="171" y="-249" on="0"/>
        <pt x="155" y="-249" on="1"/>
        <pt x="139" y="-249" on="0"/>
        <pt x="133" y="-222" on="0"/>
        <pt x="133" y="-209" on="1"/>
        <pt x="133" y="710" on="1"/>
        <pt x="133" y="723" on="0"/>
        <pt x="139" y="750" on="0"/>
        <pt x="155" y="750" on="1"/>
        <pt x="171" y="750" on="0"/>
        <pt x="176" y="726" on="0"/>
        <pt x="176" y="715" on="1"/>
      </contour>
      <contour>
        <pt x="380" y="-209" on="1"/>
        <pt x="380" y="-215" on="0"/>
        <pt x="379" y="-229" on="0"/>
        <pt x="375" y="-241" on="0"/>
        <pt x="366" y="-249" on="0"/>
        <pt x="358" y="-249" on="1"/>
        <pt x="342" y="-249" on="0"/>
        <pt x="337" y="-225" on="0"/>
        <pt x="337" y="-214" on="1"/>
        <pt x="337" y="715" on="1"/>
        <pt x="337" y="726" on="0"/>
        <pt x="342" y="750" on="0"/>
        <pt x="358" y="750" on="1"/>
        <pt x="366" y="750" on="0"/>
        <pt x="375" y="742" on="0"/>
        <pt x="379" y="730" on="0"/>
        <pt x="380" y="716" on="0"/>
        <pt x="380" y="710" on="1"/>
      </contour>
    </TTGlyph>
    <TTGlyph name="braceleft" xMin="73" yMin="-250" xMax="440" yMax="750">
      <contour>
        <pt x="292" y="396" on="1"/>
        <pt x="292" y="380" on="0"/>
        <pt x="288" y="339" on="0"/>
        <pt x="267" y="299" on="0"/>
        <pt x="220" y="262" on="0"/>
        <pt x="176" y="250" on="1"/>
        <pt x="218" y="238" on="0"/>
        <pt x="283" y="187" on="0"/>
        <pt x="291" y="145" on="1"/>
        <pt x="291" y="142" on="0"/>
        <pt x="292" y="122" on="0"/>
        <pt x="292" y="96" on="0"/>
        <pt x="292" y="69" on="0"/>
        <pt x="292" y="58" on="1"/>
        <pt x="292" y="-92" on="1"/>
        <pt x="292" y="-119" on="0"/>
        <pt x="293" y="-133" on="0"/>
        <pt x="295" y="-142" on="1"/>
        <pt x="298" y="-152" on="0"/>
        <pt x="313" y="-179" on="0"/>
        <pt x="343" y="-204" on="0"/>
        <pt x="391" y="-223" on="0"/>
        <pt x="425" y="-225" on="1"/>
        <pt x="429" y="-225" on="0"/>
        <pt x="440" y="-229" on="0"/>
        <pt x="440" y="-237" on="1"/>
        <pt x="440" y="-247" on="0"/>
        <pt x="428" y="-250" on="0"/>
        <pt x="418" y="-250" on="1"/>
        <pt x="414" y="-250" on="0"/>
        <pt x="388" y="-249" on="0"/>
        <pt x="352" y="-243" on="0"/>
        <pt x="311" y="-232" on="0"/>
        <pt x="291" y="-221" on="1"/>
        <pt x="265" y="-208" on="0"/>
        <pt x="236" y="-176" on="0"/>
        <pt x="223" y="-144" on="0"/>
        <pt x="221" y="-112" on="0"/>
        <pt x="221" y="-97" on="1"/>
        <pt x="221" y="101" on="1"/>
        <pt x="221" y="114" on="0"/>
        <pt x="221" y="129" on="0"/>
        <pt x="221" y="138" on="0"/>
        <pt x="220" y="144" on="0"/>
        <pt x="219" y="147" on="1"/>
        <pt x="211" y="182" on="0"/>
        <pt x="144" y="235" on="0"/>
        <pt x="91" y="237" on="1"/>
        <pt x="85" y="237" on="0"/>
        <pt x="73" y="241" on="0"/>
        <pt x="73" y="250" on="1"/>
        <pt x="73" y="255" on="0"/>
        <pt x="79" y="262" on="0"/>
        <pt x="86" y="263" on="1"/>
        <pt x="125" y="265" on="0"/>
        <pt x="177" y="289" on="0"/>
        <pt x="208" y="321" on="0"/>
        <pt x="221" y="355" on="0"/>
        <pt x="221" y="368" on="1"/>
        <pt x="221" y="624" on="1"/>
        <pt x="221" y="654" on="0"/>
        <pt x="255" y="700" on="0"/>
        <pt x="311" y="733" on="0"/>
        <pt x="381" y="750" on="0"/>
        <pt x="418" y="750" on="1"/>
        <pt x="428" y="750" on="0"/>
        <pt x="440" y="747" on="0"/>
        <pt x="440" y="737" on="1"/>
        <pt x="440" y="729" on="0"/>
        <pt x="429" y="726" on="0"/>
        <pt x="421" y="725" on="1"/>
        <pt x="386" y="723" on="0"/>
        <pt x="340" y="702" on="0"/>
        <pt x="325" y="689" on="1"/>
        <pt x="313" y="678" on="0"/>
        <pt x="299" y="657" on="0"/>
        <pt x="293" y="631" on="0"/>
        <pt x="292" y="599" on="0"/>
        <pt x="292" y="576" on="1"/>
      </contour>
    </TTGlyph>
    <TTGlyph name="braceright" xMin="73" yMin="-250" xMax="440" yMax="750">
      <contour>
        <pt x="292" y="-124" on="1"/>
        <pt x="292" y="-154" on="0"/>
        <pt x="258" y="-200" on="0"/>
        <pt x="202" y="-233" on="0"/>
        <pt x="132" y="-250" on="0"/>
        <pt x="95" y="-250" on="1"/>
        <pt x="86" y="-250" on="0"/>
        <pt x="73" y="-247" on="0"/>
        <pt x="73" y="-237" on="1"/>
        <pt x="73" y="-229" on="0"/>
        <pt x="84" y="-226" on="0"/>
        <pt x="92" y="-225" on="1"/>
        <pt x="127" y="-223" on="0"/>
        <pt x="173" y="-202" on="0"/>
        <pt x="188" y="-189" on="1"/>
        <pt x="200" y="-178" on="0"/>
        <pt x="214" y="-157" on="0"/>
        <pt x="220" y="-131" on="0"/>
        <pt x="221" y="-99" on="0"/>
        <pt x="221" y="-76" on="1"/>
        <pt x="221" y="104" on="1"/>
        <pt x="221" y="121" on="0"/>
        <pt x="225" y="161" on="0"/>
        <pt x="246" y="201" on="0"/>
        <pt x="294" y="238" on="0"/>
        <pt x="337" y="250" on="1"/>
        <pt x="295" y="262" on="0"/>
        <pt x="230" y="313" on="0"/>
        <pt x="222" y="355" on="1"/>
        <pt x="222" y="358" on="0"/>
        <pt x="221" y="378" on="0"/>
        <pt x="221" y="404" on="0"/>
        <pt x="221" y="431" on="0"/>
        <pt x="221" y="442" on="1"/>
        <pt x="221" y="592" on="1"/>
        <pt x="221" y="619" on="0"/>
        <pt x="220" y="633" on="0"/>
        <pt x="218" y="642" on="1"/>
        <pt x="215" y="652" on="0"/>
        <pt x="200" y="679" on="0"/>
        <pt x="170" y="704" on="0"/>
        <pt x="123" y="723" on="0"/>
        <pt x="88" y="725" on="1"/>
        <pt x="84" y="725" on="0"/>
        <pt x="73" y="729" on="0"/>
        <pt x="73" y="737" on="1"/>
        <pt x="73" y="747" on="0"/>
        <pt x="86" y="750" on="0"/>
        <pt x="95" y="750" on="1"/>
        <pt x="99" y="750" on="0"/>
        <pt x="125" y="749" on="0"/>
        <pt x="161" y="743" on="0"/>
        <pt x="202" y="731" on="0"/>
        <pt x="222" y="721" on="1"/>
        <pt x="248" y="708" on="0"/>
        <pt x="277" y="676" on="0"/>
        <pt x="290" y="644" on="0"/>
        <pt x="292" y="612" on="0"/>
        <pt x="292" y="597" on="1"/>
        <pt x="292" y="399" on="1"/>
        <pt x="292" y="386" on="0"/>
        <pt x="292" y="371" on="0"/>
        <pt x="292" y="362" on="0"/>
        <pt x="293" y="356" on="0"/>
        <pt x="294" y="353" on="1"/>
        <pt x="302" y="318" on="0"/>
        <pt x="369" y="265" on="0"/>
        <pt x="422" y="263" on="1"/>
        <pt x="428" y="263" on="0"/>
        <pt x="440" y="259" on="0"/>
        <pt x="440" y="250" on="1"/>
        <pt x="440" y="245" on="0"/>
        <pt x="434" y="238" on="0"/>
        <pt x="427" y="237" on="1"/>
        <pt x="388" y="235" on="0"/>
        <pt x="336" y="211" on="0"/>
        <pt x="305" y="179" on="0"/>
        <pt x="292" y="145" on="0"/>
        <pt x="292" y="132" on="1"/>
      </contour>
    </TTGlyph>
    <TTGlyph name="bullet" xMin="57" yMin="51" xMax="456" yMax="450">
      <contour>
        <pt x="456" y="250" on="1"/>
        <pt x="456" y="210" on="0"/>
        <pt x="425" y="138" on="0"/>
        <pt x="371" y="83" on="0"/>
        <pt x="298" y="51" on="0"/>
        <pt x="256" y="51" on="1"/>
        <pt x="216" y="51" on="0"/>
        <pt x="144" y="82" on="0"/>
        <pt x="89" y="136" on="0"/>
        <pt x="57" y="209" on="0"/>
        <pt x="57" y="251" on="1"/>
        <pt x="57" y="291" on="0"/>
        <pt x="88" y="363" on="0"/>
        <pt x="142" y="418" on="0"/>
        <pt x="215" y="450" on="0"/>
        <pt x="257" y="450" on="1"/>
        <pt x="297" y="450" on="0"/>
        <pt x="369" y="419" on="0"/>
        <pt x="424" y="365" on="0"/>
        <pt x="456" y="292" on="0"/>
      </contour>
    </TTGlyph>
    <TTGlyph name="circlecopyrt" xMin="57" yMin="-216" xMax="970" yMax="716">
      <contour>
        <pt x="970" y="250" on="1"/>
        <pt x="970" y="153" on="0"/>
        <pt x="898" y="-17" on="0"/>
        <pt x="773" y="-143" on="0"/>
        <pt x="607" y="-216" on="0"/>
        <pt x="514" y="-216" on="1"/>
        <pt x="419" y="-216" on="0"/>
        <pt x="253" y="-143" on="0"/>
        <pt x="129" y="-16" on="0"/>
        <pt x="57" y="154" on="0"/>
        <pt x="57" y="250" on="1"/>
        <pt x="57" y="346" on="0"/>
        <pt x="129" y="516" on="0"/>
        <pt x="253" y="643" on="0"/>
        <pt x="419" y="716" on="0"/>
        <pt x="514" y="716" on="1"/>
        <pt x="607" y="716" on="0"/>
        <pt x="773" y="643" on="0"/>
        <pt x="898" y="517" on="0"/>
        <pt x="970" y="347" on="0"/>
      </contour>
      <contour>
        <pt x="514" y="-173" on="1"/>
        <pt x="598" y="-173" on="0"/>
        <pt x="749" y="-107" on="0"/>
        <pt x="861" y="7" on="0"/>
        <pt x="927" y="162" on="0"/>
        <pt x="927" y="250" on="1"/>
        <pt x="927" y="338" on="0"/>
        <pt x="862" y="492" on="0"/>
        <pt x="750" y="607" on="0"/>
        <pt x="599" y="673" on="0"/>
        <pt x="513" y="673" on="1"/>
        <pt x="429" y="673" on="0"/>
        <pt x="278" y="607" on="0"/>
        <pt x="166" y="493" on="0"/>
        <pt x="100" y="339" on="0"/>
        <pt x="100" y="250" on="1"/>
        <pt x="100" y="162" on="0"/>
        <pt x="165" y="8" on="0"/>
        <pt x="277" y="-107" on="0"/>
        <pt x="428" y="-173" on="0"/>
      </contour>
    </TTGlyph>
    <TTGlyph name="circlemultiply" xMin="57" yMin="-92" xMax="741" yMax="593">
      <contour>
        <pt x="741" y="250" on="1"/>
        <pt x="741" y="180" on="0"/>
        <pt x="688" y="55" on="0"/>
        <pt x="595" y="-38" on="0"/>
        <pt x="470" y="-92" on="0"/>
        <pt x="399" y="-92" on="1"/>
        <pt x="329" y="-92" on="0"/>
        <pt x="204" y="-39" on="0"/>
        <pt x="111" y="54" on="0"/>
        <pt x="57" y="179" on="0"/>
        <pt x="57" y="251" on="1"/>
        <pt x="57" y="321" on="0"/>
        <pt x="110" y="446" on="0"/>
        <pt x="203" y="539" on="0"/>
        <pt x="328" y="593" on="0"/>
        <pt x="399" y="593" on="1"/>
        <pt x="470" y="593" on="0"/>
        <pt x="594" y="540" on="0"/>
        <pt x="687" y="447" on="0"/>
        <pt x="741" y="322" on="0"/>
      </contour>
      <contour>
        <pt x="399" y="271" on="1"/>
        <pt x="611" y="483" on="1"/>
        <pt x="596" y="497" on="0"/>
        <pt x="554" y="526" on="0"/>
        <pt x="500" y="550" on="0"/>
        <pt x="436" y="565" on="0"/>
        <pt x="399" y="565" on="1"/>
        <pt x="362" y="565" on="0"/>
        <pt x="297" y="550" on="0"/>
        <pt x="243" y="526" on="0"/>
        <pt x="202" y="497" on="0"/>
        <pt x="187" y="483" on="1"/>
      </contour>
      <contour>
        <pt x="380" y="251" on="1"/>
        <pt x="167" y="463" on="1"/>
        <pt x="154" y="449" on="0"/>
        <pt x="125" y="408" on="0"/>
        <pt x="101" y="354" on="0"/>
        <pt x="85" y="288" on="0"/>
        <pt x="85" y="250" on="1"/>
        <pt x="85" y="214" on="0"/>
        <pt x="100" y="151" on="0"/>
        <pt x="123" y="98" on="0"/>
        <pt x="152" y="54" on="0"/>
        <pt x="167" y="38" on="1"/>
      </contour>
      <contour>
        <pt x="418" y="250" on="1"/>
        <pt x="631" y="38" on="1"/>
        <pt x="644" y="52" on="0"/>
        <pt x="673" y="93" on="0"/>
        <pt x="697" y="147" on="0"/>
        <pt x="713" y="213" on="0"/>
        <pt x="713" y="251" on="1"/>
        <pt x="713" y="287" on="0"/>
        <pt x="698" y="350" on="0"/>
        <pt x="675" y="403" on="0"/>
        <pt x="646" y="447" on="0"/>
        <pt x="631" y="463" on="1"/>
      </contour>
      <contour>
        <pt x="399" y="230" on="1"/>
        <pt x="187" y="18" on="1"/>
        <pt x="202" y="4" on="0"/>
        <pt x="244" y="-25" on="0"/>
        <pt x="298" y="-49" on="0"/>
        <pt x="362" y="-64" on="0"/>
        <pt x="399" y="-64" on="1"/>
        <pt x="437" y="-64" on="0"/>
        <pt x="501" y="-49" on="0"/>
        <pt x="555" y="-25" on="0"/>
        <pt x="596" y="5" on="0"/>
        <pt x="611" y="18" on="1"/>
      </contour>
    </TTGlyph>
    <TTGlyph name="circleplus" xMin="57" yMin="-92" xMax="741" yMax="593">
      <contour>
        <pt x="741" y="250" on="1"/>
        <pt x="741" y="180" on="0"/>
        <pt x="688" y="55" on="0"/>
        <pt x="595" y="-38" on="0"/>
        <pt x="470" y="-92" on="0"/>
        <pt x="399" y="-92" on="1"/>
        <pt x="329" y="-92" on="0"/>
        <pt x="204" y="-39" on="0"/>
        <pt x="111" y="54" on="0"/>
        <pt x="57" y="179" on="0"/>
        <pt x="57" y="251" on="1"/>
        <pt x="57" y="321" on="0"/>
        <pt x="110" y="446" on="0"/>
        <pt x="203" y="539" on="0"/>
        <pt x="328" y="593" on="0"/>
        <pt x="399" y="593" on="1"/>
        <pt x="470" y="593" on="0"/>
        <pt x="594" y="540" on="0"/>
        <pt x="687" y="447" on="0"/>
        <pt x="741" y="322" on="0"/>
      </contour>
      <contour>
        <pt x="385" y="265" on="1"/>
        <pt x="385" y="565" on="1"/>
        <pt x="328" y="562" on="0"/>
        <pt x="223" y="517" on="0"/>
        <pt x="141" y="439" on="0"/>
        <pt x="89" y="331" on="0"/>
        <pt x="85" y="265" on="1"/>
      </contour>
      <contour>
        <pt x="413" y="265" on="1"/>
        <pt x="713" y="265" on="1"/>
        <pt x="709" y="331" on="0"/>
        <pt x="657" y="439" on="0"/>
        <pt x="576" y="517" on="0"/>
        <pt x="471" y="562" on="0"/>
        <pt x="413" y="565" on="1"/>
      </contour>
      <contour>
        <pt x="385" y="237" on="1"/>
        <pt x="85" y="237" on="1"/>
        <pt x="89" y="171" on="0"/>
        <pt x="140" y="62" on="0"/>
        <pt x="222" y="-16" on="0"/>
        <pt x="328" y="-61" on="0"/>
        <pt x="385" y="-64" on="1"/>
      </contour>
      <contour>
        <pt x="413" y="237" on="1"/>
        <pt x="413" y="-64" on="1"/>
        <pt x="470" y="-61" on="0"/>
        <pt x="575" y="-17" on="0"/>
        <pt x="657" y="61" on="0"/>
        <pt x="709" y="170" on="0"/>
        <pt x="713" y="237" on="1"/>
      </contour>
    </TTGlyph>
    <TTGlyph name="club" xMin="29" yMin="-130" xMax="770" yMax="727">
      <contour>
        <pt x="386" y="-130" on="1"/>
        <pt x="372" y="-130" on="0"/>
        <pt x="349" y="-125" on="0"/>
        <pt x="349" y="-108" on="1"/>
        <pt x="349" y="-105" on="0"/>
        <pt x="351" y="-101" on="0"/>
        <pt x="353" y="-93" on="1"/>
        <pt x="365" y="-55" on="0"/>
        <pt x="378" y="29" on="0"/>
        <pt x="378" y="70" on="1"/>
        <pt x="322" y="70" on="1"/>
        <pt x="321" y="43" on="0"/>
        <pt x="295" y="7" on="0"/>
        <pt x="258" y="-14" on="0"/>
        <pt x="217" y="-22" on="0"/>
        <pt x="201" y="-22" on="1"/>
        <pt x="164" y="-22" on="0"/>
        <pt x="101" y="9" on="0"/>
        <pt x="55" y="63" on="0"/>
        <pt x="29" y="134" on="0"/>
        <pt x="29" y="174" on="1"/>
        <pt x="29" y="210" on="0"/>
        <pt x="49" y="280" on="0"/>
        <pt x="86" y="335" on="0"/>
        <pt x="141" y="368" on="0"/>
        <pt x="176" y="368" on="1"/>
        <pt x="197" y="368" on="0"/>
        <pt x="248" y="351" on="0"/>
        <pt x="269" y="324" on="1"/>
        <pt x="273" y="330" on="0"/>
        <pt x="277" y="338" on="0"/>
        <pt x="282" y="348" on="0"/>
        <pt x="288" y="361" on="0"/>
        <pt x="294" y="373" on="1"/>
        <pt x="252" y="406" on="0"/>
        <pt x="218" y="491" on="0"/>
        <pt x="218" y="532" on="1"/>
        <pt x="218" y="571" on="0"/>
        <pt x="246" y="642" on="0"/>
        <pt x="294" y="695" on="0"/>
        <pt x="361" y="727" on="0"/>
        <pt x="400" y="727" on="1"/>
        <pt x="438" y="727" on="0"/>
        <pt x="503" y="696" on="0"/>
        <pt x="553" y="643" on="0"/>
        <pt x="581" y="572" on="0"/>
        <pt x="581" y="532" on="1"/>
        <pt x="581" y="491" on="0"/>
        <pt x="547" y="406" on="0"/>
        <pt x="505" y="373" on="1"/>
        <pt x="511" y="361" on="0"/>
        <pt x="517" y="348" on="0"/>
        <pt x="522" y="338" on="0"/>
        <pt x="526" y="330" on="0"/>
        <pt x="530" y="324" on="1"/>
        <pt x="550" y="350" on="0"/>
        <pt x="600" y="368" on="0"/>
        <pt x="623" y="368" on="1"/>
        <pt x="658" y="368" on="0"/>
        <pt x="712" y="335" on="0"/>
        <pt x="750" y="281" on="0"/>
        <pt x="770" y="211" on="0"/>
        <pt x="770" y="174" on="1"/>
        <pt x="770" y="134" on="0"/>
        <pt x="744" y="63" on="0"/>
        <pt x="698" y="9" on="0"/>
        <pt x="635" y="-22" on="0"/>
        <pt x="598" y="-22" on="1"/>
        <pt x="583" y="-22" on="0"/>
        <pt x="542" y="-14" on="0"/>
        <pt x="505" y="7" on="0"/>
        <pt x="478" y="42" on="0"/>
        <pt x="477" y="70" on="1"/>
        <pt x="421" y="70" on="1"/>
        <pt x="421" y="36" on="0"/>
        <pt x="432" y="-48" on="0"/>
        <pt x="446" y="-92" on="1"/>
        <pt x="449" y="-100" on="0"/>
        <pt x="450" y="-106" on="0"/>
        <pt x="450" y="-108" on="1"/>
        <pt x="450" y="-125" on="0"/>
        <pt x="427" y="-130" on="0"/>
        <pt x="413" y="-130" on="1"/>
      </contour>
    </TTGlyph>
    <TTGlyph name="dagger" xMin="57" yMin="-216" xMax="400" yMax="705">
      <contour>
        <pt x="240" y="419" on="1"/>
        <pt x="240" y="410" on="0"/>
        <pt x="241" y="397" on="0"/>
        <pt x="244" y="379" on="0"/>
        <pt x="249" y="354" on="0"/>
        <pt x="253" y="334" on="1"/>
        <pt x="257" y="313" on="0"/>
        <pt x="262" y="285" on="0"/>
        <pt x="264" y="262" on="0"/>
        <pt x="264" y="237" on="0"/>
        <pt x="264" y="219" on="1"/>
        <pt x="264" y="179" on="0"/>
        <pt x="262" y="95" on="0"/>
        <pt x="259" y="23" on="0"/>
        <pt x="256" y="-30" on="0"/>
        <pt x="255" y="-40" on="1"/>
        <pt x="253" y="-82" on="0"/>
        <pt x="248" y="-162" on="0"/>
        <pt x="243" y="-203" on="1"/>
        <pt x="241" y="-212" on="0"/>
        <pt x="233" y="-216" on="0"/>
        <pt x="228" y="-216" on="1"/>
        <pt x="219" y="-216" on="0"/>
        <pt x="215" y="-205" on="0"/>
        <pt x="213" y="-190" on="1"/>
        <pt x="209" y="-151" on="0"/>
        <pt x="202" y="-50" on="0"/>
        <pt x="196" y="58" on="0"/>
        <pt x="193" y="169" on="0"/>
        <pt x="193" y="219" on="1"/>
        <pt x="193" y="237" on="0"/>
        <pt x="193" y="262" on="0"/>
        <pt x="195" y="285" on="0"/>
        <pt x="200" y="313" on="0"/>
        <pt x="204" y="334" on="1"/>
        <pt x="208" y="354" on="0"/>
        <pt x="213" y="380" on="0"/>
        <pt x="216" y="397" on="0"/>
        <pt x="217" y="411" on="0"/>
        <pt x="217" y="419" on="1"/>
        <pt x="212" y="418" on="0"/>
        <pt x="202" y="417" on="0"/>
        <pt x="187" y="414" on="0"/>
        <pt x="167" y="409" on="0"/>
        <pt x="151" y="405" on="1"/>
        <pt x="133" y="400" on="0"/>
        <pt x="104" y="395" on="0"/>
        <pt x="96" y="395" on="1"/>
        <pt x="83" y="395" on="0"/>
        <pt x="68" y="403" on="0"/>
        <pt x="60" y="415" on="0"/>
        <pt x="57" y="427" on="0"/>
        <pt x="57" y="431" on="1"/>
        <pt x="57" y="433" on="0"/>
        <pt x="59" y="444" on="0"/>
        <pt x="66" y="456" on="0"/>
        <pt x="82" y="466" on="0"/>
        <pt x="96" y="466" on="1"/>
        <pt x="105" y="466" on="0"/>
        <pt x="133" y="461" on="0"/>
        <pt x="151" y="456" on="1"/>
        <pt x="167" y="452" on="0"/>
        <pt x="187" y="447" on="0"/>
        <pt x="202" y="444" on="0"/>
        <pt x="212" y="443" on="0"/>
        <pt x="217" y="442" on="1"/>
        <pt x="217" y="450" on="0"/>
        <pt x="216" y="466" on="0"/>
        <pt x="214" y="491" on="0"/>
        <pt x="209" y="527" on="0"/>
        <pt x="205" y="554" on="1"/>
        <pt x="204" y="559" on="0"/>
        <pt x="200" y="584" on="0"/>
        <pt x="196" y="616" on="0"/>
        <pt x="193" y="649" on="0"/>
        <pt x="193" y="662" on="1"/>
        <pt x="193" y="665" on="0"/>
        <pt x="194" y="680" on="0"/>
        <pt x="201" y="694" on="0"/>
        <pt x="216" y="705" on="0"/>
        <pt x="229" y="705" on="1"/>
        <pt x="242" y="705" on="0"/>
        <pt x="256" y="694" on="0"/>
        <pt x="263" y="679" on="0"/>
        <pt x="264" y="665" on="0"/>
        <pt x="264" y="662" on="1"/>
        <pt x="264" y="649" on="0"/>
        <pt x="261" y="616" on="0"/>
        <pt x="257" y="585" on="0"/>
        <pt x="253" y="560" on="0"/>
        <pt x="252" y="554" on="1"/>
        <pt x="248" y="527" on="0"/>
        <pt x="243" y="491" on="0"/>
        <pt x="241" y="466" on="0"/>
        <pt x="240" y="450" on="0"/>
        <pt x="240" y="442" on="1"/>
        <pt x="245" y="443" on="0"/>
        <pt x="255" y="444" on="0"/>
        <pt x="270" y="447" on="0"/>
        <pt x="290" y="452" on="0"/>
        <pt x="306" y="456" on="1"/>
        <pt x="324" y="461" on="0"/>
        <pt x="353" y="466" on="0"/>
        <pt x="361" y="466" on="1"/>
        <pt x="374" y="466" on="0"/>
        <pt x="389" y="458" on="0"/>
        <pt x="397" y="446" on="0"/>
        <pt x="400" y="434" on="0"/>
        <pt x="400" y="430" on="1"/>
        <pt x="400" y="429" on="0"/>
        <pt x="398" y="417" on="0"/>
        <pt x="391" y="405" on="0"/>
        <pt x="375" y="395" on="0"/>
        <pt x="361" y="395" on="1"/>
        <pt x="352" y="395" on="0"/>
        <pt x="324" y="400" on="0"/>
        <pt x="306" y="405" on="1"/>
        <pt x="290" y="409" on="0"/>
        <pt x="270" y="414" on="0"/>
        <pt x="255" y="417" on="0"/>
        <pt x="245" y="418" on="0"/>
      </contour>
    </TTGlyph>
    <TTGlyph name="daggerdbl" xMin="57" yMin="-205" xMax="400" yMax="705">
      <contour>
        <pt x="240" y="466" on="1"/>
        <pt x="241" y="454" on="0"/>
        <pt x="244" y="422" on="0"/>
        <pt x="250" y="389" on="1"/>
        <pt x="255" y="363" on="0"/>
        <pt x="264" y="311" on="0"/>
        <pt x="264" y="291" on="1"/>
        <pt x="264" y="265" on="0"/>
        <pt x="238" y="250" on="0"/>
        <pt x="228" y="250" on="1"/>
        <pt x="226" y="250" on="0"/>
        <pt x="215" y="252" on="0"/>
        <pt x="203" y="259" on="0"/>
        <pt x="193" y="276" on="0"/>
        <pt x="193" y="291" on="1"/>
        <pt x="193" y="311" on="0"/>
        <pt x="201" y="364" on="0"/>
        <pt x="206" y="384" on="1"/>
        <pt x="213" y="420" on="0"/>
        <pt x="216" y="453" on="0"/>
        <pt x="217" y="466" on="1"/>
        <pt x="212" y="465" on="0"/>
        <pt x="202" y="464" on="0"/>
        <pt x="187" y="461" on="0"/>
        <pt x="167" y="456" on="0"/>
        <pt x="151" y="452" on="1"/>
        <pt x="133" y="447" on="0"/>
        <pt x="104" y="442" on="0"/>
        <pt x="96" y="442" on="1"/>
        <pt x="83" y="442" on="0"/>
        <pt x="68" y="450" on="0"/>
        <pt x="60" y="462" on="0"/>
        <pt x="57" y="474" on="0"/>
        <pt x="57" y="478" on="1"/>
        <pt x="57" y="480" on="0"/>
        <pt x="59" y="491" on="0"/>
        <pt x="66" y="503" on="0"/>
        <pt x="82" y="513" on="0"/>
        <pt x="96" y="513" on="1"/>
        <pt x="105" y="513" on="0"/>
        <pt x="133" y="508" on="0"/>
        <pt x="151" y="503" on="1"/>
        <pt x="167" y="499" on="0"/>
        <pt x="187" y="494" on="0"/>
        <pt x="202" y="491" on="0"/>
        <pt x="212" y="490" on="0"/>
        <pt x="217" y="489" on="1"/>
        <pt x="216" y="501" on="0"/>
        <pt x="213" y="533" on="0"/>
        <pt x="207" y="566" on="1"/>
        <pt x="202" y="592" on="0"/>
        <pt x="193" y="644" on="0"/>
        <pt x="193" y="664" on="1"/>
        <pt x="193" y="690" on="0"/>
        <pt x="219" y="705" on="0"/>
        <pt x="229" y="705" on="1"/>
        <pt x="231" y="705" on="0"/>
        <pt x="242" y="703" on="0"/>
        <pt x="254" y="696" on="0"/>
        <pt x="264" y="679" on="0"/>
        <pt x="264" y="664" on="1"/>
        <pt x="264" y="644" on="0"/>
        <pt x="256" y="591" on="0"/>
        <pt x="251" y="571" on="1"/>
        <pt x="248" y="553" on="0"/>
        <pt x="244" y="528" on="0"/>
        <pt x="241" y="510" on="0"/>
        <pt x="240" y="496" on="0"/>
        <pt x="240" y="489" on="1"/>
        <pt x="245" y="490" on="0"/>
        <pt x="255" y="491" on="0"/>
        <pt x="270" y="494" on="0"/>
        <pt x="290" y="499" on="0"/>
        <pt x="306" y="503" on="1"/>
        <pt x="324" y="508" on="0"/>
        <pt x="353" y="513" on="0"/>
        <pt x="361" y="513" on="1"/>
        <pt x="374" y="513" on="0"/>
        <pt x="389" y="505" on="0"/>
        <pt x="397" y="493" on="0"/>
        <pt x="400" y="481" on="0"/>
        <pt x="400" y="477" on="1"/>
        <pt x="400" y="476" on="0"/>
        <pt x="398" y="464" on="0"/>
        <pt x="391" y="452" on="0"/>
        <pt x="375" y="442" on="0"/>
        <pt x="361" y="442" on="1"/>
        <pt x="352" y="442" on="0"/>
        <pt x="324" y="447" on="0"/>
        <pt x="306" y="452" on="1"/>
        <pt x="290" y="456" on="0"/>
        <pt x="270" y="461" on="0"/>
        <pt x="255" y="464" on="0"/>
        <pt x="245" y="465" on="0"/>
      </contour>
      <contour>
        <pt x="240" y="10" on="1"/>
        <pt x="241" y="-1" on="0"/>
        <pt x="244" y="-34" on="0"/>
        <pt x="250" y="-66" on="1"/>
        <pt x="255" y="-88" on="0"/>
        <pt x="264" y="-144" on="0"/>
        <pt x="264" y="-164" on="1"/>
        <pt x="264" y="-190" on="0"/>
        <pt x="238" y="-205" on="0"/>
        <pt x="228" y="-205" on="1"/>
        <pt x="226" y="-205" on="0"/>
        <pt x="215" y="-203" on="0"/>
        <pt x="203" y="-196" on="0"/>
        <pt x="193" y="-179" on="0"/>
        <pt x="193" y="-164" on="1"/>
        <pt x="193" y="-152" on="0"/>
        <pt x="198" y="-111" on="0"/>
        <pt x="204" y="-82" on="1"/>
        <pt x="208" y="-60" on="0"/>
        <pt x="213" y="-31" on="0"/>
        <pt x="216" y="-10" on="0"/>
        <pt x="217" y="4" on="0"/>
        <pt x="217" y="10" on="1"/>
        <pt x="209" y="9" on="0"/>
        <pt x="198" y="8" on="0"/>
        <pt x="187" y="5" on="0"/>
        <pt x="173" y="1" on="0"/>
        <pt x="161" y="-2" on="1"/>
        <pt x="144" y="-7" on="0"/>
        <pt x="110" y="-13" on="0"/>
        <pt x="93" y="-13" on="1"/>
        <pt x="76" y="-13" on="0"/>
        <pt x="57" y="8" on="0"/>
        <pt x="57" y="22" on="1"/>
        <pt x="57" y="35" on="0"/>
        <pt x="75" y="57" on="0"/>
        <pt x="93" y="57" on="1"/>
        <pt x="111" y="57" on="0"/>
        <pt x="143" y="50" on="0"/>
        <pt x="163" y="45" on="1"/>
        <pt x="174" y="42" on="0"/>
        <pt x="188" y="38" on="0"/>
        <pt x="199" y="36" on="0"/>
        <pt x="209" y="35" on="0"/>
        <pt x="217" y="34" on="1"/>
        <pt x="216" y="45" on="0"/>
        <pt x="213" y="78" on="0"/>
        <pt x="207" y="110" on="1"/>
        <pt x="202" y="132" on="0"/>
        <pt x="193" y="188" on="0"/>
        <pt x="193" y="208" on="1"/>
        <pt x="193" y="234" on="0"/>
        <pt x="219" y="249" on="0"/>
        <pt x="229" y="249" on="1"/>
        <pt x="231" y="249" on="0"/>
        <pt x="242" y="247" on="0"/>
        <pt x="254" y="240" on="0"/>
        <pt x="264" y="223" on="0"/>
        <pt x="264" y="208" on="1"/>
        <pt x="264" y="196" on="0"/>
        <pt x="259" y="155" on="0"/>
        <pt x="253" y="126" on="1"/>
        <pt x="249" y="104" on="0"/>
        <pt x="244" y="75" on="0"/>
        <pt x="241" y="54" on="0"/>
        <pt x="240" y="40" on="0"/>
        <pt x="240" y="34" on="1"/>
        <pt x="248" y="35" on="0"/>
        <pt x="258" y="36" on="0"/>
        <pt x="271" y="39" on="0"/>
        <pt x="289" y="43" on="0"/>
        <pt x="304" y="47" on="1"/>
        <pt x="323" y="53" on="0"/>
        <pt x="351" y="57" on="0"/>
        <pt x="365" y="57" on="1"/>
        <pt x="380" y="57" on="0"/>
        <pt x="400" y="37" on="0"/>
        <pt x="400" y="22" on="1"/>
        <pt x="400" y="8" on="0"/>
        <pt x="381" y="-13" on="0"/>
        <pt x="364" y="-13" on="1"/>
        <pt x="346" y="-13" on="0"/>
        <pt x="312" y="-6" on="0"/>
        <pt x="294" y="-1" on="1"/>
        <pt x="283" y="2" on="0"/>
        <pt x="269" y="6" on="0"/>
        <pt x="258" y="8" on="0"/>
        <pt x="248" y="9" on="0"/>
      </contour>
    </TTGlyph>
    <TTGlyph name="diamond" xMin="57" yMin="-163" xMax="742" yMax="727">
      <contour>
        <pt x="742" y="282" on="1"/>
        <pt x="742" y="274" on="0"/>
        <pt x="735" y="266" on="0"/>
        <pt x="725" y="257" on="1"/>
        <pt x="632" y="174" on="0"/>
        <pt x="490" y="-19" on="0"/>
        <pt x="430" y="-128" on="1"/>
        <pt x="419" y="-148" on="0"/>
        <pt x="414" y="-157" on="0"/>
        <pt x="411" y="-160" on="1"/>
        <pt x="409" y="-161" on="0"/>
        <pt x="404" y="-163" on="0"/>
        <pt x="399" y="-163" on="1"/>
        <pt x="389" y="-163" on="0"/>
        <pt x="380" y="-151" on="0"/>
        <pt x="369" y="-129" on="1"/>
        <pt x="315" y="-20" on="0"/>
        <pt x="164" y="177" on="0"/>
        <pt x="73" y="259" on="1"/>
        <pt x="65" y="267" on="0"/>
        <pt x="57" y="274" on="0"/>
        <pt x="57" y="282" on="1"/>
        <pt x="57" y="290" on="0"/>
        <pt x="65" y="298" on="0"/>
        <pt x="74" y="307" on="1"/>
        <pt x="167" y="390" on="0"/>
        <pt x="309" y="583" on="0"/>
        <pt x="369" y="692" on="1"/>
        <pt x="380" y="712" on="0"/>
        <pt x="385" y="721" on="0"/>
        <pt x="388" y="724" on="1"/>
        <pt x="390" y="725" on="0"/>
        <pt x="395" y="727" on="0"/>
        <pt x="400" y="727" on="1"/>
        <pt x="410" y="727" on="0"/>
        <pt x="419" y="715" on="0"/>
        <pt x="430" y="693" on="1"/>
        <pt x="443" y="668" on="0"/>
        <pt x="493" y="581" on="0"/>
        <pt x="567" y="475" on="0"/>
        <pt x="665" y="359" on="0"/>
        <pt x="726" y="305" on="1"/>
        <pt x="735" y="297" on="0"/>
        <pt x="742" y="290" on="0"/>
      </contour>
      <contour>
        <pt x="400" y="-95" on="1"/>
        <pt x="426" y="-46" on="0"/>
        <pt x="484" y="47" on="0"/>
        <pt x="542" y="125" on="0"/>
        <pt x="593" y="187" on="0"/>
        <pt x="611" y="206" on="1"/>
        <pt x="688" y="282" on="1"/>
        <pt x="656" y="314" on="0"/>
        <pt x="618" y="352" on="0"/>
        <pt x="591" y="380" on="0"/>
        <pt x="570" y="406" on="0"/>
        <pt x="555" y="424" on="1"/>
        <pt x="495" y="497" on="0"/>
        <pt x="420" y="622" on="0"/>
        <pt x="399" y="659" on="1"/>
        <pt x="374" y="610" on="0"/>
        <pt x="315" y="517" on="0"/>
        <pt x="257" y="439" on="0"/>
        <pt x="206" y="377" on="0"/>
        <pt x="188" y="358" on="1"/>
        <pt x="111" y="282" on="1"/>
        <pt x="143" y="251" on="0"/>
        <pt x="181" y="212" on="0"/>
        <pt x="208" y="184" on="0"/>
        <pt x="229" y="158" on="0"/>
        <pt x="244" y="140" on="1"/>
        <pt x="304" y="67" on="0"/>
        <pt x="379" y="-58" on="0"/>
      </contour>
    </TTGlyph>
    <TTGlyph name="divide" xMin="57" yMin="-39" xMax="741" yMax="540">
      <contour>
        <pt x="464" y="475" on="1"/>
        <pt x="464" y="449" on="0"/>
        <pt x="425" y="410" on="0"/>
        <pt x="399" y="410" on="1"/>
        <pt x="373" y="410" on="0"/>
        <pt x="334" y="449" on="0"/>
        <pt x="334" y="475" on="1"/>
        <pt x="334" y="501" on="0"/>
        <pt x="373" y="540" on="0"/>
        <pt x="399" y="540" on="1"/>
        <pt x="425" y="540" on="0"/>
        <pt x="464" y="501" on="0"/>
      </contour>
      <contour>
        <pt x="464" y="26" on="1"/>
        <pt x="464" y="0" on="0"/>
        <pt x="425" y="-39" on="0"/>
        <pt x="399" y="-39" on="1"/>
        <pt x="373" y="-39" on="0"/>
        <pt x="334" y="0" on="0"/>
        <pt x="334" y="26" on="1"/>
        <pt x="334" y="52" on="0"/>
        <pt x="373" y="91" on="0"/>
        <pt x="399" y="91" on="1"/>
        <pt x="425" y="91" on="0"/>
        <pt x="464" y="52" on="0"/>
      </contour>
      <contour>
        <pt x="704" y="272" on="1"/>
        <pt x="718" y="272" on="0"/>
        <pt x="741" y="267" on="0"/>
        <pt x="741" y="250" on="1"/>
        <pt x="741" y="234" on="0"/>
        <pt x="717" y="229" on="0"/>
        <pt x="704" y="229" on="1"/>
        <pt x="94" y="229" on="1"/>
        <pt x="80" y="229" on="0"/>
        <pt x="57" y="234" on="0"/>
        <pt x="57" y="251" on="1"/>
        <pt x="57" y="267" on="0"/>
        <pt x="81" y="272" on="0"/>
        <pt x="94" y="272" on="1"/>
      </contour>
    </TTGlyph>
    <TTGlyph name="element" xMin="86" yMin="-51" xMax="598" yMax="552">
      <contour>
        <pt x="130" y="229" on="1"/>
        <pt x="134" y="183" on="0"/>
        <pt x="176" y="97" on="0"/>
        <pt x="247" y="31" on="0"/>
        <pt x="345" y="-8" on="0"/>
        <pt x="403" y="-8" on="1"/>
        <pt x="561" y="-8" on="1"/>
        <pt x="575" y="-8" on="0"/>
        <pt x="598" y="-13" on="0"/>
        <pt x="598" y="-30" on="1"/>
        <pt x="598" y="-46" on="0"/>
        <pt x="574" y="-51" on="0"/>
        <pt x="561" y="-51" on="1"/>
        <pt x="400" y="-51" on="1"/>
        <pt x="335" y="-51" on="0"/>
        <pt x="220" y="-4" on="0"/>
        <pt x="135" y="78" on="0"/>
        <pt x="86" y="188" on="0"/>
        <pt x="86" y="251" on="1"/>
        <pt x="86" y="312" on="0"/>
        <pt x="135" y="421" on="0"/>
        <pt x="219" y="504" on="0"/>
        <pt x="334" y="552" on="0"/>
        <pt x="400" y="552" on="1"/>
        <pt x="561" y="552" on="1"/>
        <pt x="575" y="552" on="0"/>
        <pt x="598" y="547" on="0"/>
        <pt x="598" y="530" on="1"/>
        <pt x="598" y="514" on="0"/>
        <pt x="574" y="509" on="0"/>
        <pt x="561" y="509" on="1"/>
        <pt x="403" y="509" on="1"/>
        <pt x="345" y="509" on="0"/>
        <pt x="248" y="470" on="0"/>
        <pt x="176" y="404" on="0"/>
        <pt x="134" y="319" on="0"/>
        <pt x="130" y="272" on="1"/>
        <pt x="561" y="272" on="1"/>
        <pt x="575" y="272" on="0"/>
        <pt x="598" y="267" on="0"/>
        <pt x="598" y="250" on="1"/>
        <pt x="598" y="234" on="0"/>
        <pt x="574" y="229" on="0"/>
        <pt x="561" y="229" on="1"/>
      </contour>
    </TTGlyph>
    <TTGlyph name="emptyset" xMin="47" yMin="-78" xMax="466" yMax="772">
      <contour>
        <pt x="174" y="-2" on="1"/>
        <pt x="169" y="-18" on="0"/>
        <pt x="168" y="-24" on="0"/>
        <pt x="168" y="-26" on="0"/>
        <pt x="166" y="-32" on="0"/>
        <pt x="161" y="-48" on="1"/>
        <pt x="156" y="-62" on="0"/>
        <pt x="147" y="-78" on="0"/>
        <pt x="135" y="-78" on="1"/>
        <pt x="127" y="-78" on="0"/>
        <pt x="114" y="-66" on="0"/>
        <pt x="114" y="-56" on="1"/>
        <pt x="114" y="-56" on="0"/>
        <pt x="120" y="-36" on="0"/>
        <pt x="127" y="-10" on="0"/>
        <pt x="135" y="17" on="0"/>
        <pt x="137" y="25" on="1"/>
        <pt x="103" y="55" on="0"/>
        <pt x="67" y="143" on="0"/>
        <pt x="50" y="235" on="0"/>
        <pt x="47" y="319" on="0"/>
        <pt x="47" y="345" on="1"/>
        <pt x="47" y="375" on="0"/>
        <pt x="50" y="441" on="0"/>
        <pt x="59" y="508" on="0"/>
        <pt x="76" y="574" on="0"/>
        <pt x="91" y="604" on="1"/>
        <pt x="118" y="660" on="0"/>
        <pt x="204" y="716" on="0"/>
        <pt x="257" y="716" on="1"/>
        <pt x="285" y="716" on="0"/>
        <pt x="328" y="701" on="0"/>
        <pt x="339" y="695" on="1"/>
        <pt x="344" y="711" on="0"/>
        <pt x="345" y="717" on="0"/>
        <pt x="345" y="719" on="0"/>
        <pt x="347" y="726" on="0"/>
        <pt x="352" y="742" on="1"/>
        <pt x="357" y="755" on="0"/>
        <pt x="366" y="772" on="0"/>
        <pt x="378" y="772" on="1"/>
        <pt x="386" y="772" on="0"/>
        <pt x="399" y="760" on="0"/>
        <pt x="399" y="750" on="1"/>
        <pt x="399" y="750" on="0"/>
        <pt x="394" y="730" on="0"/>
        <pt x="386" y="704" on="0"/>
        <pt x="378" y="677" on="0"/>
        <pt x="376" y="669" on="1"/>
        <pt x="410" y="638" on="0"/>
        <pt x="446" y="548" on="0"/>
        <pt x="463" y="455" on="0"/>
        <pt x="466" y="371" on="0"/>
        <pt x="466" y="345" on="1"/>
        <pt x="466" y="286" on="0"/>
        <pt x="454" y="154" on="0"/>
        <pt x="426" y="94" on="1"/>
        <pt x="395" y="29" on="0"/>
        <pt x="302" y="-22" on="0"/>
        <pt x="256" y="-22" on="1"/>
        <pt x="227" y="-22" on="0"/>
        <pt x="182" y="-7" on="0"/>
      </contour>
      <contour>
        <pt x="329" y="665" on="1"/>
        <pt x="323" y="670" on="0"/>
        <pt x="284" y="691" on="0"/>
        <pt x="257" y="691" on="1"/>
        <pt x="241" y="691" on="0"/>
        <pt x="204" y="680" on="0"/>
        <pt x="170" y="654" on="0"/>
        <pt x="142" y="610" on="0"/>
        <pt x="134" y="578" on="1"/>
        <pt x="122" y="530" on="0"/>
        <pt x="118" y="417" on="0"/>
        <pt x="118" y="357" on="1"/>
        <pt x="118" y="323" on="0"/>
        <pt x="119" y="244" on="0"/>
        <pt x="125" y="167" on="0"/>
        <pt x="139" y="98" on="0"/>
        <pt x="151" y="73" on="1"/>
      </contour>
      <contour>
        <pt x="184" y="31" on="1"/>
        <pt x="192" y="24" on="0"/>
        <pt x="230" y="3" on="0"/>
        <pt x="256" y="3" on="1"/>
        <pt x="272" y="3" on="0"/>
        <pt x="308" y="14" on="0"/>
        <pt x="343" y="42" on="0"/>
        <pt x="372" y="91" on="0"/>
        <pt x="381" y="129" on="1"/>
        <pt x="392" y="180" on="0"/>
        <pt x="395" y="303" on="0"/>
        <pt x="395" y="357" on="1"/>
        <pt x="395" y="395" on="0"/>
        <pt x="394" y="470" on="0"/>
        <pt x="388" y="540" on="0"/>
        <pt x="374" y="601" on="0"/>
        <pt x="362" y="624" on="1"/>
      </contour>
    </TTGlyph>
    <TTGlyph name="equivalence" xMin="57" yMin="26" xMax="741" yMax="475">
      <contour>
        <pt x="94" y="432" on="1"/>
        <pt x="82" y="432" on="0"/>
        <pt x="57" y="437" on="0"/>
        <pt x="57" y="454" on="1"/>
        <pt x="57" y="470" on="0"/>
        <pt x="81" y="475" on="0"/>
        <pt x="94" y="475" on="1"/>
        <pt x="704" y="475" on="1"/>
        <pt x="717" y="475" on="0"/>
        <pt x="741" y="470" on="0"/>
        <pt x="741" y="454" on="1"/>
        <pt x="741" y="437" on="0"/>
        <pt x="717" y="432" on="0"/>
        <pt x="704" y="432" on="1"/>
      </contour>
      <contour>
        <pt x="94" y="26" on="1"/>
        <pt x="81" y="26" on="0"/>
        <pt x="57" y="31" on="0"/>
        <pt x="57" y="47" on="1"/>
        <pt x="57" y="64" on="0"/>
        <pt x="82" y="69" on="0"/>
        <pt x="94" y="69" on="1"/>
        <pt x="704" y="69" on="1"/>
        <pt x="717" y="69" on="0"/>
        <pt x="741" y="64" on="0"/>
        <pt x="741" y="47" on="1"/>
        <pt x="741" y="31" on="0"/>
        <pt x="717" y="26" on="0"/>
        <pt x="704" y="26" on="1"/>
      </contour>
      <contour>
        <pt x="94" y="229" on="1"/>
        <pt x="80" y="229" on="0"/>
        <pt x="57" y="234" on="0"/>
        <pt x="57" y="251" on="1"/>
        <pt x="57" y="267" on="0"/>
        <pt x="81" y="272" on="0"/>
        <pt x="94" y="272" on="1"/>
        <pt x="704" y="272" on="1"/>
        <pt x="718" y="272" on="0"/>
        <pt x="741" y="267" on="0"/>
        <pt x="741" y="250" on="1"/>
        <pt x="741" y="234" on="0"/>
        <pt x="717" y="229" on="0"/>
        <pt x="704" y="229" on="1"/>
      </contour>
    </TTGlyph>
    <TTGlyph name="existential" xMin="57" yMin="0" xMax="513" yMax="694">
      <contour>
        <pt x="513" y="37" on="1"/>
        <pt x="513" y="12" on="0"/>
        <pt x="500" y="0" on="0"/>
        <pt x="476" y="0" on="1"/>
        <pt x="94" y="0" on="1"/>
        <pt x="80" y="0" on="0"/>
        <pt x="57" y="5" on="0"/>
        <pt x="57" y="22" on="1"/>
        <pt x="57" y="38" on="0"/>
        <pt x="81" y="43" on="0"/>
        <pt x="94" y="43" on="1"/>
        <pt x="470" y="43" on="1"/>
        <pt x="470" y="326" on="1"/>
        <pt x="106" y="326" on="1"/>
        <pt x="95" y="326" on="0"/>
        <pt x="71" y="331" on="0"/>
        <pt x="71" y="347" on="1"/>
        <pt x="71" y="355" on="0"/>
        <pt x="79" y="364" on="0"/>
        <pt x="91" y="368" on="0"/>
        <pt x="105" y="369" on="0"/>
        <pt x="111" y="369" on="1"/>
        <pt x="470" y="369" on="1"/>
        <pt x="470" y="651" on="1"/>
        <pt x="94" y="651" on="1"/>
        <pt x="80" y="651" on="0"/>
        <pt x="57" y="656" on="0"/>
        <pt x="57" y="673" on="1"/>
        <pt x="57" y="689" on="0"/>
        <pt x="81" y="694" on="0"/>
        <pt x="94" y="694" on="1"/>
        <pt x="476" y="694" on="1"/>
        <pt x="488" y="694" on="0"/>
        <pt x="503" y="692" on="0"/>
        <pt x="510" y="685" on="0"/>
        <pt x="513" y="670" on="0"/>
        <pt x="513" y="657" on="1"/>
      </contour>
    </TTGlyph>
    <TTGlyph name="followsequal" xMin="86" yMin="-154" xMax="712" yMax="652">
      <contour>
        <pt x="418" y="351" on="1"/>
        <pt x="335" y="365" on="0"/>
        <pt x="221" y="416" on="0"/>
        <pt x="147" y="477" on="0"/>
        <pt x="108" y="540" on="0"/>
        <pt x="89" y="593" on="0"/>
        <pt x="86" y="628" on="0"/>
        <pt x="86" y="629" on="1"/>
        <pt x="86" y="641" on="0"/>
        <pt x="99" y="652" on="0"/>
        <pt x="107" y="652" on="1"/>
        <pt x="121" y="652" on="0"/>
        <pt x="128" y="632" on="0"/>
        <pt x="130" y="624" on="1"/>
        <pt x="141" y="551" on="0"/>
        <pt x="232" y="455" on="0"/>
        <pt x="377" y="397" on="0"/>
        <pt x="570" y="373" on="0"/>
        <pt x="683" y="372" on="1"/>
        <pt x="686" y="372" on="0"/>
        <pt x="696" y="371" on="0"/>
        <pt x="705" y="367" on="0"/>
        <pt x="712" y="358" on="0"/>
        <pt x="712" y="350" on="1"/>
        <pt x="712" y="342" on="0"/>
        <pt x="705" y="334" on="0"/>
        <pt x="696" y="330" on="0"/>
        <pt x="686" y="329" on="0"/>
        <pt x="684" y="329" on="1"/>
        <pt x="641" y="329" on="0"/>
        <pt x="530" y="324" on="0"/>
        <pt x="413" y="308" on="0"/>
        <pt x="299" y="276" on="0"/>
        <pt x="205" y="223" on="0"/>
        <pt x="140" y="143" on="0"/>
        <pt x="131" y="87" on="1"/>
        <pt x="128" y="67" on="0"/>
        <pt x="121" y="49" on="0"/>
        <pt x="107" y="49" on="1"/>
        <pt x="100" y="49" on="0"/>
        <pt x="86" y="60" on="0"/>
        <pt x="86" y="72" on="1"/>
        <pt x="86" y="72" on="0"/>
        <pt x="90" y="108" on="0"/>
        <pt x="108" y="161" on="0"/>
        <pt x="146" y="223" on="0"/>
        <pt x="179" y="251" on="1"/>
        <pt x="194" y="263" on="0"/>
        <pt x="235" y="290" on="0"/>
        <pt x="292" y="317" on="0"/>
        <pt x="368" y="341" on="0"/>
      </contour>
      <contour>
        <pt x="675" y="-111" on="1"/>
        <pt x="688" y="-111" on="0"/>
        <pt x="712" y="-116" on="0"/>
        <pt x="712" y="-132" on="1"/>
        <pt x="712" y="-149" on="0"/>
        <pt x="689" y="-154" on="0"/>
        <pt x="675" y="-154" on="1"/>
        <pt x="123" y="-154" on="1"/>
        <pt x="109" y="-154" on="0"/>
        <pt x="86" y="-149" on="0"/>
        <pt x="86" y="-132" on="1"/>
        <pt x="86" y="-116" on="0"/>
        <pt x="110" y="-111" on="0"/>
        <pt x="123" y="-111" on="1"/>
      </contour>
    </TTGlyph>
    <TTGlyph name="gradient" xMin="49" yMin="-33" xMax="806" yMax="683">
      <contour>
        <pt x="455" y="-12" on="1"/>
        <pt x="449" y="-24" on="0"/>
        <pt x="440" y="-33" on="0"/>
        <pt x="427" y="-33" on="1"/>
        <pt x="415" y="-33" on="0"/>
        <pt x="406" y="-24" on="0"/>
        <pt x="398" y="-8" on="1"/>
        <pt x="54" y="660" on="1"/>
        <pt x="53" y="662" on="0"/>
        <pt x="49" y="671" on="0"/>
        <pt x="49" y="674" on="1"/>
        <pt x="49" y="681" on="0"/>
        <pt x="60" y="683" on="0"/>
        <pt x="74" y="683" on="1"/>
        <pt x="781" y="683" on="1"/>
        <pt x="795" y="683" on="0"/>
        <pt x="806" y="681" on="0"/>
        <pt x="806" y="674" on="1"/>
        <pt x="806" y="671" on="0"/>
        <pt x="802" y="662" on="0"/>
        <pt x="801" y="660" on="1"/>
      </contour>
      <contour>
        <pt x="459" y="63" on="1"/>
        <pt x="739" y="608" on="1"/>
        <pt x="179" y="608" on="1"/>
      </contour>
    </TTGlyph>
    <TTGlyph name="greaterequal" xMin="86" yMin="-154" xMax="712" yMax="652">
      <contour>
        <pt x="126" y="55" on="1"/>
        <pt x="117" y="50" on="0"/>
        <pt x="109" y="49" on="0"/>
        <pt x="108" y="49" on="1"/>
        <pt x="96" y="49" on="0"/>
        <pt x="86" y="64" on="0"/>
        <pt x="86" y="70" on="1"/>
        <pt x="86" y="81" on="0"/>
        <pt x="98" y="89" on="0"/>
        <pt x="110" y="95" on="1"/>
        <pt x="641" y="351" on="1"/>
        <pt x="106" y="607" on="1"/>
        <pt x="99" y="610" on="0"/>
        <pt x="86" y="620" on="0"/>
        <pt x="86" y="630" on="1"/>
        <pt x="86" y="640" on="0"/>
        <pt x="99" y="652" on="0"/>
        <pt x="107" y="652" on="1"/>
        <pt x="109" y="652" on="0"/>
        <pt x="117" y="650" on="0"/>
        <pt x="128" y="645" on="1"/>
        <pt x="694" y="372" on="1"/>
        <pt x="702" y="368" on="0"/>
        <pt x="712" y="360" on="0"/>
        <pt x="712" y="350" on="1"/>
        <pt x="712" y="340" on="0"/>
        <pt x="699" y="330" on="0"/>
        <pt x="692" y="327" on="1"/>
      </contour>
      <contour>
        <pt x="123" y="-154" on="1"/>
        <pt x="110" y="-154" on="0"/>
        <pt x="86" y="-149" on="0"/>
        <pt x="86" y="-133" on="1"/>
        <pt x="86" y="-116" on="0"/>
        <pt x="112" y="-111" on="0"/>
        <pt x="123" y="-111" on="1"/>
        <pt x="675" y="-111" on="1"/>
        <pt x="686" y="-111" on="0"/>
        <pt x="712" y="-116" on="0"/>
        <pt x="712" y="-133" on="1"/>
        <pt x="712" y="-149" on="0"/>
        <pt x="688" y="-154" on="0"/>
        <pt x="675" y="-154" on="1"/>
      </contour>
    </TTGlyph>
</ttFont>
